<ttFont>
    <TTGlyph name="A" xMin="-23" yMin="-69" xMax="596" yMax="772">
      <contour>
        <pt x="553" y="678" on="1"/>
        <pt x="587" y="660" on="0"/>
        <pt x="596" y="625" on="1"/>
        <pt x="576" y="513" on="0"/>
        <pt x="544" y="292" on="0"/>
        <pt x="514" y="143" on="0"/>
        <pt x="503" y="69" on="0"/>
        <pt x="496" y="32" on="1"/>
        <pt x="490" y="11" on="1"/>
        <pt x="488" y="0" on="0"/>
        <pt x="484" y="-19" on="0"/>
        <pt x="482" y="-30" on="1"/>
        <pt x="454" y="-62" on="0"/>
        <pt x="406" y="-62" on="1"/>
        <pt x="355" y="-62" on="0"/>
        <pt x="325" y="-36" on="1"/>
        <pt x="307" y="-22" on="0"/>
        <pt x="319" y="23" on="1"/>
        <pt x="324" y="41" on="0"/>
        <pt x="327" y="98" on="0"/>
        <pt x="329" y="117" on="1"/>
        <pt x="329" y="119" on="1"/>
        <pt x="299" y="108" on="0"/>
        <pt x="251" y="73" on="0"/>
        <pt x="239" y="64" on="0"/>
        <pt x="219" y="59" on="0"/>
        <pt x="211" y="58" on="1"/>
        <pt x="192" y="57" on="0"/>
        <pt x="185" y="52" on="1"/>
        <pt x="127" y="-52" on="0"/>
        <pt x="81" y="-64" on="1"/>
        <pt x="52" y="-73" on="0"/>
        <pt x="-6" y="-64" on="0"/>
        <pt x="-23" y="-34" on="1"/>
        <pt x="-55" y="-4" on="0"/>
        <pt x="-7" y="130" on="1"/>
        <pt x="19" y="201" on="0"/>
        <pt x="116" y="400" on="0"/>
        <pt x="161" y="474" on="1"/>
        <pt x="258" y="633" on="0"/>
        <pt x="374" y="742" on="1"/>
        <pt x="393" y="750" on="0"/>
        <pt x="437" y="771" on="0"/>
        <pt x="480" y="773" on="0"/>
        <pt x="526" y="761" on="0"/>
        <pt x="542" y="749" on="1"/>
        <pt x="579" y="721" on="0"/>
      </contour>
      <contour>
        <pt x="339" y="415" on="1"/>
        <pt x="318" y="355" on="0"/>
        <pt x="276" y="254" on="0"/>
        <pt x="261" y="216" on="1"/>
        <pt x="340" y="219" on="1"/>
        <pt x="348" y="283" on="0"/>
        <pt x="368" y="409" on="0"/>
        <pt x="377" y="472" on="1"/>
      </contour>
      <contour>
        <pt x="312" y="215" on="1"/>
        <pt x="326" y="215" on="0"/>
        <pt x="340" y="217" on="1"/>
        <pt x="340" y="218" on="1"/>
        <pt x="327" y="217" on="0"/>
        <pt x="305" y="215" on="0"/>
      </contour>
    </TTGlyph>
    <TTGlyph name="AE" xMin="-23" yMin="-69" xMax="928" yMax="785">
      <component glyphName="A" x="0" y="0" flags="0x1004"/>
      <component glyphName="E" x="334" y="15" flags="0x1004"/>
    </TTGlyph>
    <TTGlyph name="Aacute" xMin="-23" yMin="-69" xMax="654" yMax="1073">
      <component glyphName="A" x="0" y="0" flags="0x1204"/>
      <component glyphName="acute" x="363" y="203" flags="0x1004"/>
    </TTGlyph>
    <TTGlyph name="Acircumflex" xMin="-23" yMin="-69" xMax="685" yMax="1108">
      <component glyphName="A" x="0" y="0" flags="0x1204"/>
      <component glyphName="circumflex" x="299" y="316" flags="0x1004"/>
    </TTGlyph>
    <TTGlyph name="Adieresis" xMin="-23" yMin="-69" xMax="708" yMax="990">
      <component glyphName="A" x="0" y="0" flags="0x1204"/>
      <component glyphName="dieresis" x="233" y="197" flags="0x1004"/>
    </TTGlyph>
    <TTGlyph name="Agrave" xMin="-23" yMin="-69" xMax="603" yMax="1046">
      <component glyphName="A" x="0" y="0" flags="0x1204"/>
      <component glyphName="grave" x="348" y="161" flags="0x1004"/>
    </TTGlyph>
    <TTGlyph name="Aring" xMin="-23" yMin="-69" xMax="710" yMax="1012">
      <component glyphName="A" x="0" y="0" flags="0x1204"/>
      <component glyphName="ring" x="262" y="134" flags="0x1004"/>
    </TTGlyph>
    <TTGlyph name="Atilde" xMin="-23" yMin="-69" xMax="704" yMax="987">
      <component glyphName="A" x="0" y="0" flags="0x1204"/>
      <component glyphName="tilde" x="335" y="166" flags="0x1004"/>
    </TTGlyph>
    <TTGlyph name="B" xMin="-14" yMin="-62" xMax="635" yMax="774">
      <contour>
        <pt x="528" y="754" on="1"/>
        <pt x="532" y="753" on="1"/>
        <pt x="557" y="738" on="0"/>
        <pt x="594" y="701" on="0"/>
        <pt x="625" y="660" on="0"/>
        <pt x="634" y="636" on="1"/>
        <pt x="672" y="544" on="0"/>
        <pt x="568" y="430" on="1"/>
        <pt x="524" y="382" on="0"/>
        <pt x="469" y="348" on="1"/>
        <pt x="483" y="338" on="0"/>
        <pt x="508" y="329" on="0"/>
        <pt x="554" y="304" on="0"/>
        <pt x="568" y="235" on="0"/>
        <pt x="547" y="149" on="0"/>
        <pt x="492" y="58" on="0"/>
        <pt x="448" y="22" on="1"/>
        <pt x="348" y="-61" on="0"/>
        <pt x="216" y="-48" on="1"/>
        <pt x="197" y="-48" on="0"/>
        <pt x="187" y="-42" on="0"/>
        <pt x="181" y="-38" on="0"/>
        <pt x="171" y="-37" on="1"/>
        <pt x="146" y="-57" on="0"/>
        <pt x="82" y="-67" on="0"/>
        <pt x="25" y="-47" on="0"/>
        <pt x="-14" y="1" on="0"/>
        <pt x="-14" y="40" on="1"/>
        <pt x="-11" y="66" on="0"/>
        <pt x="-4" y="81" on="1"/>
        <pt x="-7" y="90" on="0"/>
        <pt x="-7" y="103" on="1"/>
        <pt x="27" y="284" on="0"/>
        <pt x="57" y="380" on="1"/>
        <pt x="118" y="571" on="0"/>
        <pt x="189" y="668" on="1"/>
        <pt x="247" y="750" on="0"/>
        <pt x="350" y="774" on="1"/>
        <pt x="449" y="797" on="0"/>
      </contour>
      <contour>
        <pt x="217" y="56" on="1"/>
        <pt x="229" y="59" on="0"/>
        <pt x="246" y="56" on="0"/>
        <pt x="258" y="58" on="1"/>
        <pt x="287" y="61" on="0"/>
        <pt x="336" y="94" on="1"/>
        <pt x="367" y="125" on="0"/>
        <pt x="371" y="185" on="0"/>
        <pt x="349" y="202" on="0"/>
        <pt x="312" y="202" on="0"/>
        <pt x="267" y="191" on="0"/>
        <pt x="246" y="190" on="1"/>
        <pt x="246" y="188" on="1"/>
        <pt x="241" y="168" on="0"/>
        <pt x="231" y="138" on="0"/>
        <pt x="227" y="124" on="1"/>
        <pt x="218" y="91" on="0"/>
        <pt x="213" y="56" on="1"/>
      </contour>
      <contour>
        <pt x="403" y="576" on="1"/>
        <pt x="373" y="580" on="0"/>
        <pt x="338" y="529" on="1"/>
        <pt x="316" y="497" on="0"/>
        <pt x="304" y="432" on="1"/>
        <pt x="325" y="441" on="0"/>
        <pt x="366" y="454" on="0"/>
        <pt x="384" y="462" on="1"/>
        <pt x="428" y="481" on="0"/>
        <pt x="447" y="508" on="1"/>
        <pt x="469" y="534" on="0"/>
        <pt x="461" y="552" on="1"/>
        <pt x="449" y="568" on="0"/>
        <pt x="422" y="581" on="1"/>
        <pt x="414" y="574" on="0"/>
      </contour>
      <contour>
        <pt x="388" y="580" on="1"/>
        <pt x="391" y="580" on="1"/>
      </contour>
    </TTGlyph>
    <TTGlyph name="C" xMin="18" yMin="-58" xMax="650" yMax="762">
      <contour>
        <pt x="449" y="498" on="1"/>
        <pt x="449" y="528" on="0"/>
        <pt x="428" y="528" on="1"/>
        <pt x="420" y="528" on="0"/>
        <pt x="398" y="520" on="0"/>
        <pt x="388" y="517" on="1"/>
        <pt x="351" y="497" on="0"/>
        <pt x="310" y="450" on="0"/>
        <pt x="268" y="392" on="0"/>
        <pt x="238" y="326" on="0"/>
        <pt x="230" y="297" on="1"/>
        <pt x="201" y="190" on="0"/>
        <pt x="252" y="153" on="1"/>
        <pt x="273" y="138" on="0"/>
        <pt x="320" y="139" on="0"/>
        <pt x="349" y="157" on="0"/>
        <pt x="377" y="173" on="0"/>
        <pt x="414" y="180" on="0"/>
        <pt x="469" y="163" on="0"/>
        <pt x="473" y="135" on="0"/>
        <pt x="469" y="105" on="0"/>
        <pt x="472" y="81" on="0"/>
        <pt x="492" y="78" on="1"/>
        <pt x="511" y="54" on="0"/>
        <pt x="468" y="20" on="1"/>
        <pt x="457" y="11" on="0"/>
        <pt x="447" y="3" on="1"/>
        <pt x="361" y="-52" on="0"/>
        <pt x="264" y="-58" on="1"/>
        <pt x="203" y="-62" on="0"/>
        <pt x="134" y="-36" on="1"/>
        <pt x="31" y="3" on="0"/>
        <pt x="18" y="139" on="1"/>
        <pt x="1" y="265" on="0"/>
        <pt x="50" y="400" on="1"/>
        <pt x="91" y="514" on="0"/>
        <pt x="174" y="611" on="1"/>
        <pt x="249" y="700" on="0"/>
        <pt x="322" y="727" on="1"/>
        <pt x="409" y="772" on="0"/>
        <pt x="510" y="762" on="1"/>
        <pt x="617" y="748" on="0"/>
        <pt x="650" y="671" on="1"/>
        <pt x="683" y="594" on="0"/>
        <pt x="639" y="486" on="1"/>
        <pt x="624" y="448" on="0"/>
        <pt x="582" y="426" on="1"/>
        <pt x="546" y="406" on="0"/>
        <pt x="462" y="406" on="0"/>
        <pt x="438" y="459" on="0"/>
      </contour>
    </TTGlyph>
    <TTGlyph name="Ccedilla" xMin="16" yMin="-365" xMax="650" yMax="762">
      <component glyphName="C" x="0" y="0" flags="0x1204"/>
      <component glyphName="cedilla" x="29" y="-61" flags="0x1004"/>
    </TTGlyph>
    <TTGlyph name="D" xMin="0" yMin="-71" xMax="623" yMax="769">
      <contour>
        <pt x="622" y="406" on="1"/>
        <pt x="618" y="363" on="0"/>
        <pt x="595" y="273" on="0"/>
        <pt x="552" y="187" on="0"/>
        <pt x="493" y="107" on="0"/>
        <pt x="421" y="39" on="0"/>
        <pt x="380" y="16" on="1"/>
        <pt x="292" y="-36" on="0"/>
        <pt x="210" y="-21" on="1"/>
        <pt x="192" y="-60" on="0"/>
        <pt x="121" y="-81" on="0"/>
        <pt x="52" y="-60" on="0"/>
        <pt x="0" y="-2" on="0"/>
        <pt x="0" y="99" on="0"/>
        <pt x="14" y="205" on="0"/>
        <pt x="26" y="254" on="1"/>
        <pt x="45" y="335" on="0"/>
        <pt x="73" y="406" on="1"/>
        <pt x="139" y="567" on="0"/>
        <pt x="148" y="632" on="1"/>
        <pt x="161" y="719" on="0"/>
        <pt x="196" y="740" on="1"/>
        <pt x="254" y="774" on="0"/>
        <pt x="358" y="764" on="0"/>
        <pt x="400" y="744" on="1"/>
        <pt x="469" y="711" on="0"/>
        <pt x="549" y="633" on="1"/>
        <pt x="637" y="548" on="0"/>
      </contour>
      <contour>
        <pt x="229" y="106" on="1"/>
        <pt x="280" y="132" on="0"/>
        <pt x="343" y="187" on="0"/>
        <pt x="371" y="210" on="1"/>
        <pt x="414" y="253" on="0"/>
        <pt x="434" y="312" on="1"/>
        <pt x="478" y="442" on="0"/>
        <pt x="378" y="509" on="1"/>
        <pt x="363" y="520" on="0"/>
        <pt x="333" y="539" on="1"/>
        <pt x="319" y="507" on="0"/>
        <pt x="306" y="437" on="0"/>
        <pt x="295" y="404" on="1"/>
        <pt x="268" y="316" on="1"/>
        <pt x="246" y="221" on="1"/>
        <pt x="244" y="201" on="0"/>
        <pt x="236" y="164" on="0"/>
        <pt x="233" y="144" on="1"/>
      </contour>
    </TTGlyph>
    <TTGlyph name="E" xMin="7" yMin="-70" xMax="594" yMax="770">
      <contour>
        <pt x="226" y="126" on="1"/>
        <pt x="284" y="120" on="0"/>
        <pt x="341" y="120" on="0"/>
        <pt x="399" y="128" on="1"/>
        <pt x="417" y="122" on="0"/>
        <pt x="423" y="104" on="0"/>
        <pt x="421" y="85" on="0"/>
        <pt x="425" y="67" on="0"/>
        <pt x="442" y="61" on="1"/>
        <pt x="451" y="58" on="0"/>
        <pt x="444" y="29" on="0"/>
        <pt x="431" y="12" on="1"/>
        <pt x="398" y="-31" on="0"/>
        <pt x="353" y="-48" on="1"/>
        <pt x="281" y="-66" on="0"/>
        <pt x="240" y="-69" on="1"/>
        <pt x="172" y="-74" on="0"/>
        <pt x="92" y="-64" on="1"/>
        <pt x="4" y="-48" on="0"/>
        <pt x="7" y="9" on="1"/>
        <pt x="7" y="219" on="0"/>
        <pt x="99" y="431" on="1"/>
        <pt x="129" y="500" on="0"/>
        <pt x="167" y="576" on="1"/>
        <pt x="175" y="592" on="0"/>
        <pt x="178" y="632" on="0"/>
        <pt x="180" y="670" on="0"/>
        <pt x="190" y="700" on="0"/>
        <pt x="206" y="706" on="1"/>
        <pt x="414" y="789" on="0"/>
        <pt x="535" y="770" on="1"/>
        <pt x="577" y="769" on="0"/>
        <pt x="604" y="714" on="0"/>
        <pt x="583" y="646" on="0"/>
        <pt x="522" y="586" on="0"/>
        <pt x="476" y="579" on="1"/>
        <pt x="417" y="562" on="0"/>
        <pt x="404" y="556" on="1"/>
        <pt x="379" y="544" on="0"/>
        <pt x="368" y="524" on="1"/>
        <pt x="354" y="502" on="0"/>
        <pt x="330" y="462" on="0"/>
        <pt x="325" y="439" on="1"/>
        <pt x="321" y="417" on="1"/>
        <pt x="340" y="408" on="0"/>
        <pt x="395" y="415" on="0"/>
        <pt x="442" y="422" on="0"/>
        <pt x="471" y="416" on="0"/>
        <pt x="454" y="363" on="0"/>
        <pt x="409" y="297" on="0"/>
        <pt x="368" y="282" on="1"/>
        <pt x="342" y="277" on="0"/>
        <pt x="323" y="272" on="0"/>
        <pt x="318" y="271" on="1"/>
        <pt x="311" y="270" on="0"/>
        <pt x="278" y="268" on="1"/>
        <pt x="231" y="188" on="0"/>
        <pt x="221" y="144" on="1"/>
        <pt x="217" y="126" on="0"/>
      </contour>
    </TTGlyph>
    <TTGlyph name="Eacute" xMin="7" yMin="-70" xMax="594" yMax="1058">
      <component glyphName="E" x="0" y="0" flags="0x1204"/>
      <component glyphName="acute" x="282" y="188" flags="0x1004"/>
    </TTGlyph>
    <TTGlyph name="Ecircumflex" xMin="7" yMin="-70" xMax="628" yMax="1119">
      <component glyphName="E" x="0" y="0" flags="0x1204"/>
      <component glyphName="circumflex" x="242" y="327" flags="0x1004"/>
    </TTGlyph>
    <TTGlyph name="Edieresis" xMin="7" yMin="-70" xMax="658" yMax="986">
      <component glyphName="E" x="0" y="0" flags="0x1204"/>
      <component glyphName="dieresis" x="183" y="193" flags="0x1004"/>
    </TTGlyph>
    <TTGlyph name="Egrave" xMin="7" yMin="-70" xMax="594" yMax="1049">
      <component glyphName="E" x="0" y="0" flags="0x1204"/>
      <component glyphName="grave" x="267" y="164" flags="0x1004"/>
    </TTGlyph>
    <TTGlyph name="Eth" xMin="-105" yMin="-71" xMax="680" yMax="769">
      <contour>
        <pt x="680" y="406" on="1"/>
        <pt x="675" y="363" on="0"/>
        <pt x="652" y="273" on="0"/>
        <pt x="609" y="187" on="0"/>
        <pt x="550" y="107" on="0"/>
        <pt x="478" y="39" on="0"/>
        <pt x="438" y="16" on="1"/>
        <pt x="349" y="-36" on="0"/>
        <pt x="267" y="-21" on="1"/>
        <pt x="249" y="-60" on="0"/>
        <pt x="178" y="-81" on="0"/>
        <pt x="109" y="-60" on="0"/>
        <pt x="57" y="-2" on="0"/>
        <pt x="57" y="99" on="0"/>
        <pt x="71" y="205" on="0"/>
        <pt x="82" y="254" on="1"/>
        <pt x="102" y="335" on="0"/>
        <pt x="130" y="406" on="1"/>
        <pt x="196" y="567" on="0"/>
        <pt x="206" y="632" on="1"/>
        <pt x="218" y="719" on="0"/>
        <pt x="254" y="740" on="1"/>
        <pt x="311" y="774" on="0"/>
        <pt x="415" y="764" on="0"/>
        <pt x="458" y="744" on="1"/>
        <pt x="526" y="711" on="0"/>
        <pt x="606" y="633" on="1"/>
        <pt x="694" y="548" on="0"/>
      </contour>
      <contour>
        <pt x="286" y="106" on="1"/>
        <pt x="337" y="132" on="0"/>
        <pt x="400" y="187" on="0"/>
        <pt x="428" y="210" on="1"/>
        <pt x="471" y="253" on="0"/>
        <pt x="491" y="312" on="1"/>
        <pt x="535" y="442" on="0"/>
        <pt x="435" y="509" on="1"/>
        <pt x="420" y="520" on="0"/>
        <pt x="390" y="539" on="1"/>
        <pt x="376" y="507" on="0"/>
        <pt x="363" y="437" on="0"/>
        <pt x="352" y="404" on="1"/>
        <pt x="325" y="316" on="1"/>
        <pt x="303" y="221" on="1"/>
        <pt x="301" y="201" on="0"/>
        <pt x="293" y="164" on="0"/>
        <pt x="290" y="144" on="1"/>
      </contour>
      <contour>
        <pt x="163" y="234" on="1"/>
        <pt x="-8" y="237" on="1"/>
        <pt x="-10" y="236" on="0"/>
        <pt x="-14" y="236" on="0"/>
        <pt x="-17" y="235" on="1"/>
        <pt x="-18" y="237" on="1"/>
        <pt x="-50" y="237" on="0"/>
        <pt x="-97" y="256" on="0"/>
        <pt x="-112" y="286" on="0"/>
        <pt x="-89" y="320" on="0"/>
        <pt x="-51" y="334" on="1"/>
        <pt x="-33" y="336" on="1"/>
        <pt x="-26" y="362" on="0"/>
        <pt x="41" y="408" on="0"/>
        <pt x="106" y="416" on="1"/>
        <pt x="164" y="418" on="1"/>
        <pt x="209" y="418" on="1"/>
        <pt x="233" y="418" on="0"/>
        <pt x="257" y="417" on="1"/>
        <pt x="310" y="430" on="0"/>
        <pt x="366" y="414" on="1"/>
        <pt x="434" y="393" on="0"/>
        <pt x="430" y="342" on="1"/>
        <pt x="428" y="316" on="0"/>
        <pt x="396" y="285" on="1"/>
        <pt x="379" y="279" on="0"/>
        <pt x="347" y="262" on="0"/>
        <pt x="319" y="252" on="1"/>
        <pt x="264" y="234" on="0"/>
      </contour>
    </TTGlyph>
    <TTGlyph name="Euro" xMin="-153" yMin="-59" xMax="672" yMax="794">
      <contour>
        <pt x="388" y="555" on="1"/>
        <pt x="420" y="549" on="1"/>
        <pt x="433" y="549" on="0"/>
        <pt x="482" y="554" on="0"/>
        <pt x="506" y="555" on="1"/>
        <pt x="564" y="557" on="0"/>
        <pt x="564" y="539" on="1"/>
        <pt x="568" y="521" on="0"/>
        <pt x="586" y="513" on="0"/>
        <pt x="604" y="513" on="0"/>
        <pt x="616" y="510" on="0"/>
        <pt x="613" y="496" on="1"/>
        <pt x="640" y="460" on="0"/>
        <pt x="620" y="408" on="0"/>
        <pt x="564" y="378" on="0"/>
        <pt x="488" y="371" on="0"/>
        <pt x="459" y="379" on="1"/>
        <pt x="432" y="379" on="1"/>
        <pt x="403" y="381" on="0"/>
        <pt x="347" y="377" on="0"/>
        <pt x="318" y="380" on="1"/>
        <pt x="305" y="352" on="0"/>
        <pt x="293" y="307" on="1"/>
        <pt x="331" y="314" on="0"/>
        <pt x="408" y="334" on="0"/>
        <pt x="447" y="338" on="1"/>
        <pt x="499" y="334" on="0"/>
        <pt x="536" y="317" on="1"/>
        <pt x="547" y="312" on="0"/>
        <pt x="569" y="313" on="0"/>
        <pt x="582" y="306" on="1"/>
        <pt x="610" y="240" on="0"/>
        <pt x="488" y="206" on="1"/>
        <pt x="428" y="190" on="0"/>
        <pt x="304" y="175" on="0"/>
        <pt x="277" y="170" on="1"/>
        <pt x="283" y="97" on="0"/>
        <pt x="318" y="62" on="1"/>
        <pt x="329" y="51" on="0"/>
        <pt x="339" y="40" on="1"/>
        <pt x="340" y="39" on="0"/>
        <pt x="342" y="39" on="0"/>
        <pt x="343" y="38" on="1"/>
        <pt x="344" y="38" on="1"/>
        <pt x="385" y="43" on="0"/>
        <pt x="414" y="51" on="1"/>
        <pt x="441" y="60" on="1"/>
        <pt x="456" y="67" on="1"/>
        <pt x="467" y="75" on="1"/>
        <pt x="481" y="87" on="0"/>
        <pt x="505" y="110" on="0"/>
        <pt x="549" y="121" on="0"/>
        <pt x="589" y="115" on="0"/>
        <pt x="613" y="90" on="0"/>
        <pt x="607" y="66" on="1"/>
        <pt x="574" y="10" on="0"/>
        <pt x="546" y="-10" on="1"/>
        <pt x="494" y="-50" on="0"/>
        <pt x="356" y="-67" on="0"/>
        <pt x="288" y="-49" on="1"/>
        <pt x="265" y="-45" on="0"/>
        <pt x="245" y="-34" on="1"/>
        <pt x="184" y="-10" on="0"/>
        <pt x="93" y="81" on="0"/>
        <pt x="79" y="144" on="1"/>
        <pt x="76" y="161" on="1"/>
        <pt x="41" y="159" on="0"/>
        <pt x="-97" y="150" on="1"/>
        <pt x="-143" y="159" on="0"/>
        <pt x="-152" y="184" on="1"/>
        <pt x="-163" y="210" on="0"/>
        <pt x="-117" y="230" on="1"/>
        <pt x="-76" y="246" on="0"/>
        <pt x="30" y="261" on="0"/>
        <pt x="74" y="268" on="1"/>
        <pt x="80" y="324" on="0"/>
        <pt x="100" y="385" on="1"/>
        <pt x="97" y="384" on="0"/>
        <pt x="51" y="380" on="0"/>
        <pt x="-16" y="372" on="0"/>
        <pt x="-53" y="386" on="1"/>
        <pt x="-78" y="407" on="0"/>
        <pt x="-63" y="443" on="0"/>
        <pt x="-4" y="466" on="0"/>
        <pt x="64" y="478" on="0"/>
        <pt x="102" y="487" on="0"/>
        <pt x="107" y="489" on="0"/>
        <pt x="110" y="490" on="0"/>
        <pt x="115" y="492" on="0"/>
        <pt x="121" y="494" on="1"/>
        <pt x="141" y="589" on="0"/>
        <pt x="177" y="641" on="1"/>
        <pt x="222" y="707" on="0"/>
        <pt x="324" y="752" on="1"/>
        <pt x="409" y="790" on="0"/>
        <pt x="515" y="794" on="1"/>
        <pt x="627" y="797" on="0"/>
        <pt x="661" y="755" on="1"/>
        <pt x="681" y="731" on="0"/>
        <pt x="662" y="677" on="0"/>
        <pt x="608" y="634" on="0"/>
        <pt x="530" y="607" on="0"/>
        <pt x="490" y="610" on="1"/>
      </contour>
      <contour>
        <pt x="486" y="381" on="1"/>
        <pt x="487" y="380" on="0"/>
        <pt x="488" y="380" on="1"/>
        <pt x="509" y="381" on="1"/>
      </contour>
    </TTGlyph>
    <TTGlyph name="F" xMin="-30" yMin="-54" xMax="565" yMax="774">
      <contour>
        <pt x="148" y="9" on="1"/>
        <pt x="135" y="-38" on="0"/>
        <pt x="82" y="-54" on="1"/>
        <pt x="34" y="-68" on="0"/>
        <pt x="-4" y="-44" on="1"/>
        <pt x="-45" y="-19" on="0"/>
        <pt x="-30" y="30" on="1"/>
        <pt x="-17" y="86" on="0"/>
        <pt x="57" y="332" on="0"/>
        <pt x="72" y="382" on="1"/>
        <pt x="107" y="506" on="0"/>
        <pt x="116" y="546" on="1"/>
        <pt x="147" y="646" on="0"/>
        <pt x="174" y="694" on="0"/>
        <pt x="194" y="713" on="0"/>
        <pt x="239" y="739" on="0"/>
        <pt x="291" y="753" on="0"/>
        <pt x="343" y="758" on="0"/>
        <pt x="397" y="761" on="0"/>
        <pt x="430" y="769" on="1"/>
        <pt x="443" y="769" on="0"/>
        <pt x="464" y="773" on="0"/>
        <pt x="474" y="774" on="1"/>
        <pt x="497" y="776" on="0"/>
        <pt x="542" y="762" on="0"/>
        <pt x="565" y="726" on="0"/>
        <pt x="565" y="680" on="0"/>
        <pt x="546" y="628" on="0"/>
        <pt x="529" y="604" on="1"/>
        <pt x="492" y="552" on="0"/>
        <pt x="436" y="530" on="1"/>
        <pt x="397" y="518" on="0"/>
        <pt x="363" y="518" on="0"/>
        <pt x="350" y="526" on="0"/>
        <pt x="348" y="530" on="0"/>
        <pt x="342" y="521" on="1"/>
        <pt x="333" y="508" on="0"/>
        <pt x="325" y="476" on="0"/>
        <pt x="315" y="461" on="0"/>
        <pt x="298" y="417" on="0"/>
        <pt x="272" y="388" on="0"/>
        <pt x="270" y="385" on="1"/>
        <pt x="358" y="394" on="1"/>
        <pt x="379" y="396" on="0"/>
        <pt x="410" y="375" on="0"/>
        <pt x="423" y="345" on="0"/>
        <pt x="417" y="316" on="0"/>
        <pt x="387" y="301" on="0"/>
        <pt x="378" y="286" on="0"/>
        <pt x="372" y="272" on="0"/>
        <pt x="363" y="258" on="0"/>
        <pt x="348" y="252" on="1"/>
        <pt x="316" y="237" on="0"/>
        <pt x="225" y="228" on="1"/>
        <pt x="220" y="213" on="0"/>
        <pt x="203" y="172" on="0"/>
        <pt x="194" y="150" on="1"/>
        <pt x="168" y="83" on="0"/>
        <pt x="161" y="55" on="0"/>
        <pt x="159" y="46" on="1"/>
        <pt x="153" y="19" on="0"/>
      </contour>
    </TTGlyph>
    <TTGlyph name="G" xMin="-13" yMin="-64" xMax="672" yMax="755">
      <contour>
        <pt x="397" y="755" on="1"/>
        <pt x="541" y="784" on="0"/>
        <pt x="621" y="719" on="1"/>
        <pt x="659" y="688" on="0"/>
        <pt x="684" y="570" on="0"/>
        <pt x="658" y="497" on="1"/>
        <pt x="647" y="463" on="0"/>
        <pt x="593" y="429" on="0"/>
        <pt x="536" y="424" on="0"/>
        <pt x="490" y="443" on="0"/>
        <pt x="488" y="461" on="1"/>
        <pt x="479" y="481" on="1"/>
        <pt x="455" y="517" on="0"/>
        <pt x="396" y="490" on="1"/>
        <pt x="345" y="467" on="0"/>
        <pt x="294" y="410" on="1"/>
        <pt x="240" y="349" on="0"/>
        <pt x="224" y="300" on="1"/>
        <pt x="206" y="246" on="0"/>
        <pt x="206" y="229" on="1"/>
        <pt x="204" y="191" on="0"/>
        <pt x="233" y="161" on="1"/>
        <pt x="275" y="134" on="0"/>
        <pt x="359" y="139" on="0"/>
        <pt x="425" y="172" on="0"/>
        <pt x="467" y="214" on="0"/>
        <pt x="467" y="223" on="1"/>
        <pt x="470" y="229" on="0"/>
        <pt x="476" y="241" on="0"/>
        <pt x="478" y="247" on="1"/>
        <pt x="474" y="247" on="0"/>
        <pt x="486" y="248" on="0"/>
        <pt x="480" y="247" on="0"/>
        <pt x="486" y="246" on="1"/>
        <pt x="492" y="244" on="1"/>
        <pt x="443" y="200" on="0"/>
        <pt x="397" y="226" on="1"/>
        <pt x="379" y="237" on="0"/>
        <pt x="351" y="262" on="0"/>
        <pt x="339" y="261" on="1"/>
        <pt x="317" y="273" on="0"/>
        <pt x="329" y="308" on="1"/>
        <pt x="334" y="322" on="0"/>
        <pt x="361" y="347" on="0"/>
        <pt x="382" y="352" on="1"/>
        <pt x="482" y="395" on="0"/>
        <pt x="567" y="372" on="1"/>
        <pt x="605" y="362" on="0"/>
        <pt x="634" y="301" on="0"/>
        <pt x="630" y="225" on="0"/>
        <pt x="601" y="147" on="0"/>
        <pt x="567" y="100" on="0"/>
        <pt x="506" y="36" on="0"/>
        <pt x="460" y="6" on="1"/>
        <pt x="347" y="-67" on="0"/>
        <pt x="218" y="-64" on="1"/>
        <pt x="31" y="-61" on="0"/>
        <pt x="-3" y="89" on="1"/>
        <pt x="-14" y="137" on="0"/>
        <pt x="-13" y="197" on="1"/>
        <pt x="-3" y="371" on="0"/>
        <pt x="91" y="522" on="1"/>
        <pt x="136" y="594" on="0"/>
        <pt x="212" y="664" on="1"/>
        <pt x="260" y="707" on="0"/>
        <pt x="320" y="730" on="1"/>
        <pt x="352" y="743" on="0"/>
      </contour>
    </TTGlyph>
    <TTGlyph name="H" xMin="-34" yMin="-81" xMax="696" yMax="786">
      <contour>
        <pt x="239" y="218" on="1"/>
        <pt x="191" y="96" on="1"/>
        <pt x="181" y="68" on="0"/>
        <pt x="165" y="8" on="0"/>
        <pt x="147" y="-37" on="0"/>
        <pt x="110" y="-63" on="0"/>
        <pt x="64" y="-76" on="0"/>
        <pt x="15" y="-74" on="0"/>
        <pt x="-4" y="-66" on="1"/>
        <pt x="-47" y="-46" on="0"/>
        <pt x="-34" y="0" on="1"/>
        <pt x="12" y="202" on="0"/>
        <pt x="93" y="446" on="0"/>
        <pt x="146" y="586" on="0"/>
        <pt x="175" y="664" on="1"/>
        <pt x="178" y="693" on="0"/>
        <pt x="220" y="739" on="0"/>
        <pt x="277" y="769" on="0"/>
        <pt x="339" y="782" on="0"/>
        <pt x="387" y="772" on="0"/>
        <pt x="410" y="738" on="0"/>
        <pt x="400" y="706" on="1"/>
        <pt x="364" y="614" on="0"/>
        <pt x="334" y="538" on="0"/>
        <pt x="322" y="508" on="1"/>
        <pt x="294" y="442" on="1"/>
        <pt x="315" y="441" on="0"/>
        <pt x="347" y="448" on="1"/>
        <pt x="405" y="461" on="0"/>
        <pt x="431" y="457" on="1"/>
        <pt x="431" y="462" on="0"/>
        <pt x="436" y="474" on="1"/>
        <pt x="464" y="596" on="0"/>
        <pt x="499" y="698" on="1"/>
        <pt x="524" y="782" on="0"/>
        <pt x="628" y="786" on="1"/>
        <pt x="669" y="786" on="0"/>
        <pt x="690" y="766" on="1"/>
        <pt x="713" y="745" on="0"/>
        <pt x="696" y="709" on="1"/>
        <pt x="604" y="451" on="0"/>
        <pt x="566" y="302" on="1"/>
        <pt x="523" y="130" on="0"/>
        <pt x="496" y="10" on="0"/>
        <pt x="476" y="-12" on="0"/>
        <pt x="455" y="-21" on="0"/>
        <pt x="435" y="-29" on="0"/>
        <pt x="429" y="-45" on="1"/>
        <pt x="426" y="-45" on="1"/>
        <pt x="418" y="-63" on="0"/>
        <pt x="364" y="-83" on="0"/>
        <pt x="309" y="-78" on="0"/>
        <pt x="272" y="-43" on="0"/>
        <pt x="281" y="-7" on="1"/>
        <pt x="291" y="50" on="0"/>
        <pt x="337" y="181" on="0"/>
        <pt x="364" y="255" on="0"/>
        <pt x="373" y="287" on="1"/>
        <pt x="365" y="283" on="0"/>
        <pt x="350" y="279" on="0"/>
        <pt x="328" y="268" on="0"/>
        <pt x="305" y="260" on="0"/>
        <pt x="294" y="256" on="1"/>
        <pt x="266" y="245" on="0"/>
        <pt x="248" y="234" on="1"/>
      </contour>
      <contour>
        <pt x="352" y="285" on="1"/>
        <pt x="353" y="285" on="0"/>
        <pt x="362" y="288" on="1"/>
        <pt x="356" y="286" on="0"/>
      </contour>
    </TTGlyph>
    <TTGlyph name="I" xMin="-17" yMin="-47" xMax="428" yMax="775">
      <contour>
        <pt x="422" y="676" on="1"/>
        <pt x="387" y="567" on="0"/>
        <pt x="328" y="391" on="0"/>
        <pt x="279" y="243" on="0"/>
        <pt x="237" y="118" on="0"/>
        <pt x="219" y="61" on="1"/>
        <pt x="209" y="-5" on="0"/>
        <pt x="154" y="-32" on="1"/>
        <pt x="122" y="-47" on="0"/>
        <pt x="34" y="-47" on="0"/>
        <pt x="-10" y="-28" on="0"/>
        <pt x="-23" y="8" on="0"/>
        <pt x="-10" y="59" on="0"/>
        <pt x="22" y="148" on="0"/>
        <pt x="71" y="300" on="0"/>
        <pt x="98" y="378" on="1"/>
        <pt x="165" y="573" on="0"/>
        <pt x="204" y="648" on="1"/>
        <pt x="219" y="676" on="0"/>
        <pt x="249" y="695" on="0"/>
        <pt x="277" y="704" on="0"/>
        <pt x="301" y="716" on="0"/>
        <pt x="320" y="764" on="0"/>
        <pt x="371" y="782" on="0"/>
        <pt x="416" y="767" on="0"/>
        <pt x="439" y="718" on="0"/>
      </contour>
    </TTGlyph>
    <TTGlyph name="Iacute" xMin="-17" yMin="-47" xMax="548" yMax="1067">
      <component glyphName="I" x="0" y="0" flags="0x1004"/>
      <component glyphName="acute" x="257" y="197" flags="0x1004"/>
    </TTGlyph>
    <TTGlyph name="Icircumflex" xMin="-17" yMin="-47" xMax="543" yMax="1092">
      <component glyphName="I" x="0" y="0" flags="0x1004"/>
      <component glyphName="circumflex" x="157" y="300" flags="0x1004"/>
    </TTGlyph>
    <TTGlyph name="Idieresis" xMin="-17" yMin="-47" xMax="586" yMax="987">
      <component glyphName="I" x="0" y="0" flags="0x1004"/>
      <component glyphName="dieresis" x="111" y="194" flags="0x1004"/>
    </TTGlyph>
    <TTGlyph name="Igrave" xMin="-17" yMin="-47" xMax="490" yMax="1060">
      <component glyphName="I" x="0" y="0" flags="0x1004"/>
      <component glyphName="grave" x="235" y="175" flags="0x1004"/>
    </TTGlyph>
    <TTGlyph name="J" xMin="-21" yMin="-96" xMax="665" yMax="786">
      <contour>
        <pt x="146" y="101" on="1"/>
        <pt x="145" y="77" on="1"/>
        <pt x="145" y="71" on="0"/>
        <pt x="147" y="53" on="1"/>
        <pt x="156" y="42" on="0"/>
        <pt x="166" y="48" on="1"/>
        <pt x="174" y="53" on="0"/>
        <pt x="202" y="76" on="1"/>
        <pt x="248" y="145" on="0"/>
        <pt x="278" y="212" on="1"/>
        <pt x="347" y="369" on="0"/>
        <pt x="376" y="480" on="1"/>
        <pt x="385" y="513" on="0"/>
        <pt x="402" y="577" on="0"/>
        <pt x="419" y="644" on="0"/>
        <pt x="430" y="680" on="1"/>
        <pt x="430" y="684" on="1"/>
        <pt x="447" y="743" on="0"/>
        <pt x="517" y="776" on="1"/>
        <pt x="584" y="809" on="0"/>
        <pt x="632" y="786" on="1"/>
        <pt x="655" y="775" on="0"/>
        <pt x="675" y="722" on="0"/>
        <pt x="663" y="677" on="1"/>
        <pt x="640" y="608" on="0"/>
        <pt x="594" y="456" on="0"/>
        <pt x="542" y="303" on="0"/>
        <pt x="478" y="157" on="0"/>
        <pt x="436" y="96" on="1"/>
        <pt x="343" y="-40" on="0"/>
        <pt x="216" y="-84" on="1"/>
        <pt x="202" y="-90" on="0"/>
        <pt x="183" y="-92" on="0"/>
        <pt x="147" y="-97" on="0"/>
        <pt x="92" y="-94" on="0"/>
        <pt x="66" y="-86" on="1"/>
        <pt x="6" y="-69" on="0"/>
        <pt x="-8" y="-26" on="1"/>
        <pt x="-24" y="34" on="0"/>
        <pt x="-17" y="89" on="0"/>
        <pt x="-1" y="123" on="0"/>
        <pt x="11" y="142" on="1"/>
        <pt x="12" y="142" on="1"/>
        <pt x="21" y="159" on="0"/>
        <pt x="60" y="183" on="0"/>
        <pt x="103" y="190" on="0"/>
        <pt x="140" y="176" on="0"/>
        <pt x="146" y="156" on="1"/>
        <pt x="147" y="145" on="0"/>
        <pt x="147" y="111" on="0"/>
      </contour>
    </TTGlyph>
    <TTGlyph name="K" xMin="-15" yMin="-78" xMax="636" yMax="799">
      <contour>
        <pt x="180" y="710" on="1"/>
        <pt x="199" y="756" on="0"/>
        <pt x="234" y="743" on="1"/>
        <pt x="244" y="765" on="0"/>
        <pt x="259" y="777" on="0"/>
        <pt x="275" y="784" on="0"/>
        <pt x="293" y="792" on="0"/>
        <pt x="331" y="798" on="0"/>
        <pt x="377" y="799" on="0"/>
        <pt x="424" y="793" on="0"/>
        <pt x="440" y="783" on="1"/>
        <pt x="479" y="760" on="0"/>
        <pt x="457" y="709" on="1"/>
        <pt x="459" y="710" on="0"/>
        <pt x="456" y="707" on="1"/>
        <pt x="447" y="690" on="1"/>
        <pt x="440" y="681" on="1"/>
        <pt x="435" y="676" on="0"/>
        <pt x="409" y="620" on="1"/>
        <pt x="388" y="580" on="0"/>
        <pt x="366" y="541" on="1"/>
        <pt x="330" y="474" on="0"/>
        <pt x="322" y="455" on="1"/>
        <pt x="357" y="474" on="0"/>
        <pt x="403" y="510" on="1"/>
        <pt x="490" y="577" on="0"/>
        <pt x="538" y="603" on="0"/>
        <pt x="557" y="609" on="0"/>
        <pt x="575" y="606" on="0"/>
        <pt x="585" y="602" on="1"/>
        <pt x="610" y="592" on="1"/>
        <pt x="634" y="584" on="0"/>
        <pt x="636" y="534" on="1"/>
        <pt x="637" y="485" on="0"/>
        <pt x="616" y="460" on="1"/>
        <pt x="525" y="342" on="0"/>
        <pt x="411" y="302" on="1"/>
        <pt x="376" y="289" on="0"/>
        <pt x="339" y="280" on="1"/>
        <pt x="392" y="274" on="0"/>
        <pt x="440" y="210" on="1"/>
        <pt x="479" y="158" on="0"/>
        <pt x="514" y="48" on="0"/>
        <pt x="534" y="-5" on="0"/>
        <pt x="531" y="-34" on="0"/>
        <pt x="500" y="-49" on="0"/>
        <pt x="463" y="-56" on="1"/>
        <pt x="446" y="-59" on="0"/>
        <pt x="393" y="-16" on="1"/>
        <pt x="370" y="3" on="0"/>
        <pt x="318" y="48" on="0"/>
        <pt x="292" y="68" on="1"/>
        <pt x="232" y="115" on="0"/>
        <pt x="208" y="117" on="1"/>
        <pt x="206" y="117" on="0"/>
        <pt x="200" y="119" on="1"/>
        <pt x="182" y="74" on="1"/>
        <pt x="168" y="41" on="0"/>
        <pt x="139" y="-32" on="0"/>
        <pt x="119" y="-61" on="1"/>
        <pt x="88" y="-82" on="0"/>
        <pt x="47" y="-78" on="1"/>
        <pt x="0" y="-73" on="0"/>
        <pt x="-15" y="-40" on="1"/>
        <pt x="-25" y="-9" on="0"/>
        <pt x="18" y="142" on="1"/>
        <pt x="47" y="248" on="0"/>
        <pt x="89" y="408" on="0"/>
        <pt x="119" y="513" on="0"/>
        <pt x="133" y="572" on="0"/>
        <pt x="140" y="600" on="1"/>
        <pt x="157" y="665" on="0"/>
      </contour>
    </TTGlyph>
    <TTGlyph name="L" xMin="-15" yMin="-57" xMax="464" yMax="762">
      <contour>
        <pt x="325" y="-54" on="0"/>
        <pt x="287" y="-55" on="0"/>
        <pt x="248" y="-57" on="0"/>
        <pt x="180" y="-57" on="0"/>
        <pt x="112" y="-55" on="1"/>
        <pt x="96" y="-56" on="0"/>
        <pt x="64" y="-56" on="0"/>
        <pt x="50" y="-50" on="1"/>
        <pt x="19" y="-37" on="0"/>
        <pt x="8" y="10" on="1"/>
        <pt x="3" y="32" on="0"/>
        <pt x="-10" y="50" on="0"/>
        <pt x="-14" y="58" on="1"/>
        <pt x="-24" y="74" on="0"/>
        <pt x="-1" y="148" on="0"/>
        <pt x="35" y="257" on="0"/>
        <pt x="58" y="318" on="1"/>
        <pt x="112" y="463" on="0"/>
        <pt x="155" y="548" on="1"/>
        <pt x="172" y="586" on="0"/>
        <pt x="197" y="642" on="0"/>
        <pt x="217" y="683" on="0"/>
        <pt x="217" y="684" on="1"/>
        <pt x="227" y="722" on="0"/>
        <pt x="294" y="748" on="1"/>
        <pt x="359" y="775" on="0"/>
        <pt x="412" y="762" on="1"/>
        <pt x="471" y="747" on="0"/>
        <pt x="464" y="684" on="1"/>
        <pt x="450" y="622" on="0"/>
        <pt x="395" y="498" on="0"/>
        <pt x="325" y="362" on="0"/>
        <pt x="243" y="210" on="0"/>
        <pt x="203" y="121" on="1"/>
        <pt x="202" y="117" on="0"/>
        <pt x="207" y="114" on="1"/>
        <pt x="220" y="115" on="0"/>
        <pt x="267" y="129" on="0"/>
        <pt x="318" y="140" on="0"/>
        <pt x="368" y="140" on="0"/>
        <pt x="385" y="127" on="1"/>
        <pt x="384" y="109" on="0"/>
        <pt x="404" y="88" on="0"/>
        <pt x="414" y="78" on="1"/>
        <pt x="439" y="52" on="0"/>
        <pt x="418" y="9" on="1"/>
        <pt x="398" y="-33" on="0"/>
        <pt x="346" y="-48" on="1"/>
      </contour>
    </TTGlyph>
    <TTGlyph name="M" xMin="-28" yMin="-44" xMax="742" yMax="772">
      <contour>
        <pt x="392" y="730" on="1"/>
        <pt x="402" y="703" on="0"/>
        <pt x="403" y="694" on="1"/>
        <pt x="405" y="675" on="0"/>
        <pt x="389" y="662" on="1"/>
        <pt x="389" y="661" on="0"/>
        <pt x="387" y="659" on="1"/>
        <pt x="396" y="612" on="0"/>
        <pt x="386" y="530" on="0"/>
        <pt x="378" y="492" on="1"/>
        <pt x="432" y="584" on="0"/>
        <pt x="464" y="627" on="1"/>
        <pt x="530" y="716" on="0"/>
        <pt x="587" y="754" on="1"/>
        <pt x="606" y="765" on="0"/>
        <pt x="661" y="776" on="0"/>
        <pt x="711" y="768" on="0"/>
        <pt x="744" y="736" on="0"/>
        <pt x="742" y="704" on="1"/>
        <pt x="714" y="509" on="0"/>
        <pt x="650" y="172" on="0"/>
        <pt x="599" y="19" on="1"/>
        <pt x="599" y="17" on="1"/>
        <pt x="598" y="17" on="1"/>
        <pt x="586" y="-19" on="0"/>
        <pt x="538" y="-34" on="1"/>
        <pt x="491" y="-48" on="0"/>
        <pt x="454" y="-36" on="1"/>
        <pt x="409" y="-23" on="0"/>
        <pt x="413" y="12" on="1"/>
        <pt x="414" y="35" on="1"/>
        <pt x="414" y="37" on="1"/>
        <pt x="418" y="61" on="0"/>
        <pt x="419" y="78" on="0"/>
        <pt x="420" y="82" on="1"/>
        <pt x="422" y="108" on="0"/>
        <pt x="435" y="153" on="0"/>
        <pt x="441" y="181" on="0"/>
        <pt x="447" y="206" on="0"/>
        <pt x="448" y="213" on="1"/>
        <pt x="410" y="161" on="0"/>
        <pt x="394" y="150" on="1"/>
        <pt x="354" y="122" on="0"/>
        <pt x="301" y="124" on="1"/>
        <pt x="268" y="126" on="0"/>
        <pt x="263" y="139" on="1"/>
        <pt x="253" y="167" on="0"/>
        <pt x="249" y="172" on="1"/>
        <pt x="243" y="180" on="0"/>
        <pt x="239" y="199" on="1"/>
        <pt x="213" y="84" on="0"/>
        <pt x="188" y="36" on="1"/>
        <pt x="178" y="17" on="0"/>
        <pt x="168" y="2" on="1"/>
        <pt x="154" y="-31" on="0"/>
        <pt x="104" y="-44" on="1"/>
        <pt x="57" y="-57" on="0"/>
        <pt x="14" y="-42" on="1"/>
        <pt x="-30" y="-28" on="0"/>
        <pt x="-26" y="44" on="0"/>
        <pt x="-1" y="153" on="0"/>
        <pt x="16" y="214" on="1"/>
        <pt x="67" y="407" on="0"/>
        <pt x="110" y="523" on="0"/>
        <pt x="125" y="556" on="1"/>
        <pt x="161" y="633" on="0"/>
        <pt x="189" y="668" on="1"/>
        <pt x="220" y="731" on="0"/>
        <pt x="292" y="744" on="1"/>
        <pt x="349" y="755" on="0"/>
      </contour>
    </TTGlyph>
    <TTGlyph name="N" xMin="-18" yMin="-37" xMax="704" yMax="743">
      <contour>
        <pt x="68" y="388" on="1"/>
        <pt x="88" y="455" on="0"/>
        <pt x="113" y="528" on="0"/>
        <pt x="137" y="586" on="0"/>
        <pt x="168" y="640" on="0"/>
        <pt x="205" y="685" on="0"/>
        <pt x="247" y="711" on="0"/>
        <pt x="293" y="711" on="0"/>
        <pt x="318" y="693" on="1"/>
        <pt x="358" y="593" on="0"/>
        <pt x="367" y="559" on="1"/>
        <pt x="379" y="509" on="0"/>
        <pt x="389" y="418" on="1"/>
        <pt x="398" y="441" on="0"/>
        <pt x="421" y="492" on="0"/>
        <pt x="432" y="518" on="1"/>
        <pt x="463" y="584" on="0"/>
        <pt x="471" y="618" on="1"/>
        <pt x="493" y="688" on="0"/>
        <pt x="562" y="723" on="1"/>
        <pt x="622" y="753" on="0"/>
        <pt x="674" y="742" on="1"/>
        <pt x="695" y="738" on="0"/>
        <pt x="712" y="712" on="0"/>
        <pt x="695" y="684" on="0"/>
        <pt x="700" y="659" on="0"/>
        <pt x="702" y="642" on="1"/>
        <pt x="705" y="596" on="0"/>
        <pt x="667" y="525" on="0"/>
        <pt x="627" y="420" on="0"/>
        <pt x="586" y="302" on="0"/>
        <pt x="544" y="180" on="0"/>
        <pt x="524" y="130" on="1"/>
        <pt x="480" y="15" on="0"/>
        <pt x="452" y="3" on="1"/>
        <pt x="414" y="-20" on="0"/>
        <pt x="396" y="-24" on="1"/>
        <pt x="373" y="-28" on="0"/>
        <pt x="331" y="-24" on="1"/>
        <pt x="305" y="-22" on="0"/>
        <pt x="286" y="43" on="1"/>
        <pt x="275" y="78" on="0"/>
        <pt x="266" y="140" on="1"/>
        <pt x="250" y="248" on="0"/>
        <pt x="244" y="259" on="1"/>
        <pt x="204" y="129" on="0"/>
        <pt x="171" y="61" on="0"/>
        <pt x="154" y="39" on="0"/>
        <pt x="142" y="21" on="1"/>
        <pt x="129" y="-15" on="0"/>
        <pt x="80" y="-32" on="1"/>
        <pt x="38" y="-48" on="0"/>
        <pt x="4" y="-37" on="1"/>
        <pt x="-33" y="-25" on="0"/>
        <pt x="-18" y="9" on="1"/>
        <pt x="-7" y="129" on="0"/>
      </contour>
    </TTGlyph>
    <TTGlyph name="Ntilde" xMin="-18" yMin="-37" xMax="704" yMax="954">
      <component glyphName="N" x="0" y="0" flags="0x1204"/>
      <component glyphName="tilde" x="295" y="133" flags="0x1004"/>
    </TTGlyph>
    <TTGlyph name="O" xMin="30" yMin="-77" xMax="659" yMax="776">
      <contour>
        <pt x="203" y="662" on="1"/>
        <pt x="266" y="734" on="0"/>
        <pt x="343" y="752" on="1"/>
        <pt x="396" y="765" on="0"/>
        <pt x="443" y="748" on="1"/>
        <pt x="480" y="787" on="0"/>
        <pt x="539" y="776" on="1"/>
        <pt x="593" y="766" on="0"/>
        <pt x="631" y="715" on="1"/>
        <pt x="633" y="708" on="0"/>
        <pt x="646" y="680" on="0"/>
        <pt x="652" y="663" on="1"/>
        <pt x="696" y="561" on="0"/>
        <pt x="659" y="395" on="1"/>
        <pt x="613" y="189" on="0"/>
        <pt x="496" y="46" on="1"/>
        <pt x="460" y="2" on="0"/>
        <pt x="415" y="-27" on="1"/>
        <pt x="343" y="-82" on="0"/>
        <pt x="243" y="-76" on="1"/>
        <pt x="181" y="-73" on="0"/>
        <pt x="139" y="-45" on="1"/>
        <pt x="-28" y="38" on="0"/>
        <pt x="30" y="301" on="1"/>
        <pt x="78" y="517" on="0"/>
      </contour>
      <contour>
        <pt x="215" y="131" on="1"/>
        <pt x="214" y="125" on="1"/>
        <pt x="216" y="114" on="1"/>
        <pt x="222" y="83" on="0"/>
        <pt x="250" y="50" on="0"/>
        <pt x="259" y="46" on="1"/>
        <pt x="269" y="54" on="0"/>
        <pt x="289" y="68" on="0"/>
        <pt x="297" y="78" on="1"/>
        <pt x="365" y="162" on="0"/>
        <pt x="441" y="434" on="0"/>
        <pt x="431" y="550" on="1"/>
        <pt x="392" y="500" on="0"/>
        <pt x="306" y="370" on="0"/>
        <pt x="281" y="324" on="1"/>
        <pt x="224" y="217" on="0"/>
      </contour>
    </TTGlyph>
    <TTGlyph name="OE" xMin="30" yMin="-77" xMax="951" yMax="776">
      <component glyphName="O" x="0" y="0" flags="0x1004"/>
      <component glyphName="E" x="357" y="0" flags="0x1004"/>
    </TTGlyph>
    <TTGlyph name="Oacute" xMin="30" yMin="-77" xMax="708" yMax="1066">
      <component glyphName="O" x="0" y="0" flags="0x1204"/>
      <component glyphName="acute" x="417" y="196" flags="0x1004"/>
    </TTGlyph>
    <TTGlyph name="Ocircumflex" xMin="30" yMin="-77" xMax="683" yMax="1110">
      <component glyphName="O" x="0" y="0" flags="0x1204"/>
      <component glyphName="circumflex" x="297" y="318" flags="0x1004"/>
    </TTGlyph>
    <TTGlyph name="Odieresis" xMin="30" yMin="-77" xMax="724" yMax="1002">
      <component glyphName="O" x="0" y="0" flags="0x1204"/>
      <component glyphName="dieresis" x="249" y="209" flags="0x1004"/>
    </TTGlyph>
    <TTGlyph name="Ograve" xMin="30" yMin="-77" xMax="659" yMax="1046">
      <component glyphName="O" x="0" y="0" flags="0x1204"/>
      <component glyphName="grave" x="385" y="161" flags="0x1004"/>
    </TTGlyph>
    <TTGlyph name="Oslash" xMin="24" yMin="-129" xMax="743" yMax="912">
      <component glyphName="O" x="0" y="0" flags="0x1204"/>
      <component glyphName="slash" x="67" y="70" flags="0x1004"/>
    </TTGlyph>
    <TTGlyph name="Otilde" xMin="30" yMin="-77" xMax="708" yMax="993">
      <component glyphName="O" x="0" y="0" flags="0x1204"/>
      <component glyphName="tilde" x="339" y="172" flags="0x1004"/>
    </TTGlyph>
    <TTGlyph name="P" xMin="-30" yMin="-76" xMax="646" yMax="792">
      <contour>
        <pt x="513" y="214" on="1"/>
        <pt x="473" y="184" on="0"/>
        <pt x="386" y="157" on="0"/>
        <pt x="300" y="169" on="0"/>
        <pt x="269" y="200" on="1"/>
        <pt x="241" y="111" on="0"/>
        <pt x="231" y="24" on="1"/>
        <pt x="227" y="8" on="0"/>
        <pt x="217" y="-5" on="1"/>
        <pt x="199" y="-58" on="0"/>
        <pt x="138" y="-76" on="1"/>
        <pt x="78" y="-93" on="0"/>
        <pt x="26" y="-70" on="1"/>
        <pt x="2" y="-59" on="0"/>
        <pt x="-30" y="-17" on="0"/>
        <pt x="-30" y="13" on="1"/>
        <pt x="39" y="252" on="0"/>
        <pt x="103" y="405" on="1"/>
        <pt x="117" y="437" on="0"/>
        <pt x="134" y="477" on="0"/>
        <pt x="148" y="505" on="0"/>
        <pt x="159" y="526" on="0"/>
        <pt x="167" y="539" on="1"/>
        <pt x="185" y="569" on="0"/>
        <pt x="232" y="650" on="0"/>
        <pt x="265" y="690" on="0"/>
        <pt x="302" y="719" on="0"/>
        <pt x="347" y="745" on="0"/>
        <pt x="415" y="787" on="0"/>
        <pt x="492" y="796" on="0"/>
        <pt x="527" y="785" on="1"/>
        <pt x="601" y="762" on="0"/>
        <pt x="636" y="682" on="1"/>
        <pt x="666" y="608" on="0"/>
        <pt x="646" y="483" on="1"/>
        <pt x="615" y="292" on="0"/>
      </contour>
      <contour>
        <pt x="304" y="303" on="1"/>
        <pt x="386" y="321" on="0"/>
        <pt x="418" y="410" on="1"/>
        <pt x="445" y="485" on="0"/>
        <pt x="429" y="580" on="1"/>
        <pt x="406" y="541" on="0"/>
        <pt x="369" y="457" on="0"/>
        <pt x="354" y="424" on="1"/>
        <pt x="321" y="350" on="0"/>
      </contour>
    </TTGlyph>
    <TTGlyph name="Q" xMin="48" yMin="-159" xMax="767" yMax="834">
      <contour>
        <pt x="565" y="80" on="1"/>
        <pt x="574" y="46" on="0"/>
        <pt x="548" y="1" on="0"/>
        <pt x="524" y="-11" on="1"/>
        <pt x="524" y="-16" on="0"/>
        <pt x="537" y="-55" on="0"/>
        <pt x="541" y="-68" on="1"/>
        <pt x="550" y="-95" on="0"/>
        <pt x="546" y="-117" on="1"/>
        <pt x="535" y="-155" on="0"/>
        <pt x="490" y="-158" on="1"/>
        <pt x="471" y="-160" on="0"/>
        <pt x="433" y="-146" on="0"/>
        <pt x="422" y="-131" on="1"/>
        <pt x="420" y="-135" on="0"/>
        <pt x="402" y="-94" on="0"/>
        <pt x="391" y="-68" on="1"/>
        <pt x="369" y="-24" on="1"/>
        <pt x="315" y="-41" on="0"/>
        <pt x="281" y="-38" on="1"/>
        <pt x="228" y="-32" on="0"/>
        <pt x="169" y="-9" on="1"/>
        <pt x="87" y="23" on="0"/>
        <pt x="25" y="187" on="0"/>
        <pt x="48" y="306" on="1"/>
        <pt x="59" y="446" on="0"/>
        <pt x="115" y="562" on="1"/>
        <pt x="181" y="699" on="0"/>
        <pt x="280" y="739" on="1"/>
        <pt x="381" y="790" on="0"/>
        <pt x="448" y="782" on="1"/>
        <pt x="466" y="788" on="1"/>
        <pt x="481" y="814" on="0"/>
        <pt x="544" y="836" on="0"/>
        <pt x="616" y="832" on="0"/>
        <pt x="685" y="806" on="0"/>
        <pt x="706" y="784" on="1"/>
        <pt x="781" y="711" on="0"/>
        <pt x="767" y="547" on="1"/>
        <pt x="751" y="346" on="0"/>
        <pt x="621" y="171" on="1"/>
        <pt x="590" y="129" on="0"/>
        <pt x="554" y="93" on="1"/>
      </contour>
      <contour>
        <pt x="278" y="101" on="1"/>
        <pt x="268" y="138" on="0"/>
        <pt x="268" y="160" on="1"/>
        <pt x="266" y="162" on="0"/>
        <pt x="266" y="165" on="1"/>
        <pt x="266" y="166" on="1"/>
        <pt x="265" y="167" on="0"/>
        <pt x="265" y="169" on="1"/>
        <pt x="266" y="169" on="1"/>
        <pt x="268" y="219" on="0"/>
        <pt x="317" y="235" on="1"/>
        <pt x="347" y="251" on="0"/>
        <pt x="419" y="246" on="0"/>
        <pt x="448" y="226" on="1"/>
        <pt x="458" y="243" on="0"/>
        <pt x="465" y="257" on="1"/>
        <pt x="477" y="281" on="1"/>
        <pt x="564" y="465" on="0"/>
        <pt x="521" y="594" on="1"/>
        <pt x="491" y="574" on="0"/>
        <pt x="420" y="561" on="0"/>
        <pt x="390" y="566" on="1"/>
        <pt x="368" y="547" on="0"/>
        <pt x="329" y="494" on="0"/>
        <pt x="314" y="474" on="0"/>
        <pt x="277" y="409" on="0"/>
        <pt x="243" y="331" on="0"/>
        <pt x="219" y="248" on="0"/>
        <pt x="218" y="211" on="1"/>
        <pt x="216" y="127" on="0"/>
      </contour>
    </TTGlyph>
    <TTGlyph name="R" xMin="-23" yMin="-52" xMax="640" yMax="780">
      <contour>
        <pt x="175" y="-3" on="1"/>
        <pt x="166" y="-43" on="0"/>
        <pt x="113" y="-52" on="1"/>
        <pt x="64" y="-61" on="0"/>
        <pt x="20" y="-41" on="1"/>
        <pt x="-29" y="-20" on="0"/>
        <pt x="-23" y="18" on="1"/>
        <pt x="-29" y="76" on="0"/>
        <pt x="38" y="270" on="1"/>
        <pt x="138" y="561" on="0"/>
        <pt x="238" y="686" on="1"/>
        <pt x="264" y="718" on="0"/>
        <pt x="301" y="737" on="0"/>
        <pt x="349" y="753" on="0"/>
        <pt x="375" y="760" on="1"/>
        <pt x="427" y="774" on="0"/>
        <pt x="520" y="785" on="0"/>
        <pt x="594" y="752" on="0"/>
        <pt x="635" y="688" on="0"/>
        <pt x="645" y="601" on="0"/>
        <pt x="629" y="506" on="0"/>
        <pt x="587" y="409" on="0"/>
        <pt x="555" y="367" on="1"/>
        <pt x="485" y="275" on="0"/>
        <pt x="391" y="248" on="1"/>
        <pt x="401" y="231" on="1"/>
        <pt x="414" y="211" on="0"/>
        <pt x="451" y="163" on="0"/>
        <pt x="488" y="113" on="0"/>
        <pt x="518" y="63" on="0"/>
        <pt x="525" y="41" on="1"/>
        <pt x="541" y="-8" on="0"/>
        <pt x="500" y="-30" on="1"/>
        <pt x="467" y="-50" on="0"/>
        <pt x="448" y="-40" on="1"/>
        <pt x="440" y="-35" on="0"/>
        <pt x="424" y="-20" on="0"/>
        <pt x="410" y="-15" on="1"/>
        <pt x="351" y="-32" on="0"/>
        <pt x="320" y="15" on="1"/>
        <pt x="301" y="45" on="0"/>
        <pt x="281" y="95" on="0"/>
        <pt x="274" y="112" on="1"/>
        <pt x="256" y="149" on="0"/>
        <pt x="233" y="176" on="1"/>
        <pt x="222" y="149" on="0"/>
        <pt x="208" y="107" on="1"/>
        <pt x="191" y="54" on="0"/>
        <pt x="170" y="-3" on="1"/>
      </contour>
      <contour>
        <pt x="377" y="579" on="1"/>
        <pt x="358" y="536" on="0"/>
        <pt x="351" y="519" on="1"/>
        <pt x="337" y="485" on="0"/>
        <pt x="320" y="444" on="1"/>
        <pt x="317" y="422" on="0"/>
        <pt x="315" y="413" on="1"/>
        <pt x="329" y="427" on="1"/>
        <pt x="346" y="435" on="1"/>
        <pt x="364" y="445" on="0"/>
        <pt x="394" y="461" on="0"/>
        <pt x="406" y="473" on="1"/>
        <pt x="429" y="496" on="0"/>
        <pt x="446" y="548" on="1"/>
        <pt x="446" y="558" on="0"/>
        <pt x="453" y="578" on="0"/>
        <pt x="454" y="588" on="1"/>
        <pt x="458" y="610" on="0"/>
        <pt x="436" y="619" on="1"/>
        <pt x="416" y="621" on="0"/>
        <pt x="386" y="586" on="1"/>
        <pt x="380" y="579" on="0"/>
      </contour>
    </TTGlyph>
    <TTGlyph name="S" xMin="-30" yMin="-58" xMax="633" yMax="771">
      <contour>
        <pt x="166" y="-58" on="1"/>
        <pt x="115" y="-60" on="0"/>
        <pt x="30" y="-31" on="0"/>
        <pt x="-23" y="19" on="0"/>
        <pt x="-37" y="86" on="0"/>
        <pt x="-18" y="121" on="1"/>
        <pt x="8" y="163" on="0"/>
        <pt x="86" y="146" on="1"/>
        <pt x="145" y="134" on="0"/>
        <pt x="190" y="132" on="0"/>
        <pt x="206" y="139" on="1"/>
        <pt x="279" y="163" on="0"/>
        <pt x="288" y="191" on="1"/>
        <pt x="294" y="212" on="0"/>
        <pt x="262" y="240" on="1"/>
        <pt x="249" y="252" on="0"/>
        <pt x="217" y="276" on="0"/>
        <pt x="206" y="288" on="1"/>
        <pt x="156" y="325" on="0"/>
        <pt x="99" y="422" on="0"/>
        <pt x="109" y="536" on="0"/>
        <pt x="137" y="611" on="0"/>
        <pt x="158" y="640" on="1"/>
        <pt x="195" y="691" on="0"/>
        <pt x="254" y="723" on="1"/>
        <pt x="322" y="758" on="0"/>
        <pt x="363" y="768" on="1"/>
        <pt x="444" y="786" on="0"/>
        <pt x="527" y="771" on="1"/>
        <pt x="555" y="766" on="0"/>
        <pt x="595" y="738" on="0"/>
        <pt x="615" y="723" on="1"/>
        <pt x="650" y="688" on="0"/>
        <pt x="632" y="652" on="1"/>
        <pt x="625" y="636" on="0"/>
        <pt x="595" y="616" on="0"/>
        <pt x="578" y="615" on="1"/>
        <pt x="580" y="588" on="0"/>
        <pt x="568" y="575" on="1"/>
        <pt x="545" y="552" on="0"/>
        <pt x="488" y="545" on="1"/>
        <pt x="406" y="551" on="0"/>
        <pt x="377" y="536" on="1"/>
        <pt x="343" y="518" on="0"/>
        <pt x="352" y="458" on="1"/>
        <pt x="354" y="445" on="0"/>
        <pt x="383" y="417" on="0"/>
        <pt x="422" y="385" on="0"/>
        <pt x="465" y="345" on="0"/>
        <pt x="481" y="319" on="1"/>
        <pt x="537" y="227" on="0"/>
        <pt x="472" y="104" on="1"/>
        <pt x="424" y="12" on="0"/>
        <pt x="308" y="-34" on="1"/>
        <pt x="248" y="-58" on="0"/>
      </contour>
    </TTGlyph>
    <TTGlyph name="Scaron" xMin="-30" yMin="-58" xMax="674" yMax="1131">
      <component glyphName="S" x="0" y="0" flags="0x1004"/>
      <component glyphName="caron" x="249" y="276" flags="0x1004"/>
    </TTGlyph>
    <TTGlyph name="T" xMin="75" yMin="-78" xMax="627" yMax="782">
      <contour>
        <pt x="321" y="178" on="0"/>
        <pt x="265" y="34" on="0"/>
        <pt x="228" y="-41" on="0"/>
        <pt x="200" y="-69" on="0"/>
        <pt x="171" y="-79" on="0"/>
        <pt x="142" y="-77" on="0"/>
        <pt x="127" y="-76" on="1"/>
        <pt x="43" y="-63" on="0"/>
        <pt x="75" y="45" on="1"/>
        <pt x="96" y="131" on="0"/>
        <pt x="122" y="240" on="0"/>
        <pt x="139" y="311" on="0"/>
        <pt x="151" y="358" on="0"/>
        <pt x="165" y="404" on="0"/>
        <pt x="186" y="462" on="0"/>
        <pt x="203" y="510" on="1"/>
        <pt x="165" y="505" on="0"/>
        <pt x="135" y="518" on="1"/>
        <pt x="91" y="537" on="0"/>
        <pt x="99" y="600" on="1"/>
        <pt x="103" y="629" on="0"/>
        <pt x="130" y="654" on="1"/>
        <pt x="144" y="667" on="0"/>
        <pt x="163" y="682" on="1"/>
        <pt x="202" y="713" on="0"/>
        <pt x="318" y="748" on="1"/>
        <pt x="438" y="784" on="0"/>
        <pt x="524" y="782" on="1"/>
        <pt x="547" y="786" on="0"/>
        <pt x="596" y="767" on="0"/>
        <pt x="626" y="735" on="0"/>
        <pt x="627" y="697" on="0"/>
        <pt x="602" y="682" on="1"/>
        <pt x="590" y="674" on="0"/>
        <pt x="580" y="637" on="0"/>
        <pt x="568" y="596" on="0"/>
        <pt x="545" y="562" on="0"/>
        <pt x="520" y="559" on="1"/>
        <pt x="507" y="552" on="0"/>
        <pt x="460" y="546" on="0"/>
        <pt x="445" y="543" on="0"/>
        <pt x="444" y="539" on="1"/>
        <pt x="426" y="486" on="0"/>
        <pt x="376" y="335" on="0"/>
      </contour>
      <contour>
        <pt x="213" y="521" on="1"/>
        <pt x="211" y="521" on="0"/>
        <pt x="211" y="520" on="0"/>
        <pt x="213" y="520" on="1"/>
      </contour>
    </TTGlyph>
    <TTGlyph name="U" xMin="45" yMin="-43" xMax="743" yMax="788">
      <contour>
        <pt x="343" y="724" on="1"/>
        <pt x="343" y="722" on="1"/>
        <pt x="343" y="721" on="0"/>
        <pt x="344" y="721" on="0"/>
        <pt x="344" y="720" on="1"/>
        <pt x="344" y="718" on="1"/>
        <pt x="345" y="718" on="1"/>
        <pt x="351" y="702" on="1"/>
        <pt x="361" y="673" on="0"/>
        <pt x="299" y="522" on="1"/>
        <pt x="233" y="361" on="0"/>
        <pt x="238" y="271" on="1"/>
        <pt x="249" y="207" on="0"/>
        <pt x="345" y="374" on="1"/>
        <pt x="421" y="504" on="0"/>
        <pt x="492" y="659" on="1"/>
        <pt x="501" y="680" on="0"/>
        <pt x="521" y="725" on="0"/>
        <pt x="536" y="740" on="1"/>
        <pt x="569" y="776" on="0"/>
        <pt x="616" y="759" on="1"/>
        <pt x="632" y="778" on="0"/>
        <pt x="675" y="792" on="0"/>
        <pt x="714" y="784" on="0"/>
        <pt x="742" y="755" on="0"/>
        <pt x="743" y="731" on="1"/>
        <pt x="746" y="711" on="0"/>
        <pt x="699" y="561" on="0"/>
        <pt x="659" y="437" on="0"/>
        <pt x="638" y="364" on="1"/>
        <pt x="587" y="191" on="0"/>
        <pt x="557" y="38" on="1"/>
        <pt x="556" y="6" on="0"/>
        <pt x="503" y="-36" on="0"/>
        <pt x="438" y="-49" on="0"/>
        <pt x="409" y="-40" on="1"/>
        <pt x="374" y="-30" on="0"/>
        <pt x="372" y="10" on="1"/>
        <pt x="372" y="21" on="0"/>
        <pt x="371" y="32" on="1"/>
        <pt x="373" y="-2" on="0"/>
        <pt x="322" y="-26" on="1"/>
        <pt x="308" y="-33" on="0"/>
        <pt x="296" y="-39" on="1"/>
        <pt x="226" y="-60" on="0"/>
        <pt x="149" y="-30" on="1"/>
        <pt x="113" y="-15" on="0"/>
        <pt x="56" y="36" on="0"/>
        <pt x="45" y="71" on="1"/>
        <pt x="10" y="183" on="0"/>
        <pt x="58" y="365" on="1"/>
        <pt x="78" y="443" on="0"/>
        <pt x="136" y="591" on="0"/>
        <pt x="163" y="657" on="0"/>
        <pt x="175" y="682" on="0"/>
        <pt x="182" y="694" on="1"/>
        <pt x="199" y="728" on="0"/>
        <pt x="211" y="740" on="1"/>
        <pt x="223" y="751" on="1"/>
        <pt x="225" y="753" on="0"/>
        <pt x="229" y="754" on="0"/>
        <pt x="232" y="756" on="1"/>
        <pt x="240" y="761" on="0"/>
        <pt x="249" y="763" on="1"/>
        <pt x="263" y="766" on="1"/>
        <pt x="269" y="766" on="1"/>
        <pt x="298" y="770" on="0"/>
        <pt x="319" y="754" on="1"/>
        <pt x="319" y="753" on="0"/>
        <pt x="321" y="753" on="1"/>
        <pt x="329" y="746" on="1"/>
        <pt x="332" y="743" on="1"/>
        <pt x="335" y="739" on="1"/>
        <pt x="335" y="738" on="0"/>
        <pt x="336" y="738" on="0"/>
        <pt x="336" y="737" on="1"/>
        <pt x="337" y="736" on="1"/>
        <pt x="337" y="734" on="1"/>
        <pt x="338" y="734" on="0"/>
        <pt x="338" y="733" on="1"/>
        <pt x="338" y="732" on="1"/>
        <pt x="339" y="731" on="0"/>
        <pt x="340" y="731" on="1"/>
        <pt x="340" y="730" on="1"/>
        <pt x="340" y="729" on="0"/>
        <pt x="341" y="729" on="0"/>
        <pt x="341" y="728" on="0"/>
        <pt x="342" y="727" on="1"/>
        <pt x="342" y="726" on="1"/>
        <pt x="342" y="725" on="0"/>
      </contour>
      <contour>
        <pt x="370" y="58" on="1"/>
        <pt x="370" y="61" on="1"/>
        <pt x="369" y="60" on="0"/>
        <pt x="369" y="53" on="1"/>
        <pt x="369" y="56" on="0"/>
        <pt x="370" y="57" on="1"/>
      </contour>
    </TTGlyph>
    <TTGlyph name="Uacute" xMin="45" yMin="-43" xMax="743" yMax="1012">
      <component glyphName="U" x="0" y="0" flags="0x1004"/>
      <component glyphName="acute" x="334" y="142" flags="0x1004"/>
    </TTGlyph>
    <TTGlyph name="Ucircumflex" xMin="45" yMin="-43" xMax="743" yMax="1119">
      <component glyphName="U" x="0" y="0" flags="0x1004"/>
      <component glyphName="circumflex" x="310" y="327" flags="0x1004"/>
    </TTGlyph>
    <TTGlyph name="Udieresis" xMin="45" yMin="-43" xMax="743" yMax="1011">
      <component glyphName="U" x="0" y="0" flags="0x1004"/>
      <component glyphName="dieresis" x="237" y="218" flags="0x1004"/>
    </TTGlyph>
    <TTGlyph name="Ugrave" xMin="45" yMin="-43" xMax="743" yMax="1027">
      <component glyphName="U" x="0" y="0" flags="0x1004"/>
      <component glyphName="grave" x="325" y="142" flags="0x1004"/>
    </TTGlyph>
    <TTGlyph name="V" xMin="72" yMin="-45" xMax="657" yMax="764">
      <contour>
        <pt x="79" y="33" on="1"/>
        <pt x="72" y="679" on="1"/>
        <pt x="72" y="703" on="0"/>
        <pt x="111" y="738" on="0"/>
        <pt x="161" y="752" on="0"/>
        <pt x="205" y="742" on="0"/>
        <pt x="211" y="721" on="1"/>
        <pt x="230" y="683" on="0"/>
        <pt x="237" y="616" on="1"/>
        <pt x="250" y="491" on="0"/>
        <pt x="250" y="400" on="1"/>
        <pt x="260" y="384" on="0"/>
        <pt x="275" y="385" on="1"/>
        <pt x="318" y="490" on="0"/>
        <pt x="422" y="684" on="0"/>
        <pt x="452" y="739" on="0"/>
        <pt x="494" y="761" on="0"/>
        <pt x="518" y="764" on="1"/>
        <pt x="570" y="770" on="0"/>
        <pt x="616" y="746" on="1"/>
        <pt x="651" y="734" on="0"/>
        <pt x="657" y="705" on="1"/>
        <pt x="680" y="659" on="0"/>
        <pt x="626" y="599" on="1"/>
        <pt x="563" y="499" on="0"/>
        <pt x="499" y="378" on="1"/>
        <pt x="377" y="145" on="0"/>
        <pt x="311" y="37" on="0"/>
        <pt x="281" y="-8" on="0"/>
        <pt x="262" y="-23" on="1"/>
        <pt x="228" y="-50" on="0"/>
        <pt x="180" y="-45" on="1"/>
        <pt x="96" y="-42" on="0"/>
        <pt x="82" y="8" on="1"/>
        <pt x="79" y="22" on="0"/>
      </contour>
    </TTGlyph>
    <TTGlyph name="W" xMin="51" yMin="-44" xMax="894" yMax="784">
      <contour>
        <pt x="488" y="422" on="1"/>
        <pt x="590" y="729" on="0"/>
        <pt x="624" y="729" on="1"/>
        <pt x="628" y="729" on="0"/>
        <pt x="633" y="728" on="1"/>
        <pt x="649" y="727" on="0"/>
        <pt x="669" y="741" on="1"/>
        <pt x="695" y="763" on="0"/>
        <pt x="764" y="787" on="0"/>
        <pt x="797" y="784" on="1"/>
        <pt x="874" y="777" on="0"/>
        <pt x="894" y="703" on="1"/>
        <pt x="894" y="700" on="1"/>
        <pt x="889" y="686" on="0"/>
        <pt x="884" y="677" on="1"/>
        <pt x="888" y="677" on="1"/>
        <pt x="863" y="646" on="0"/>
        <pt x="817" y="547" on="0"/>
        <pt x="793" y="492" on="0"/>
        <pt x="749" y="408" on="0"/>
        <pt x="692" y="286" on="0"/>
        <pt x="661" y="226" on="1"/>
        <pt x="587" y="82" on="0"/>
        <pt x="514" y="0" on="1"/>
        <pt x="477" y="-45" on="0"/>
        <pt x="414" y="-44" on="1"/>
        <pt x="387" y="-43" on="0"/>
        <pt x="337" y="-17" on="0"/>
        <pt x="323" y="10" on="1"/>
        <pt x="302" y="73" on="1"/>
        <pt x="289" y="62" on="0"/>
        <pt x="255" y="28" on="0"/>
        <pt x="236" y="10" on="1"/>
        <pt x="192" y="-32" on="0"/>
        <pt x="144" y="-36" on="0"/>
        <pt x="110" y="-33" on="0"/>
        <pt x="95" y="-27" on="1"/>
        <pt x="61" y="-14" on="0"/>
        <pt x="51" y="23" on="1"/>
        <pt x="34" y="194" on="0"/>
        <pt x="68" y="460" on="1"/>
        <pt x="77" y="525" on="0"/>
        <pt x="84" y="588" on="1"/>
        <pt x="101" y="677" on="0"/>
        <pt x="148" y="716" on="1"/>
        <pt x="188" y="750" on="0"/>
        <pt x="226" y="736" on="1"/>
        <pt x="243" y="730" on="0"/>
        <pt x="261" y="702" on="0"/>
        <pt x="258" y="682" on="1"/>
        <pt x="260" y="621" on="0"/>
        <pt x="257" y="591" on="1"/>
        <pt x="253" y="540" on="0"/>
        <pt x="255" y="492" on="0"/>
        <pt x="252" y="461" on="0"/>
        <pt x="251" y="434" on="0"/>
        <pt x="254" y="417" on="0"/>
        <pt x="260" y="422" on="1"/>
        <pt x="283" y="471" on="0"/>
        <pt x="315" y="515" on="0"/>
        <pt x="333" y="539" on="1"/>
        <pt x="361" y="564" on="0"/>
        <pt x="382" y="558" on="1"/>
        <pt x="393" y="556" on="0"/>
        <pt x="417" y="545" on="0"/>
        <pt x="437" y="541" on="1"/>
        <pt x="450" y="530" on="0"/>
        <pt x="454" y="517" on="1"/>
        <pt x="457" y="514" on="0"/>
        <pt x="463" y="509" on="0"/>
        <pt x="466" y="502" on="0"/>
        <pt x="473" y="478" on="0"/>
        <pt x="481" y="451" on="0"/>
        <pt x="487" y="426" on="0"/>
      </contour>
      <contour>
        <pt x="512" y="3" on="1"/>
        <pt x="512" y="1" on="0"/>
        <pt x="513" y="4" on="0"/>
        <pt x="513" y="6" on="1"/>
      </contour>
    </TTGlyph>
    <TTGlyph name="X" xMin="-23" yMin="-75" xMax="718" yMax="792">
      <contour>
        <pt x="331" y="517" on="1"/>
        <pt x="432" y="650" on="1"/>
        <pt x="421" y="681" on="0"/>
        <pt x="440" y="715" on="1"/>
        <pt x="500" y="775" on="0"/>
        <pt x="559" y="792" on="1"/>
        <pt x="624" y="809" on="0"/>
        <pt x="674" y="790" on="1"/>
        <pt x="699" y="780" on="0"/>
        <pt x="727" y="738" on="0"/>
        <pt x="718" y="703" on="1"/>
        <pt x="694" y="651" on="0"/>
        <pt x="621" y="572" on="1"/>
        <pt x="591" y="540" on="0"/>
        <pt x="531" y="478" on="0"/>
        <pt x="486" y="424" on="0"/>
        <pt x="450" y="369" on="0"/>
        <pt x="430" y="342" on="1"/>
        <pt x="440" y="300" on="0"/>
        <pt x="507" y="123" on="0"/>
        <pt x="533" y="32" on="0"/>
        <pt x="535" y="-11" on="1"/>
        <pt x="531" y="-26" on="0"/>
        <pt x="515" y="-34" on="0"/>
        <pt x="498" y="-36" on="0"/>
        <pt x="484" y="-35" on="0"/>
        <pt x="483" y="-41" on="1"/>
        <pt x="489" y="-52" on="0"/>
        <pt x="475" y="-70" on="0"/>
        <pt x="461" y="-74" on="1"/>
        <pt x="428" y="-85" on="0"/>
        <pt x="393" y="-71" on="1"/>
        <pt x="358" y="-47" on="0"/>
        <pt x="324" y="20" on="1"/>
        <pt x="303" y="61" on="0"/>
        <pt x="279" y="142" on="1"/>
        <pt x="259" y="115" on="0"/>
        <pt x="227" y="58" on="0"/>
        <pt x="210" y="31" on="1"/>
        <pt x="172" y="-32" on="0"/>
        <pt x="133" y="-58" on="1"/>
        <pt x="65" y="-92" on="0"/>
        <pt x="0" y="-74" on="1"/>
        <pt x="-56" y="-44" on="0"/>
        <pt x="-22" y="42" on="1"/>
        <pt x="-11" y="72" on="0"/>
        <pt x="0" y="80" on="1"/>
        <pt x="5" y="85" on="0"/>
        <pt x="6" y="85" on="0"/>
        <pt x="7" y="87" on="0"/>
        <pt x="12" y="96" on="0"/>
        <pt x="22" y="110" on="1"/>
        <pt x="57" y="164" on="0"/>
        <pt x="101" y="226" on="1"/>
        <pt x="122" y="250" on="1"/>
        <pt x="137" y="268" on="0"/>
        <pt x="154" y="288" on="1"/>
        <pt x="194" y="337" on="0"/>
        <pt x="206" y="349" on="1"/>
        <pt x="165" y="445" on="0"/>
        <pt x="156" y="480" on="1"/>
        <pt x="142" y="542" on="0"/>
        <pt x="138" y="647" on="1"/>
        <pt x="127" y="673" on="0"/>
        <pt x="158" y="711" on="1"/>
        <pt x="186" y="745" on="0"/>
        <pt x="224" y="756" on="1"/>
        <pt x="266" y="768" on="0"/>
        <pt x="279" y="732" on="1"/>
        <pt x="298" y="679" on="0"/>
        <pt x="319" y="574" on="0"/>
      </contour>
    </TTGlyph>
    <TTGlyph name="Y" xMin="3" yMin="-88" xMax="596" yMax="780">
      <contour>
        <pt x="120" y="379" on="1"/>
        <pt x="103" y="524" on="0"/>
        <pt x="106" y="615" on="1"/>
        <pt x="104" y="658" on="0"/>
        <pt x="141" y="697" on="1"/>
        <pt x="176" y="734" on="0"/>
        <pt x="214" y="738" on="1"/>
        <pt x="256" y="741" on="0"/>
        <pt x="268" y="691" on="1"/>
        <pt x="276" y="663" on="0"/>
        <pt x="300" y="589" on="0"/>
        <pt x="311" y="548" on="1"/>
        <pt x="322" y="563" on="0"/>
        <pt x="370" y="639" on="0"/>
        <pt x="391" y="669" on="1"/>
        <pt x="442" y="742" on="0"/>
        <pt x="481" y="771" on="1"/>
        <pt x="519" y="786" on="0"/>
        <pt x="574" y="773" on="0"/>
        <pt x="599" y="745" on="0"/>
        <pt x="596" y="718" on="1"/>
        <pt x="594" y="655" on="0"/>
        <pt x="500" y="520" on="1"/>
        <pt x="478" y="489" on="0"/>
        <pt x="433" y="407" on="0"/>
        <pt x="374" y="306" on="0"/>
        <pt x="347" y="256" on="1"/>
        <pt x="285" y="143" on="0"/>
        <pt x="250" y="41" on="1"/>
        <pt x="251" y="43" on="0"/>
        <pt x="265" y="30" on="0"/>
        <pt x="271" y="18" on="1"/>
        <pt x="287" y="-12" on="0"/>
        <pt x="268" y="-32" on="1"/>
        <pt x="220" y="-82" on="0"/>
        <pt x="149" y="-88" on="1"/>
        <pt x="84" y="-93" on="0"/>
        <pt x="37" y="-64" on="1"/>
        <pt x="-10" y="-37" on="0"/>
        <pt x="6" y="3" on="1"/>
        <pt x="3" y="3" on="1"/>
        <pt x="25" y="60" on="0"/>
        <pt x="81" y="161" on="0"/>
        <pt x="111" y="215" on="1"/>
        <pt x="156" y="295" on="1"/>
        <pt x="139" y="291" on="0"/>
        <pt x="128" y="319" on="1"/>
        <pt x="120" y="342" on="0"/>
      </contour>
    </TTGlyph>
    <TTGlyph name="Yacute" xMin="3" yMin="-88" xMax="596" yMax="1012">
      <component glyphName="Y" x="0" y="0" flags="0x1204"/>
      <component glyphName="acute" x="220" y="142" flags="0x1004"/>
    </TTGlyph>
    <TTGlyph name="Ydieresis" xMin="3" yMin="-88" xMax="596" yMax="990">
      <contour>
        <pt x="120" y="379" on="1"/>
        <pt x="103" y="524" on="0"/>
        <pt x="106" y="615" on="1"/>
        <pt x="104" y="658" on="0"/>
        <pt x="141" y="697" on="1"/>
        <pt x="176" y="734" on="0"/>
        <pt x="214" y="738" on="1"/>
        <pt x="256" y="741" on="0"/>
        <pt x="268" y="691" on="1"/>
        <pt x="276" y="663" on="0"/>
        <pt x="300" y="589" on="0"/>
        <pt x="311" y="548" on="1"/>
        <pt x="322" y="563" on="0"/>
        <pt x="370" y="639" on="0"/>
        <pt x="391" y="669" on="1"/>
        <pt x="442" y="742" on="0"/>
        <pt x="481" y="771" on="1"/>
        <pt x="519" y="786" on="0"/>
        <pt x="574" y="773" on="0"/>
        <pt x="599" y="745" on="0"/>
        <pt x="596" y="718" on="1"/>
        <pt x="594" y="655" on="0"/>
        <pt x="500" y="520" on="1"/>
        <pt x="478" y="489" on="0"/>
        <pt x="433" y="407" on="0"/>
        <pt x="374" y="306" on="0"/>
        <pt x="347" y="256" on="1"/>
        <pt x="285" y="143" on="0"/>
        <pt x="250" y="41" on="1"/>
        <pt x="251" y="43" on="0"/>
        <pt x="265" y="30" on="0"/>
        <pt x="271" y="18" on="1"/>
        <pt x="287" y="-12" on="0"/>
        <pt x="268" y="-32" on="1"/>
        <pt x="220" y="-82" on="0"/>
        <pt x="149" y="-88" on="1"/>
        <pt x="84" y="-93" on="0"/>
        <pt x="37" y="-64" on="1"/>
        <pt x="-10" y="-37" on="0"/>
        <pt x="6" y="3" on="1"/>
        <pt x="3" y="3" on="1"/>
        <pt x="25" y="60" on="0"/>
        <pt x="81" y="161" on="0"/>
        <pt x="111" y="215" on="1"/>
        <pt x="156" y="295" on="1"/>
        <pt x="139" y="291" on="0"/>
        <pt x="128" y="319" on="1"/>
        <pt x="120" y="342" on="0"/>
      </contour>
      <contour>
        <pt x="348" y="838" on="0"/>
        <pt x="308" y="807" on="0"/>
        <pt x="264" y="794" on="0"/>
        <pt x="248" y="794" on="0"/>
        <pt x="226" y="798" on="1"/>
        <pt x="225" y="798" on="1"/>
        <pt x="223" y="800" on="1"/>
        <pt x="187" y="816" on="0"/>
        <pt x="175" y="864" on="0"/>
        <pt x="200" y="910" on="0"/>
        <pt x="249" y="946" on="0"/>
        <pt x="284" y="953" on="0"/>
        <pt x="297" y="954" on="0"/>
        <pt x="308" y="952" on="0"/>
        <pt x="321" y="949" on="0"/>
        <pt x="330" y="947" on="1"/>
        <pt x="333" y="944" on="1"/>
        <pt x="382" y="907" on="0"/>
        <pt x="358" y="858" on="1"/>
      </contour>
      <contour>
        <pt x="571" y="854" on="0"/>
        <pt x="530" y="817" on="0"/>
        <pt x="489" y="802" on="0"/>
        <pt x="476" y="802" on="0"/>
        <pt x="449" y="807" on="1"/>
        <pt x="448" y="807" on="1"/>
        <pt x="447" y="807" on="0"/>
        <pt x="445" y="809" on="1"/>
        <pt x="409" y="828" on="0"/>
        <pt x="397" y="885" on="0"/>
        <pt x="422" y="939" on="0"/>
        <pt x="471" y="982" on="0"/>
        <pt x="506" y="989" on="0"/>
        <pt x="519" y="990" on="0"/>
        <pt x="525" y="990" on="1"/>
        <pt x="532" y="989" on="0"/>
        <pt x="553" y="982" on="1"/>
        <pt x="603" y="932" on="0"/>
        <pt x="581" y="878" on="1"/>
      </contour>
    </TTGlyph>
    <TTGlyph name="Z" xMin="2" yMin="-69" xMax="606" yMax="788">
      <contour>
        <pt x="454" y="126" on="1"/>
        <pt x="497" y="127" on="0"/>
        <pt x="527" y="85" on="0"/>
        <pt x="516" y="31" on="0"/>
        <pt x="471" y="-22" on="0"/>
        <pt x="438" y="-32" on="1"/>
        <pt x="377" y="-59" on="0"/>
        <pt x="280" y="-68" on="1"/>
        <pt x="193" y="-77" on="0"/>
        <pt x="108" y="-66" on="1"/>
        <pt x="57" y="-59" on="0"/>
        <pt x="37" y="-41" on="1"/>
        <pt x="-3" y="-6" on="0"/>
        <pt x="2" y="57" on="1"/>
        <pt x="4" y="87" on="0"/>
        <pt x="14" y="106" on="1"/>
        <pt x="30" y="132" on="0"/>
        <pt x="99" y="232" on="0"/>
        <pt x="168" y="314" on="0"/>
        <pt x="202" y="352" on="1"/>
        <pt x="335" y="501" on="0"/>
        <pt x="359" y="539" on="1"/>
        <pt x="364" y="547" on="0"/>
        <pt x="374" y="570" on="1"/>
        <pt x="283" y="549" on="0"/>
        <pt x="191" y="573" on="1"/>
        <pt x="156" y="582" on="0"/>
        <pt x="143" y="618" on="1"/>
        <pt x="129" y="657" on="0"/>
        <pt x="163" y="691" on="1"/>
        <pt x="212" y="744" on="0"/>
        <pt x="308" y="770" on="1"/>
        <pt x="398" y="794" on="0"/>
        <pt x="488" y="788" on="1"/>
        <pt x="504" y="783" on="0"/>
        <pt x="522" y="774" on="0"/>
        <pt x="533" y="761" on="1"/>
        <pt x="534" y="742" on="1"/>
        <pt x="539" y="740" on="0"/>
        <pt x="562" y="736" on="0"/>
        <pt x="574" y="731" on="0"/>
        <pt x="588" y="721" on="0"/>
        <pt x="594" y="712" on="1"/>
        <pt x="606" y="692" on="0"/>
        <pt x="605" y="599" on="0"/>
        <pt x="562" y="490" on="0"/>
        <pt x="500" y="386" on="0"/>
        <pt x="429" y="293" on="0"/>
        <pt x="379" y="229" on="0"/>
        <pt x="350" y="190" on="0"/>
        <pt x="343" y="176" on="1"/>
        <pt x="330" y="151" on="0"/>
        <pt x="345" y="137" on="1"/>
      </contour>
      <contour>
        <pt x="466" y="124" on="1"/>
        <pt x="457" y="124" on="1"/>
      </contour>
    </TTGlyph>
    <TTGlyph name="Zcaron" xMin="2" yMin="-69" xMax="686" yMax="1146">
      <contour>
        <pt x="454" y="126" on="1"/>
        <pt x="497" y="127" on="0"/>
        <pt x="527" y="85" on="0"/>
        <pt x="516" y="31" on="0"/>
        <pt x="471" y="-22" on="0"/>
        <pt x="438" y="-32" on="1"/>
        <pt x="377" y="-59" on="0"/>
        <pt x="280" y="-68" on="1"/>
        <pt x="193" y="-77" on="0"/>
        <pt x="108" y="-66" on="1"/>
        <pt x="57" y="-59" on="0"/>
        <pt x="37" y="-41" on="1"/>
        <pt x="-3" y="-6" on="0"/>
        <pt x="2" y="57" on="1"/>
        <pt x="4" y="87" on="0"/>
        <pt x="14" y="106" on="1"/>
        <pt x="30" y="132" on="0"/>
        <pt x="99" y="232" on="0"/>
        <pt x="168" y="314" on="0"/>
        <pt x="202" y="352" on="1"/>
        <pt x="335" y="501" on="0"/>
        <pt x="359" y="539" on="1"/>
        <pt x="364" y="547" on="0"/>
        <pt x="374" y="570" on="1"/>
        <pt x="283" y="549" on="0"/>
        <pt x="191" y="573" on="1"/>
        <pt x="156" y="582" on="0"/>
        <pt x="143" y="618" on="1"/>
        <pt x="129" y="657" on="0"/>
        <pt x="163" y="691" on="1"/>
        <pt x="212" y="744" on="0"/>
        <pt x="308" y="770" on="1"/>
        <pt x="398" y="794" on="0"/>
        <pt x="488" y="788" on="1"/>
        <pt x="504" y="783" on="0"/>
        <pt x="522" y="774" on="0"/>
        <pt x="533" y="761" on="1"/>
        <pt x="534" y="742" on="1"/>
        <pt x="539" y="740" on="0"/>
        <pt x="562" y="736" on="0"/>
        <pt x="574" y="731" on="0"/>
        <pt x="588" y="721" on="0"/>
        <pt x="594" y="712" on="1"/>
        <pt x="606" y="692" on="0"/>
        <pt x="605" y="599" on="0"/>
        <pt x="562" y="490" on="0"/>
        <pt x="500" y="386" on="0"/>
        <pt x="429" y="293" on="0"/>
        <pt x="379" y="229" on="0"/>
        <pt x="350" y="190" on="0"/>
        <pt x="343" y="176" on="1"/>
        <pt x="330" y="151" on="0"/>
        <pt x="345" y="137" on="1"/>
      </contour>
      <contour>
        <pt x="466" y="124" on="1"/>
        <pt x="457" y="124" on="1"/>
      </contour>
      <contour>
        <pt x="389" y="885" on="1"/>
        <pt x="386" y="901" on="1"/>
        <pt x="366" y="953" on="0"/>
        <pt x="353" y="1019" on="1"/>
        <pt x="330" y="1069" on="0"/>
        <pt x="326" y="1115" on="0"/>
        <pt x="343" y="1143" on="0"/>
        <pt x="365" y="1146" on="1"/>
        <pt x="411" y="1152" on="0"/>
        <pt x="427" y="1123" on="1"/>
        <pt x="429" y="1115" on="0"/>
        <pt x="428" y="1101" on="0"/>
        <pt x="428" y="1094" on="1"/>
        <pt x="434" y="1073" on="0"/>
        <pt x="458" y="1035" on="0"/>
        <pt x="469" y="1017" on="1"/>
        <pt x="508" y="1065" on="0"/>
        <pt x="528" y="1082" on="1"/>
        <pt x="565" y="1105" on="0"/>
        <pt x="606" y="1102" on="1"/>
        <pt x="653" y="1104" on="0"/>
        <pt x="678" y="1082" on="1"/>
        <pt x="707" y="1058" on="0"/>
        <pt x="686" y="1018" on="1"/>
        <pt x="620" y="939" on="0"/>
        <pt x="545" y="873" on="0"/>
        <pt x="506" y="844" on="0"/>
        <pt x="476" y="820" on="0"/>
        <pt x="456" y="817" on="1"/>
        <pt x="405" y="810" on="0"/>
        <pt x="378" y="841" on="1"/>
        <pt x="368" y="865" on="0"/>
      </contour>
    </TTGlyph>
    <TTGlyph name="a" xMin="8" yMin="-45" xMax="524" yMax="486">
      <contour>
        <pt x="458" y="429" on="1"/>
        <pt x="462" y="428" on="1"/>
        <pt x="464" y="428" on="0"/>
        <pt x="464" y="427" on="1"/>
        <pt x="490" y="437" on="0"/>
        <pt x="507" y="412" on="1"/>
        <pt x="518" y="395" on="0"/>
        <pt x="524" y="360" on="1"/>
        <pt x="526" y="312" on="0"/>
        <pt x="514" y="227" on="1"/>
        <pt x="491" y="55" on="0"/>
        <pt x="489" y="22" on="1"/>
        <pt x="491" y="-13" on="0"/>
        <pt x="446" y="-26" on="1"/>
        <pt x="407" y="-38" on="0"/>
        <pt x="368" y="-25" on="1"/>
        <pt x="327" y="-11" on="0"/>
        <pt x="334" y="18" on="1"/>
        <pt x="326" y="3" on="0"/>
        <pt x="310" y="-10" on="0"/>
        <pt x="263" y="-33" on="0"/>
        <pt x="177" y="-48" on="0"/>
        <pt x="91" y="-41" on="0"/>
        <pt x="20" y="-6" on="0"/>
        <pt x="8" y="31" on="1"/>
        <pt x="-15" y="103" on="0"/>
        <pt x="14" y="214" on="1"/>
        <pt x="34" y="287" on="0"/>
        <pt x="86" y="343" on="1"/>
        <pt x="146" y="407" on="0"/>
        <pt x="222" y="449" on="1"/>
        <pt x="279" y="480" on="0"/>
        <pt x="332" y="486" on="1"/>
        <pt x="350" y="488" on="0"/>
        <pt x="377" y="482" on="0"/>
        <pt x="408" y="476" on="0"/>
        <pt x="422" y="470" on="1"/>
        <pt x="458" y="455" on="0"/>
      </contour>
      <contour>
        <pt x="273" y="164" on="1"/>
        <pt x="280" y="178" on="0"/>
        <pt x="289" y="220" on="0"/>
        <pt x="297" y="245" on="1"/>
        <pt x="216" y="212" on="0"/>
        <pt x="173" y="164" on="1"/>
        <pt x="126" y="111" on="0"/>
        <pt x="179" y="91" on="1"/>
        <pt x="225" y="79" on="0"/>
        <pt x="246" y="106" on="1"/>
        <pt x="255" y="118" on="0"/>
        <pt x="269" y="154" on="0"/>
        <pt x="279" y="173" on="1"/>
        <pt x="276" y="168" on="0"/>
      </contour>
    </TTGlyph>
    <TTGlyph name="aacute" xMin="8" yMin="-45" xMax="545" yMax="753">
      <component glyphName="a" x="0" y="0" flags="0x1204"/>
      <component glyphName="acute" x="254" y="-117" flags="0x1004"/>
    </TTGlyph>
    <TTGlyph name="acircumflex" xMin="8" yMin="-45" xMax="557" yMax="844">
      <component glyphName="a" x="0" y="0" flags="0x1004"/>
      <component glyphName="circumflex" x="171" y="52" flags="0x1004"/>
    </TTGlyph>
    <TTGlyph name="acute" xMin="67" yMin="657" xMax="291" yMax="870">
      <contour>
        <pt x="203" y="870" on="1"/>
        <pt x="262" y="866" on="0"/>
        <pt x="290" y="840" on="1"/>
        <pt x="322" y="812" on="0"/>
        <pt x="286" y="782" on="1"/>
        <pt x="283" y="771" on="0"/>
        <pt x="274" y="758" on="1"/>
        <pt x="212" y="696" on="0"/>
        <pt x="170" y="674" on="1"/>
        <pt x="113" y="645" on="0"/>
        <pt x="80" y="658" on="1"/>
        <pt x="46" y="671" on="0"/>
        <pt x="67" y="717" on="1"/>
        <pt x="73" y="724" on="1"/>
        <pt x="76" y="762" on="0"/>
        <pt x="122" y="825" on="1"/>
        <pt x="133" y="840" on="0"/>
        <pt x="141" y="846" on="1"/>
        <pt x="168" y="862" on="0"/>
        <pt x="200" y="870" on="1"/>
      </contour>
    </TTGlyph>
    <TTGlyph name="adieresis" xMin="8" yMin="-45" xMax="573" yMax="734">
      <component glyphName="a" x="0" y="0" flags="0x1204"/>
      <component glyphName="dieresis" x="98" y="-59" flags="0x1004"/>
    </TTGlyph>
    <TTGlyph name="ae" xMin="8" yMin="-68" xMax="782" yMax="486">
      <component glyphName="a" x="0" y="0" flags="0x1004"/>
      <component glyphName="e" x="312" y="-15" flags="0x1004"/>
    </TTGlyph>
    <TTGlyph name="agrave" xMin="8" yMin="-45" xMax="524" yMax="750">
      <component glyphName="a" x="0" y="0" flags="0x1204"/>
      <component glyphName="grave" x="228" y="-135" flags="0x1004"/>
    </TTGlyph>
    <TTGlyph name="ampersand" xMin="27" yMin="-109" xMax="710" yMax="801">
      <contour>
        <pt x="633" y="-3" on="1"/>
        <pt x="665" y="7" on="0"/>
        <pt x="687" y="-4" on="0"/>
        <pt x="679" y="-30" on="0"/>
        <pt x="647" y="-66" on="0"/>
        <pt x="624" y="-81" on="1"/>
        <pt x="569" y="-118" on="0"/>
        <pt x="527" y="-109" on="1"/>
        <pt x="500" y="-104" on="0"/>
        <pt x="478" y="-74" on="1"/>
        <pt x="470" y="-62" on="0"/>
        <pt x="454" y="-38" on="0"/>
        <pt x="445" y="-30" on="1"/>
        <pt x="364" y="-88" on="0"/>
        <pt x="271" y="-103" on="1"/>
        <pt x="241" y="-108" on="0"/>
        <pt x="153" y="-95" on="0"/>
        <pt x="66" y="-56" on="0"/>
        <pt x="42" y="-23" on="1"/>
        <pt x="-6" y="43" on="0"/>
        <pt x="27" y="176" on="1"/>
        <pt x="63" y="269" on="0"/>
        <pt x="175" y="360" on="1"/>
        <pt x="222" y="399" on="0"/>
        <pt x="239" y="411" on="1"/>
        <pt x="219" y="533" on="0"/>
        <pt x="268" y="635" on="1"/>
        <pt x="310" y="723" on="0"/>
        <pt x="382" y="764" on="1"/>
        <pt x="431" y="797" on="0"/>
        <pt x="504" y="800" on="1"/>
        <pt x="638" y="806" on="0"/>
        <pt x="668" y="712" on="1"/>
        <pt x="686" y="652" on="0"/>
        <pt x="646" y="571" on="1"/>
        <pt x="614" y="509" on="0"/>
        <pt x="543" y="440" on="1"/>
        <pt x="508" y="407" on="0"/>
        <pt x="463" y="376" on="1"/>
        <pt x="465" y="338" on="0"/>
        <pt x="493" y="266" on="0"/>
        <pt x="512" y="223" on="0"/>
        <pt x="520" y="202" on="1"/>
        <pt x="523" y="204" on="0"/>
        <pt x="531" y="217" on="0"/>
        <pt x="541" y="231" on="0"/>
        <pt x="551" y="245" on="0"/>
        <pt x="557" y="250" on="0"/>
        <pt x="568" y="258" on="0"/>
        <pt x="576" y="262" on="1"/>
        <pt x="596" y="270" on="0"/>
        <pt x="610" y="262" on="1"/>
        <pt x="611" y="263" on="0"/>
        <pt x="626" y="268" on="0"/>
        <pt x="626" y="270" on="1"/>
        <pt x="628" y="279" on="0"/>
        <pt x="655" y="287" on="0"/>
        <pt x="670" y="286" on="1"/>
        <pt x="710" y="283" on="0"/>
        <pt x="710" y="262" on="1"/>
        <pt x="712" y="244" on="0"/>
        <pt x="691" y="212" on="1"/>
        <pt x="655" y="120" on="0"/>
        <pt x="603" y="58" on="1"/>
        <pt x="602" y="56" on="0"/>
        <pt x="600" y="55" on="0"/>
        <pt x="599" y="54" on="1"/>
        <pt x="613" y="36" on="0"/>
        <pt x="624" y="13" on="0"/>
      </contour>
      <contour>
        <pt x="285" y="218" on="1"/>
        <pt x="256" y="185" on="0"/>
        <pt x="234" y="140" on="0"/>
        <pt x="252" y="115" on="1"/>
        <pt x="266" y="96" on="0"/>
        <pt x="304" y="91" on="0"/>
        <pt x="334" y="93" on="0"/>
        <pt x="352" y="94" on="1"/>
        <pt x="347" y="104" on="0"/>
        <pt x="333" y="121" on="0"/>
        <pt x="324" y="134" on="1"/>
        <pt x="302" y="168" on="0"/>
      </contour>
      <contour>
        <pt x="509" y="638" on="1"/>
        <pt x="503" y="662" on="0"/>
        <pt x="473" y="644" on="1"/>
        <pt x="446" y="629" on="0"/>
        <pt x="424" y="592" on="1"/>
        <pt x="401" y="554" on="0"/>
        <pt x="414" y="527" on="1"/>
        <pt x="426" y="536" on="0"/>
        <pt x="442" y="551" on="0"/>
        <pt x="468" y="564" on="0"/>
        <pt x="480" y="573" on="1"/>
        <pt x="507" y="593" on="0"/>
        <pt x="510" y="638" on="1"/>
      </contour>
      <contour>
        <pt x="463" y="537" on="1"/>
        <pt x="425" y="534" on="1"/>
      </contour>
      <contour>
        <pt x="423" y="532" on="1"/>
        <pt x="420" y="529" on="1"/>
      </contour>
    </TTGlyph>
    <TTGlyph name="aring" xMin="8" yMin="-45" xMax="633" yMax="851">
      <component glyphName="a" x="0" y="0" flags="0x1004"/>
      <component glyphName="ring" x="185" y="-27" flags="0x1004"/>
    </TTGlyph>
    <TTGlyph name="asciicircum" xMin="30" yMin="396" xMax="540" yMax="867">
      <contour>
        <pt x="454" y="770" on="1"/>
        <pt x="457" y="746" on="1"/>
        <pt x="485" y="671" on="0"/>
        <pt x="505" y="578" on="1"/>
        <pt x="515" y="554" on="0"/>
        <pt x="538" y="495" on="0"/>
        <pt x="540" y="468" on="1"/>
        <pt x="545" y="405" on="0"/>
        <pt x="482" y="396" on="1"/>
        <pt x="456" y="394" on="0"/>
        <pt x="412" y="406" on="0"/>
        <pt x="399" y="431" on="1"/>
        <pt x="397" y="442" on="0"/>
        <pt x="398" y="462" on="0"/>
        <pt x="398" y="473" on="1"/>
        <pt x="390" y="502" on="0"/>
        <pt x="355" y="556" on="0"/>
        <pt x="339" y="582" on="1"/>
        <pt x="296" y="526" on="0"/>
        <pt x="256" y="489" on="1"/>
        <pt x="201" y="456" on="0"/>
        <pt x="144" y="460" on="1"/>
        <pt x="79" y="456" on="0"/>
        <pt x="41" y="488" on="1"/>
        <pt x="0" y="524" on="0"/>
        <pt x="30" y="579" on="1"/>
        <pt x="100" y="663" on="0"/>
        <pt x="135" y="698" on="1"/>
        <pt x="198" y="761" on="0"/>
        <pt x="268" y="814" on="1"/>
        <pt x="277" y="821" on="0"/>
        <pt x="297" y="838" on="0"/>
        <pt x="308" y="846" on="1"/>
        <pt x="334" y="863" on="0"/>
        <pt x="388" y="870" on="0"/>
        <pt x="446" y="861" on="0"/>
        <pt x="469" y="832" on="1"/>
        <pt x="483" y="799" on="0"/>
      </contour>
    </TTGlyph>
    <TTGlyph name="asciitilde" xMin="3" yMin="264" xMax="459" yMax="506">
      <contour>
        <pt x="74" y="457" on="1"/>
        <pt x="82" y="459" on="1"/>
        <pt x="108" y="480" on="1"/>
        <pt x="171" y="521" on="0"/>
        <pt x="207" y="506" on="1"/>
        <pt x="226" y="500" on="0"/>
        <pt x="251" y="479" on="0"/>
        <pt x="261" y="447" on="0"/>
        <pt x="272" y="430" on="0"/>
        <pt x="289" y="401" on="0"/>
        <pt x="301" y="390" on="1"/>
        <pt x="326" y="391" on="0"/>
        <pt x="351" y="404" on="1"/>
        <pt x="368" y="420" on="1"/>
        <pt x="376" y="429" on="0"/>
        <pt x="385" y="437" on="1"/>
        <pt x="413" y="455" on="0"/>
        <pt x="445" y="448" on="0"/>
        <pt x="459" y="427" on="0"/>
        <pt x="459" y="405" on="1"/>
        <pt x="455" y="373" on="0"/>
        <pt x="415" y="340" on="1"/>
        <pt x="367" y="287" on="0"/>
        <pt x="345" y="277" on="1"/>
        <pt x="309" y="258" on="0"/>
        <pt x="263" y="270" on="1"/>
        <pt x="252" y="272" on="0"/>
        <pt x="241" y="283" on="1"/>
        <pt x="218" y="306" on="1"/>
        <pt x="188" y="336" on="0"/>
        <pt x="164" y="330" on="1"/>
        <pt x="150" y="319" on="0"/>
        <pt x="124" y="293" on="0"/>
        <pt x="112" y="282" on="1"/>
        <pt x="82" y="258" on="0"/>
        <pt x="46" y="272" on="0"/>
        <pt x="38" y="282" on="1"/>
        <pt x="13" y="294" on="0"/>
        <pt x="-3" y="338" on="0"/>
        <pt x="3" y="363" on="1"/>
        <pt x="16" y="418" on="0"/>
      </contour>
      <contour>
        <pt x="53" y="439" on="1"/>
        <pt x="50" y="436" on="0"/>
        <pt x="59" y="442" on="0"/>
        <pt x="66" y="446" on="1"/>
      </contour>
    </TTGlyph>
    <TTGlyph name="asterisk" xMin="53" yMin="211" xMax="741" yMax="854">
      <contour>
        <pt x="576" y="691" on="1"/>
        <pt x="699" y="697" on="0"/>
        <pt x="741" y="658" on="1"/>
        <pt x="773" y="629" on="0"/>
        <pt x="726" y="596" on="1"/>
        <pt x="687" y="570" on="0"/>
        <pt x="632" y="560" on="1"/>
        <pt x="477" y="521" on="0"/>
        <pt x="441" y="502" on="1"/>
        <pt x="543" y="410" on="0"/>
        <pt x="619" y="321" on="1"/>
        <pt x="632" y="291" on="0"/>
        <pt x="606" y="286" on="1"/>
        <pt x="583" y="282" on="0"/>
        <pt x="553" y="292" on="1"/>
        <pt x="542" y="294" on="0"/>
        <pt x="525" y="307" on="0"/>
        <pt x="508" y="316" on="1"/>
        <pt x="488" y="327" on="0"/>
        <pt x="416" y="376" on="1"/>
        <pt x="407" y="348" on="0"/>
        <pt x="405" y="304" on="0"/>
        <pt x="404" y="291" on="1"/>
        <pt x="399" y="280" on="0"/>
        <pt x="398" y="257" on="0"/>
        <pt x="376" y="230" on="0"/>
        <pt x="335" y="212" on="0"/>
        <pt x="289" y="211" on="0"/>
        <pt x="244" y="225" on="0"/>
        <pt x="226" y="238" on="1"/>
        <pt x="187" y="269" on="0"/>
        <pt x="191" y="311" on="1"/>
        <pt x="197" y="348" on="0"/>
        <pt x="213" y="383" on="1"/>
        <pt x="218" y="399" on="1"/>
        <pt x="169" y="387" on="1"/>
        <pt x="128" y="387" on="0"/>
        <pt x="80" y="411" on="0"/>
        <pt x="68" y="436" on="0"/>
        <pt x="83" y="452" on="1"/>
        <pt x="106" y="474" on="0"/>
        <pt x="168" y="507" on="0"/>
        <pt x="200" y="523" on="1"/>
        <pt x="194" y="525" on="0"/>
        <pt x="175" y="531" on="0"/>
        <pt x="151" y="539" on="0"/>
        <pt x="125" y="547" on="0"/>
        <pt x="114" y="552" on="1"/>
        <pt x="76" y="564" on="0"/>
        <pt x="51" y="604" on="0"/>
        <pt x="55" y="640" on="0"/>
        <pt x="81" y="660" on="0"/>
        <pt x="95" y="651" on="1"/>
        <pt x="110" y="697" on="0"/>
        <pt x="159" y="704" on="1"/>
        <pt x="200" y="710" on="0"/>
        <pt x="249" y="686" on="1"/>
        <pt x="273" y="672" on="0"/>
        <pt x="289" y="652" on="0"/>
        <pt x="297" y="645" on="1"/>
        <pt x="299" y="639" on="0"/>
        <pt x="304" y="630" on="0"/>
        <pt x="306" y="625" on="1"/>
        <pt x="349" y="723" on="0"/>
        <pt x="425" y="828" on="1"/>
        <pt x="438" y="847" on="0"/>
        <pt x="479" y="859" on="0"/>
        <pt x="514" y="848" on="0"/>
        <pt x="532" y="814" on="0"/>
        <pt x="514" y="771" on="0"/>
        <pt x="501" y="742" on="0"/>
        <pt x="496" y="728" on="1"/>
        <pt x="483" y="692" on="0"/>
        <pt x="477" y="667" on="1"/>
        <pt x="498" y="678" on="0"/>
        <pt x="558" y="687" on="0"/>
      </contour>
    </TTGlyph>
    <TTGlyph name="at" xMin="4" yMin="-95" xMax="850" yMax="776">
      <contour>
        <pt x="408" y="157" on="1"/>
        <pt x="374" y="130" on="0"/>
        <pt x="296" y="130" on="0"/>
        <pt x="235" y="171" on="0"/>
        <pt x="224" y="207" on="1"/>
        <pt x="200" y="287" on="0"/>
        <pt x="272" y="396" on="1"/>
        <pt x="308" y="450" on="0"/>
        <pt x="372" y="495" on="1"/>
        <pt x="473" y="567" on="0"/>
        <pt x="543" y="548" on="1"/>
        <pt x="567" y="542" on="0"/>
        <pt x="582" y="521" on="1"/>
        <pt x="591" y="518" on="0"/>
        <pt x="589" y="512" on="1"/>
        <pt x="584" y="498" on="1"/>
        <pt x="582" y="491" on="0"/>
        <pt x="583" y="476" on="0"/>
        <pt x="596" y="471" on="1"/>
        <pt x="618" y="443" on="0"/>
        <pt x="621" y="354" on="0"/>
        <pt x="600" y="331" on="1"/>
        <pt x="569" y="286" on="0"/>
        <pt x="572" y="261" on="0"/>
        <pt x="592" y="246" on="0"/>
        <pt x="612" y="237" on="1"/>
        <pt x="637" y="250" on="0"/>
        <pt x="649" y="260" on="1"/>
        <pt x="697" y="307" on="0"/>
        <pt x="698" y="384" on="1"/>
        <pt x="699" y="444" on="0"/>
        <pt x="675" y="493" on="1"/>
        <pt x="645" y="556" on="0"/>
        <pt x="592" y="582" on="1"/>
        <pt x="518" y="618" on="0"/>
        <pt x="390" y="554" on="1"/>
        <pt x="335" y="526" on="0"/>
        <pt x="284" y="466" on="1"/>
        <pt x="215" y="388" on="0"/>
        <pt x="180" y="316" on="0"/>
        <pt x="161" y="248" on="0"/>
        <pt x="158" y="176" on="0"/>
        <pt x="170" y="145" on="1"/>
        <pt x="199" y="75" on="0"/>
        <pt x="296" y="64" on="1"/>
        <pt x="332" y="60" on="0"/>
        <pt x="355" y="42" on="0"/>
        <pt x="359" y="20" on="0"/>
        <pt x="359" y="-5" on="0"/>
        <pt x="371" y="-15" on="1"/>
        <pt x="393" y="-34" on="0"/>
        <pt x="369" y="-70" on="0"/>
        <pt x="304" y="-93" on="0"/>
        <pt x="210" y="-97" on="0"/>
        <pt x="163" y="-86" on="1"/>
        <pt x="52" y="-60" on="0"/>
        <pt x="14" y="29" on="1"/>
        <pt x="-16" y="96" on="0"/>
        <pt x="4" y="210" on="1"/>
        <pt x="24" y="318" on="0"/>
        <pt x="82" y="432" on="1"/>
        <pt x="144" y="552" on="0"/>
        <pt x="228" y="632" on="1"/>
        <pt x="354" y="754" on="0"/>
        <pt x="514" y="776" on="1"/>
        <pt x="669" y="797" on="0"/>
        <pt x="776" y="714" on="1"/>
        <pt x="810" y="690" on="0"/>
        <pt x="852" y="577" on="0"/>
        <pt x="848" y="424" on="0"/>
        <pt x="786" y="240" on="0"/>
        <pt x="715" y="145" on="1"/>
        <pt x="671" y="85" on="0"/>
        <pt x="596" y="60" on="1"/>
        <pt x="524" y="35" on="0"/>
        <pt x="470" y="54" on="1"/>
        <pt x="413" y="74" on="0"/>
        <pt x="415" y="131" on="1"/>
        <pt x="410" y="143" on="0"/>
      </contour>
      <contour>
        <pt x="315" y="222" on="1"/>
        <pt x="344" y="236" on="0"/>
        <pt x="391" y="286" on="0"/>
        <pt x="417" y="317" on="0"/>
        <pt x="431" y="332" on="1"/>
        <pt x="426" y="338" on="0"/>
        <pt x="416" y="340" on="1"/>
        <pt x="377" y="342" on="0"/>
        <pt x="344" y="304" on="1"/>
        <pt x="313" y="267" on="0"/>
      </contour>
    </TTGlyph>
    <TTGlyph name="atilde" xMin="8" yMin="-45" xMax="585" yMax="770">
      <component glyphName="a" x="0" y="0" flags="0x1004"/>
      <component glyphName="tilde" x="216" y="-51" flags="0x1004"/>
    </TTGlyph>
    <TTGlyph name="b" xMin="3" yMin="-48" xMax="521" yMax="809">
      <contour>
        <pt x="191" y="-3" on="1"/>
        <pt x="166" y="-26" on="1"/>
        <pt x="146" y="-40" on="0"/>
        <pt x="127" y="-43" on="1"/>
        <pt x="128" y="-44" on="1"/>
        <pt x="123" y="-48" on="1"/>
        <pt x="52" y="-54" on="0"/>
        <pt x="18" y="-17" on="1"/>
        <pt x="-17" y="22" on="0"/>
        <pt x="3" y="85" on="1"/>
        <pt x="47" y="334" on="0"/>
        <pt x="126" y="547" on="1"/>
        <pt x="179" y="691" on="0"/>
        <pt x="228" y="740" on="1"/>
        <pt x="254" y="765" on="0"/>
        <pt x="276" y="755" on="1"/>
        <pt x="282" y="779" on="0"/>
        <pt x="312" y="806" on="0"/>
        <pt x="348" y="811" on="0"/>
        <pt x="382" y="794" on="0"/>
        <pt x="401" y="750" on="0"/>
        <pt x="398" y="709" on="0"/>
        <pt x="383" y="670" on="0"/>
        <pt x="362" y="632" on="0"/>
        <pt x="353" y="613" on="1"/>
        <pt x="289" y="459" on="0"/>
        <pt x="262" y="385" on="1"/>
        <pt x="271" y="391" on="1"/>
        <pt x="337" y="435" on="0"/>
        <pt x="412" y="430" on="1"/>
        <pt x="445" y="427" on="0"/>
        <pt x="498" y="398" on="0"/>
        <pt x="523" y="340" on="0"/>
        <pt x="518" y="249" on="0"/>
        <pt x="488" y="152" on="0"/>
        <pt x="437" y="60" on="0"/>
        <pt x="406" y="26" on="1"/>
        <pt x="336" y="-51" on="0"/>
        <pt x="271" y="-32" on="1"/>
        <pt x="243" y="-36" on="0"/>
        <pt x="206" y="-6" on="1"/>
        <pt x="198" y="1" on="0"/>
        <pt x="191" y="5" on="1"/>
      </contour>
      <contour>
        <pt x="218" y="69" on="1"/>
        <pt x="233" y="86" on="0"/>
        <pt x="306" y="180" on="0"/>
        <pt x="331" y="233" on="0"/>
        <pt x="312" y="256" on="1"/>
        <pt x="293" y="280" on="0"/>
        <pt x="264" y="220" on="1"/>
        <pt x="218" y="124" on="0"/>
      </contour>
    </TTGlyph>
    <TTGlyph name="backslash" xMin="10" yMin="-254" xMax="499" yMax="894">
      <contour>
        <pt x="243" y="786" on="1"/>
        <pt x="250" y="765" on="1"/>
        <pt x="263" y="727" on="0"/>
        <pt x="282" y="645" on="0"/>
        <pt x="319" y="509" on="0"/>
        <pt x="377" y="328" on="0"/>
        <pt x="405" y="239" on="1"/>
        <pt x="470" y="34" on="0"/>
        <pt x="498" y="-130" on="1"/>
        <pt x="511" y="-171" on="0"/>
        <pt x="487" y="-227" on="0"/>
        <pt x="443" y="-255" on="0"/>
        <pt x="397" y="-252" on="0"/>
        <pt x="389" y="-234" on="1"/>
        <pt x="330" y="-108" on="0"/>
        <pt x="252" y="130" on="1"/>
        <pt x="220" y="225" on="0"/>
        <pt x="158" y="412" on="0"/>
        <pt x="101" y="552" on="0"/>
        <pt x="58" y="657" on="0"/>
        <pt x="27" y="706" on="1"/>
        <pt x="6" y="747" on="0"/>
        <pt x="25" y="774" on="1"/>
        <pt x="0" y="825" on="0"/>
        <pt x="10" y="846" on="1"/>
        <pt x="45" y="901" on="0"/>
        <pt x="112" y="894" on="1"/>
        <pt x="143" y="891" on="0"/>
        <pt x="160" y="886" on="1"/>
        <pt x="213" y="862" on="0"/>
        <pt x="250" y="809" on="0"/>
      </contour>
    </TTGlyph>
    <TTGlyph name="bar" xMin="19" yMin="-129" xMax="402" yMax="887">
      <contour>
        <pt x="200" y="778" on="0"/>
        <pt x="214" y="815" on="0"/>
        <pt x="244" y="849" on="0"/>
        <pt x="286" y="880" on="0"/>
        <pt x="306" y="886" on="1"/>
        <pt x="351" y="902" on="0"/>
        <pt x="356" y="858" on="1"/>
        <pt x="360" y="847" on="0"/>
        <pt x="379" y="844" on="0"/>
        <pt x="388" y="841" on="1"/>
        <pt x="408" y="834" on="0"/>
        <pt x="402" y="786" on="1"/>
        <pt x="390" y="721" on="0"/>
        <pt x="362" y="540" on="0"/>
        <pt x="338" y="432" on="1"/>
        <pt x="280" y="162" on="0"/>
        <pt x="189" y="-47" on="1"/>
        <pt x="183" y="-58" on="0"/>
        <pt x="166" y="-93" on="0"/>
        <pt x="152" y="-108" on="1"/>
        <pt x="119" y="-145" on="0"/>
        <pt x="68" y="-129" on="1"/>
        <pt x="68" y="-107" on="0"/>
        <pt x="19" y="-51" on="0"/>
        <pt x="19" y="-27" on="1"/>
        <pt x="92" y="216" on="0"/>
        <pt x="142" y="460" on="1"/>
        <pt x="178" y="642" on="0"/>
        <pt x="191" y="730" on="0"/>
      </contour>
    </TTGlyph>
    <TTGlyph name="braceleft" xMin="29" yMin="-143" xMax="558" yMax="831">
      <contour>
        <pt x="428" y="831" on="1"/>
        <pt x="467" y="830" on="1"/>
        <pt x="469" y="830" on="0"/>
        <pt x="503" y="821" on="0"/>
        <pt x="550" y="794" on="0"/>
        <pt x="558" y="778" on="1"/>
        <pt x="574" y="741" on="0"/>
        <pt x="507" y="705" on="1"/>
        <pt x="498" y="702" on="0"/>
        <pt x="466" y="695" on="1"/>
        <pt x="472" y="696" on="0"/>
        <pt x="482" y="699" on="1"/>
        <pt x="458" y="677" on="0"/>
        <pt x="447" y="624" on="0"/>
        <pt x="446" y="569" on="0"/>
        <pt x="444" y="513" on="0"/>
        <pt x="413" y="458" on="0"/>
        <pt x="385" y="417" on="0"/>
        <pt x="370" y="402" on="1"/>
        <pt x="345" y="377" on="0"/>
        <pt x="291" y="358" on="1"/>
        <pt x="303" y="351" on="0"/>
        <pt x="288" y="326" on="0"/>
        <pt x="279" y="308" on="0"/>
        <pt x="285" y="271" on="0"/>
        <pt x="274" y="221" on="0"/>
        <pt x="258" y="174" on="0"/>
        <pt x="243" y="129" on="0"/>
        <pt x="244" y="108" on="1"/>
        <pt x="245" y="62" on="0"/>
        <pt x="298" y="30" on="1"/>
        <pt x="351" y="0" on="0"/>
        <pt x="368" y="-19" on="1"/>
        <pt x="400" y="-55" on="0"/>
        <pt x="389" y="-94" on="1"/>
        <pt x="376" y="-115" on="0"/>
        <pt x="331" y="-139" on="0"/>
        <pt x="311" y="-143" on="1"/>
        <pt x="280" y="-149" on="0"/>
        <pt x="222" y="-142" on="1"/>
        <pt x="192" y="-136" on="0"/>
        <pt x="177" y="-127" on="1"/>
        <pt x="146" y="-113" on="0"/>
        <pt x="98" y="-60" on="1"/>
        <pt x="50" y="-8" on="0"/>
        <pt x="39" y="58" on="0"/>
        <pt x="65" y="123" on="0"/>
        <pt x="85" y="166" on="0"/>
        <pt x="113" y="214" on="0"/>
        <pt x="124" y="240" on="1"/>
        <pt x="150" y="305" on="0"/>
        <pt x="118" y="322" on="1"/>
        <pt x="117" y="322" on="0"/>
        <pt x="105" y="326" on="0"/>
        <pt x="96" y="328" on="1"/>
        <pt x="81" y="333" on="0"/>
        <pt x="65" y="341" on="1"/>
        <pt x="35" y="348" on="0"/>
        <pt x="30" y="358" on="1"/>
        <pt x="19" y="377" on="0"/>
        <pt x="46" y="397" on="1"/>
        <pt x="75" y="411" on="0"/>
        <pt x="100" y="409" on="1"/>
        <pt x="216" y="430" on="0"/>
        <pt x="264" y="474" on="1"/>
        <pt x="283" y="491" on="0"/>
        <pt x="286" y="528" on="0"/>
        <pt x="283" y="545" on="1"/>
        <pt x="286" y="531" on="0"/>
        <pt x="281" y="538" on="1"/>
        <pt x="260" y="576" on="0"/>
        <pt x="250" y="636" on="1"/>
        <pt x="239" y="703" on="0"/>
        <pt x="276" y="752" on="1"/>
        <pt x="304" y="788" on="0"/>
        <pt x="328" y="801" on="0"/>
        <pt x="339" y="805" on="1"/>
        <pt x="364" y="822" on="0"/>
        <pt x="410" y="830" on="1"/>
        <pt x="419" y="831" on="0"/>
      </contour>
    </TTGlyph>
    <TTGlyph name="braceright" xMin="34" yMin="-151" xMax="541" yMax="832">
      <contour>
        <pt x="322" y="-51" on="0"/>
        <pt x="304" y="-78" on="0"/>
        <pt x="282" y="-105" on="0"/>
        <pt x="264" y="-115" on="0"/>
        <pt x="253" y="-120" on="1"/>
        <pt x="229" y="-138" on="0"/>
        <pt x="183" y="-148" on="1"/>
        <pt x="169" y="-151" on="0"/>
        <pt x="155" y="-151" on="1"/>
        <pt x="127" y="-151" on="1"/>
        <pt x="107" y="-151" on="0"/>
        <pt x="43" y="-119" on="0"/>
        <pt x="34" y="-102" on="1"/>
        <pt x="15" y="-65" on="0"/>
        <pt x="81" y="-28" on="1"/>
        <pt x="88" y="-26" on="0"/>
        <pt x="113" y="-19" on="0"/>
        <pt x="121" y="-16" on="1"/>
        <pt x="116" y="-18" on="0"/>
        <pt x="106" y="-21" on="1"/>
        <pt x="128" y="2" on="0"/>
        <pt x="131" y="54" on="0"/>
        <pt x="122" y="109" on="0"/>
        <pt x="115" y="164" on="0"/>
        <pt x="128" y="190" on="1"/>
        <pt x="159" y="251" on="0"/>
        <pt x="267" y="312" on="0"/>
        <pt x="332" y="329" on="1"/>
        <pt x="263" y="370" on="0"/>
        <pt x="292" y="484" on="1"/>
        <pt x="298" y="508" on="0"/>
        <pt x="312" y="555" on="0"/>
        <pt x="318" y="578" on="1"/>
        <pt x="312" y="593" on="0"/>
        <pt x="316" y="627" on="0"/>
        <pt x="313" y="644" on="0"/>
        <pt x="304" y="655" on="1"/>
        <pt x="293" y="663" on="0"/>
        <pt x="270" y="680" on="0"/>
        <pt x="258" y="688" on="1"/>
        <pt x="179" y="691" on="0"/>
        <pt x="162" y="738" on="1"/>
        <pt x="156" y="755" on="0"/>
        <pt x="161" y="776" on="1"/>
        <pt x="187" y="818" on="0"/>
        <pt x="277" y="837" on="0"/>
        <pt x="326" y="832" on="1"/>
        <pt x="340" y="829" on="0"/>
        <pt x="357" y="826" on="0"/>
        <pt x="387" y="812" on="0"/>
        <pt x="421" y="786" on="0"/>
        <pt x="436" y="770" on="1"/>
        <pt x="470" y="732" on="0"/>
        <pt x="476" y="700" on="1"/>
        <pt x="494" y="656" on="0"/>
        <pt x="495" y="574" on="0"/>
        <pt x="478" y="535" on="0"/>
        <pt x="464" y="507" on="0"/>
        <pt x="448" y="473" on="0"/>
        <pt x="435" y="437" on="0"/>
        <pt x="432" y="421" on="1"/>
        <pt x="427" y="384" on="0"/>
        <pt x="451" y="373" on="1"/>
        <pt x="454" y="373" on="0"/>
        <pt x="481" y="365" on="0"/>
        <pt x="499" y="360" on="0"/>
        <pt x="505" y="357" on="1"/>
        <pt x="535" y="350" on="0"/>
        <pt x="541" y="341" on="1"/>
        <pt x="552" y="323" on="0"/>
        <pt x="527" y="301" on="1"/>
        <pt x="499" y="287" on="0"/>
        <pt x="473" y="287" on="1"/>
        <pt x="397" y="268" on="0"/>
        <pt x="363" y="250" on="1"/>
        <pt x="296" y="214" on="0"/>
        <pt x="294" y="174" on="1"/>
        <pt x="292" y="161" on="0"/>
        <pt x="297" y="142" on="1"/>
        <pt x="294" y="154" on="0"/>
        <pt x="299" y="150" on="1"/>
        <pt x="318" y="121" on="0"/>
        <pt x="334" y="52" on="1"/>
        <pt x="340" y="26" on="0"/>
        <pt x="333" y="-26" on="0"/>
      </contour>
    </TTGlyph>
    <TTGlyph name="bracketleft" xMin="-40" yMin="-182" xMax="579" yMax="843">
      <contour>
        <pt x="491" y="721" on="1"/>
        <pt x="414" y="713" on="0"/>
        <pt x="414" y="711" on="0"/>
        <pt x="413" y="711" on="1"/>
        <pt x="413" y="709" on="1"/>
        <pt x="397" y="691" on="1"/>
        <pt x="377" y="678" on="1"/>
        <pt x="351" y="621" on="0"/>
        <pt x="335" y="565" on="1"/>
        <pt x="326" y="519" on="1"/>
        <pt x="318" y="481" on="0"/>
        <pt x="298" y="397" on="0"/>
        <pt x="288" y="354" on="1"/>
        <pt x="262" y="234" on="0"/>
        <pt x="252" y="141" on="0"/>
        <pt x="225" y="39" on="0"/>
        <pt x="214" y="-8" on="1"/>
        <pt x="257" y="-2" on="0"/>
        <pt x="349" y="-4" on="0"/>
        <pt x="413" y="-43" on="0"/>
        <pt x="431" y="-95" on="0"/>
        <pt x="394" y="-148" on="0"/>
        <pt x="339" y="-164" on="1"/>
        <pt x="292" y="-157" on="0"/>
        <pt x="195" y="-169" on="0"/>
        <pt x="100" y="-181" on="0"/>
        <pt x="10" y="-182" on="0"/>
        <pt x="-30" y="-163" on="1"/>
        <pt x="-30" y="-162" on="0"/>
        <pt x="-31" y="-161" on="1"/>
        <pt x="-51" y="-124" on="0"/>
        <pt x="-28" y="-71" on="0"/>
        <pt x="0" y="-57" on="1"/>
        <pt x="19" y="31" on="0"/>
        <pt x="64" y="215" on="0"/>
        <pt x="86" y="309" on="1"/>
        <pt x="157" y="613" on="0"/>
        <pt x="166" y="710" on="1"/>
        <pt x="172" y="768" on="0"/>
        <pt x="183" y="799" on="0"/>
        <pt x="191" y="811" on="0"/>
        <pt x="194" y="814" on="0"/>
        <pt x="195" y="816" on="1"/>
        <pt x="195" y="815" on="0"/>
        <pt x="197" y="815" on="1"/>
        <pt x="207" y="827" on="0"/>
        <pt x="221" y="838" on="1"/>
        <pt x="311" y="872" on="0"/>
        <pt x="380" y="843" on="1"/>
        <pt x="425" y="838" on="0"/>
        <pt x="428" y="835" on="1"/>
        <pt x="438" y="835" on="1"/>
        <pt x="443" y="835" on="0"/>
        <pt x="460" y="836" on="1"/>
        <pt x="516" y="841" on="0"/>
        <pt x="554" y="829" on="1"/>
        <pt x="570" y="819" on="0"/>
        <pt x="584" y="771" on="0"/>
        <pt x="579" y="751" on="1"/>
        <pt x="563" y="723" on="0"/>
        <pt x="516" y="722" on="1"/>
        <pt x="503" y="721" on="0"/>
      </contour>
    </TTGlyph>
    <TTGlyph name="bracketright" xMin="-5" yMin="-196" xMax="616" yMax="877">
      <contour>
        <pt x="294" y="386" on="0"/>
        <pt x="317" y="485" on="0"/>
        <pt x="335" y="559" on="0"/>
        <pt x="342" y="602" on="0"/>
        <pt x="346" y="627" on="1"/>
        <pt x="359" y="695" on="0"/>
        <pt x="362" y="707" on="0"/>
        <pt x="362" y="712" on="1"/>
        <pt x="342" y="708" on="0"/>
        <pt x="296" y="708" on="0"/>
        <pt x="249" y="711" on="0"/>
        <pt x="202" y="716" on="0"/>
        <pt x="149" y="719" on="0"/>
        <pt x="101" y="739" on="0"/>
        <pt x="92" y="756" on="1"/>
        <pt x="73" y="793" on="0"/>
        <pt x="134" y="845" on="1"/>
        <pt x="209" y="874" on="0"/>
        <pt x="313" y="869" on="1"/>
        <pt x="350" y="868" on="0"/>
        <pt x="420" y="873" on="0"/>
        <pt x="480" y="877" on="0"/>
        <pt x="529" y="877" on="0"/>
        <pt x="546" y="870" on="1"/>
        <pt x="580" y="855" on="0"/>
        <pt x="573" y="805" on="1"/>
        <pt x="572" y="801" on="0"/>
        <pt x="586" y="791" on="0"/>
        <pt x="603" y="779" on="0"/>
        <pt x="617" y="769" on="0"/>
        <pt x="616" y="765" on="1"/>
        <pt x="524" y="494" on="0"/>
        <pt x="389" y="5" on="1"/>
        <pt x="383" y="-24" on="0"/>
        <pt x="373" y="-80" on="0"/>
        <pt x="366" y="-104" on="1"/>
        <pt x="352" y="-159" on="0"/>
        <pt x="326" y="-171" on="1"/>
        <pt x="279" y="-193" on="0"/>
        <pt x="160" y="-196" on="1"/>
        <pt x="85" y="-198" on="0"/>
        <pt x="36" y="-180" on="1"/>
        <pt x="12" y="-170" on="0"/>
        <pt x="1" y="-154" on="1"/>
        <pt x="-9" y="-137" on="0"/>
        <pt x="0" y="-115" on="0"/>
        <pt x="14" y="-103" on="1"/>
        <pt x="42" y="-87" on="0"/>
        <pt x="127" y="-74" on="0"/>
        <pt x="162" y="-69" on="0"/>
        <pt x="165" y="-65" on="1"/>
        <pt x="191" y="-26" on="0"/>
        <pt x="224" y="90" on="1"/>
        <pt x="232" y="121" on="0"/>
        <pt x="254" y="208" on="0"/>
        <pt x="274" y="299" on="0"/>
      </contour>
    </TTGlyph>
    <TTGlyph name="breve" xMin="-19" yMin="611" xMax="498" yMax="901">
      <contour>
        <pt x="229" y="786" on="1"/>
        <pt x="247" y="768" on="0"/>
        <pt x="255" y="765" on="1"/>
        <pt x="304" y="765" on="0"/>
        <pt x="328" y="773" on="1"/>
        <pt x="343" y="790" on="0"/>
        <pt x="372" y="823" on="0"/>
        <pt x="389" y="837" on="1"/>
        <pt x="446" y="861" on="0"/>
        <pt x="481" y="834" on="1"/>
        <pt x="493" y="824" on="0"/>
        <pt x="498" y="806" on="1"/>
        <pt x="498" y="740" on="0"/>
        <pt x="418" y="694" on="1"/>
        <pt x="375" y="644" on="0"/>
        <pt x="282" y="614" on="0"/>
        <pt x="188" y="608" on="0"/>
        <pt x="142" y="618" on="1"/>
        <pt x="41" y="640" on="0"/>
        <pt x="-6" y="713" on="1"/>
        <pt x="-41" y="772" on="0"/>
        <pt x="-19" y="810" on="1"/>
        <pt x="-19" y="812" on="1"/>
        <pt x="-30" y="841" on="0"/>
        <pt x="6" y="888" on="0"/>
        <pt x="48" y="900" on="1"/>
        <pt x="123" y="922" on="0"/>
        <pt x="198" y="877" on="1"/>
        <pt x="214" y="862" on="0"/>
        <pt x="223" y="840" on="0"/>
        <pt x="229" y="816" on="0"/>
        <pt x="238" y="800" on="0"/>
        <pt x="245" y="785" on="0"/>
        <pt x="247" y="776" on="0"/>
        <pt x="242" y="778" on="1"/>
        <pt x="235" y="781" on="0"/>
        <pt x="230" y="794" on="1"/>
      </contour>
    </TTGlyph>
    <TTGlyph name="bullet" xMin="46" yMin="253" xMax="387" yMax="540">
      <contour>
        <pt x="322" y="538" on="0"/>
        <pt x="330" y="540" on="0"/>
        <pt x="357" y="526" on="0"/>
        <pt x="382" y="499" on="0"/>
        <pt x="387" y="486" on="1"/>
        <pt x="396" y="462" on="0"/>
        <pt x="386" y="436" on="1"/>
        <pt x="388" y="408" on="0"/>
        <pt x="355" y="384" on="1"/>
        <pt x="353" y="382" on="0"/>
        <pt x="350" y="369" on="0"/>
        <pt x="343" y="359" on="1"/>
        <pt x="344" y="345" on="0"/>
        <pt x="349" y="319" on="0"/>
        <pt x="348" y="302" on="1"/>
        <pt x="350" y="284" on="0"/>
        <pt x="308" y="260" on="0"/>
        <pt x="243" y="251" on="0"/>
        <pt x="164" y="256" on="0"/>
        <pt x="130" y="268" on="1"/>
        <pt x="29" y="301" on="0"/>
        <pt x="46" y="379" on="1"/>
        <pt x="50" y="395" on="0"/>
        <pt x="52" y="409" on="1"/>
        <pt x="59" y="462" on="0"/>
        <pt x="112" y="515" on="0"/>
        <pt x="154" y="530" on="1"/>
        <pt x="254" y="563" on="0"/>
        <pt x="317" y="540" on="1"/>
      </contour>
    </TTGlyph>
    <TTGlyph name="c" xMin="22" yMin="-53" xMax="473" yMax="491">
      <contour>
        <pt x="410" y="491" on="1"/>
        <pt x="449" y="486" on="0"/>
        <pt x="476" y="441" on="0"/>
        <pt x="470" y="390" on="0"/>
        <pt x="439" y="349" on="0"/>
        <pt x="420" y="348" on="1"/>
        <pt x="413" y="327" on="0"/>
        <pt x="383" y="311" on="0"/>
        <pt x="347" y="305" on="0"/>
        <pt x="308" y="298" on="0"/>
        <pt x="274" y="270" on="0"/>
        <pt x="251" y="243" on="0"/>
        <pt x="244" y="230" on="1"/>
        <pt x="232" y="208" on="0"/>
        <pt x="223" y="176" on="1"/>
        <pt x="221" y="154" on="0"/>
        <pt x="244" y="135" on="1"/>
        <pt x="271" y="114" on="0"/>
        <pt x="335" y="119" on="0"/>
        <pt x="374" y="108" on="0"/>
        <pt x="384" y="98" on="1"/>
        <pt x="406" y="75" on="0"/>
        <pt x="380" y="45" on="1"/>
        <pt x="330" y="-35" on="0"/>
        <pt x="212" y="-50" on="1"/>
        <pt x="177" y="-55" on="0"/>
        <pt x="107" y="-50" on="0"/>
        <pt x="41" y="-2" on="0"/>
        <pt x="22" y="39" on="1"/>
        <pt x="-20" y="133" on="0"/>
        <pt x="29" y="258" on="1"/>
        <pt x="76" y="375" on="0"/>
        <pt x="170" y="438" on="1"/>
        <pt x="273" y="508" on="0"/>
      </contour>
    </TTGlyph>
    <TTGlyph name="caron" xMin="66" yMin="526" xMax="425" yMax="855">
      <contour>
        <pt x="128" y="594" on="1"/>
        <pt x="125" y="610" on="1"/>
        <pt x="105" y="662" on="0"/>
        <pt x="92" y="728" on="1"/>
        <pt x="69" y="778" on="0"/>
        <pt x="65" y="824" on="0"/>
        <pt x="82" y="852" on="0"/>
        <pt x="104" y="855" on="1"/>
        <pt x="150" y="861" on="0"/>
        <pt x="166" y="832" on="1"/>
        <pt x="168" y="824" on="0"/>
        <pt x="167" y="810" on="0"/>
        <pt x="167" y="803" on="1"/>
        <pt x="173" y="782" on="0"/>
        <pt x="197" y="744" on="0"/>
        <pt x="208" y="726" on="1"/>
        <pt x="247" y="774" on="0"/>
        <pt x="267" y="791" on="1"/>
        <pt x="304" y="814" on="0"/>
        <pt x="345" y="811" on="1"/>
        <pt x="392" y="813" on="0"/>
        <pt x="418" y="792" on="1"/>
        <pt x="446" y="767" on="0"/>
        <pt x="425" y="727" on="1"/>
        <pt x="359" y="648" on="0"/>
        <pt x="284" y="582" on="0"/>
        <pt x="245" y="553" on="0"/>
        <pt x="215" y="529" on="0"/>
        <pt x="194" y="526" on="1"/>
        <pt x="144" y="519" on="0"/>
        <pt x="117" y="550" on="1"/>
        <pt x="107" y="574" on="0"/>
      </contour>
    </TTGlyph>
    <TTGlyph name="ccedilla" xMin="-25" yMin="-317" xMax="473" yMax="491">
      <component glyphName="c" x="0" y="0" flags="0x1004"/>
      <component glyphName="cedilla" x="-13" y="-50" scalex="0.877502441406" scaley="0.878845214844" flags="0x1004"/>
    </TTGlyph>
    <TTGlyph name="cedilla" xMin="-13" yMin="-304" xMax="375" yMax="64">
      <contour>
        <pt x="127" y="-162" on="1"/>
        <pt x="137" y="-160" on="0"/>
        <pt x="144" y="-161" on="1"/>
        <pt x="145" y="-161" on="1"/>
        <pt x="221" y="-157" on="0"/>
        <pt x="278" y="-127" on="0"/>
        <pt x="253" y="-113" on="1"/>
        <pt x="229" y="-113" on="0"/>
        <pt x="172" y="-111" on="0"/>
        <pt x="150" y="-102" on="1"/>
        <pt x="98" y="-80" on="0"/>
        <pt x="123" y="-17" on="1"/>
        <pt x="135" y="4" on="0"/>
        <pt x="146" y="17" on="1"/>
        <pt x="154" y="30" on="0"/>
        <pt x="171" y="48" on="1"/>
        <pt x="197" y="69" on="0"/>
        <pt x="222" y="64" on="1"/>
        <pt x="248" y="58" on="0"/>
        <pt x="235" y="19" on="1"/>
        <pt x="230" y="13" on="1"/>
        <pt x="232" y="14" on="0"/>
        <pt x="221" y="-8" on="0"/>
        <pt x="216" y="-19" on="1"/>
        <pt x="231" y="-21" on="0"/>
        <pt x="266" y="-33" on="0"/>
        <pt x="281" y="-36" on="1"/>
        <pt x="301" y="-43" on="0"/>
        <pt x="335" y="-55" on="0"/>
        <pt x="348" y="-64" on="1"/>
        <pt x="373" y="-84" on="0"/>
        <pt x="375" y="-128" on="1"/>
        <pt x="380" y="-168" on="0"/>
        <pt x="341" y="-210" on="1"/>
        <pt x="321" y="-231" on="0"/>
        <pt x="261" y="-269" on="1"/>
        <pt x="197" y="-305" on="0"/>
        <pt x="92" y="-304" on="1"/>
        <pt x="63" y="-303" on="0"/>
        <pt x="42" y="-297" on="1"/>
        <pt x="20" y="-295" on="0"/>
        <pt x="-15" y="-257" on="0"/>
        <pt x="-13" y="-215" on="1"/>
        <pt x="-2" y="-176" on="0"/>
        <pt x="5" y="-167" on="1"/>
        <pt x="19" y="-148" on="0"/>
        <pt x="50" y="-139" on="1"/>
        <pt x="78" y="-130" on="0"/>
        <pt x="100" y="-141" on="0"/>
        <pt x="115" y="-154" on="0"/>
      </contour>
    </TTGlyph>
    <TTGlyph name="cent" xMin="12" yMin="-152" xMax="459" yMax="645">
      <contour>
        <pt x="397" y="485" on="1"/>
        <pt x="446" y="474" on="0"/>
        <pt x="458" y="435" on="1"/>
        <pt x="470" y="398" on="0"/>
        <pt x="454" y="369" on="1"/>
        <pt x="436" y="338" on="0"/>
        <pt x="409" y="348" on="1"/>
        <pt x="402" y="321" on="0"/>
        <pt x="372" y="298" on="0"/>
        <pt x="334" y="288" on="0"/>
        <pt x="294" y="279" on="0"/>
        <pt x="260" y="251" on="0"/>
        <pt x="238" y="230" on="0"/>
        <pt x="232" y="221" on="1"/>
        <pt x="220" y="205" on="0"/>
        <pt x="212" y="176" on="1"/>
        <pt x="210" y="155" on="0"/>
        <pt x="234" y="135" on="1"/>
        <pt x="260" y="114" on="0"/>
        <pt x="325" y="119" on="0"/>
        <pt x="364" y="108" on="0"/>
        <pt x="374" y="98" on="1"/>
        <pt x="396" y="75" on="0"/>
        <pt x="370" y="45" on="1"/>
        <pt x="320" y="-35" on="0"/>
        <pt x="202" y="-50" on="1"/>
        <pt x="167" y="-55" on="0"/>
        <pt x="97" y="-50" on="0"/>
        <pt x="31" y="-2" on="0"/>
        <pt x="12" y="39" on="1"/>
        <pt x="-31" y="133" on="0"/>
        <pt x="18" y="258" on="1"/>
        <pt x="65" y="377" on="0"/>
        <pt x="162" y="442" on="1"/>
        <pt x="267" y="514" on="0"/>
      </contour>
      <contour>
        <pt x="239" y="540" on="0"/>
        <pt x="254" y="565" on="0"/>
        <pt x="287" y="602" on="0"/>
        <pt x="322" y="643" on="0"/>
        <pt x="351" y="645" on="1"/>
        <pt x="364" y="637" on="0"/>
        <pt x="396" y="633" on="0"/>
        <pt x="423" y="625" on="0"/>
        <pt x="439" y="607" on="0"/>
        <pt x="436" y="585" on="1"/>
        <pt x="371" y="499" on="0"/>
        <pt x="263" y="344" on="0"/>
        <pt x="199" y="190" on="0"/>
        <pt x="188" y="31" on="0"/>
        <pt x="221" y="-58" on="1"/>
        <pt x="216" y="-66" on="0"/>
        <pt x="195" y="-100" on="0"/>
        <pt x="180" y="-116" on="1"/>
        <pt x="140" y="-157" on="0"/>
        <pt x="103" y="-145" on="1"/>
        <pt x="83" y="-157" on="0"/>
        <pt x="67" y="-147" on="0"/>
        <pt x="62" y="-119" on="0"/>
        <pt x="66" y="-85" on="0"/>
        <pt x="70" y="-4" on="0"/>
        <pt x="94" y="129" on="0"/>
        <pt x="112" y="193" on="1"/>
        <pt x="140" y="292" on="0"/>
        <pt x="208" y="464" on="0"/>
        <pt x="225" y="507" on="0"/>
      </contour>
    </TTGlyph>
    <TTGlyph name="circumflex" xMin="27" yMin="461" xMax="386" yMax="792">
      <contour>
        <pt x="281" y="494" on="1"/>
        <pt x="281" y="506" on="0"/>
        <pt x="286" y="523" on="1"/>
        <pt x="284" y="543" on="0"/>
        <pt x="267" y="573" on="0"/>
        <pt x="259" y="588" on="1"/>
        <pt x="212" y="530" on="0"/>
        <pt x="188" y="506" on="1"/>
        <pt x="148" y="474" on="0"/>
        <pt x="106" y="463" on="1"/>
        <pt x="60" y="445" on="0"/>
        <pt x="38" y="462" on="1"/>
        <pt x="27" y="469" on="0"/>
        <pt x="27" y="500" on="0"/>
        <pt x="42" y="524" on="1"/>
        <pt x="130" y="629" on="0"/>
        <pt x="210" y="709" on="0"/>
        <pt x="255" y="750" on="0"/>
        <pt x="290" y="783" on="0"/>
        <pt x="311" y="792" on="1"/>
        <pt x="364" y="815" on="0"/>
        <pt x="384" y="791" on="1"/>
        <pt x="390" y="769" on="0"/>
        <pt x="364" y="743" on="1"/>
        <pt x="364" y="728" on="1"/>
        <pt x="375" y="680" on="0"/>
        <pt x="375" y="620" on="1"/>
        <pt x="379" y="605" on="0"/>
        <pt x="388" y="569" on="0"/>
        <pt x="386" y="550" on="1"/>
        <pt x="381" y="507" on="0"/>
        <pt x="335" y="487" on="1"/>
        <pt x="316" y="480" on="0"/>
        <pt x="287" y="480" on="0"/>
      </contour>
    </TTGlyph>
    <TTGlyph name="colon" xMin="37" yMin="78" xMax="374" yMax="516">
      <contour>
        <pt x="366" y="484" on="0"/>
        <pt x="382" y="441" on="0"/>
        <pt x="354" y="388" on="0"/>
        <pt x="300" y="358" on="0"/>
        <pt x="239" y="347" on="0"/>
        <pt x="177" y="352" on="0"/>
        <pt x="154" y="364" on="1"/>
        <pt x="102" y="390" on="0"/>
        <pt x="122" y="447" on="1"/>
        <pt x="151" y="505" on="0"/>
        <pt x="227" y="516" on="1"/>
        <pt x="298" y="526" on="0"/>
        <pt x="344" y="498" on="1"/>
      </contour>
      <contour>
        <pt x="288" y="194" on="1"/>
        <pt x="280" y="135" on="0"/>
        <pt x="220" y="100" on="1"/>
        <pt x="164" y="67" on="0"/>
        <pt x="107" y="78" on="1"/>
        <pt x="80" y="83" on="0"/>
        <pt x="41" y="117" on="0"/>
        <pt x="37" y="148" on="1"/>
        <pt x="40" y="124" on="1"/>
        <pt x="35" y="155" on="0"/>
        <pt x="73" y="205" on="0"/>
        <pt x="133" y="240" on="0"/>
        <pt x="204" y="257" on="0"/>
        <pt x="262" y="252" on="0"/>
        <pt x="295" y="224" on="0"/>
        <pt x="287" y="197" on="1"/>
      </contour>
    </TTGlyph>
    <TTGlyph name="comma" xMin="6" yMin="-162" xMax="264" yMax="106">
      <contour>
        <pt x="233" y="68" on="0"/>
        <pt x="239" y="61" on="0"/>
        <pt x="241" y="57" on="1"/>
        <pt x="259" y="39" on="1"/>
        <pt x="258" y="27" on="0"/>
        <pt x="265" y="3" on="0"/>
        <pt x="262" y="-32" on="0"/>
        <pt x="230" y="-76" on="0"/>
        <pt x="209" y="-94" on="1"/>
        <pt x="170" y="-144" on="0"/>
        <pt x="116" y="-162" on="1"/>
        <pt x="57" y="-182" on="0"/>
        <pt x="13" y="-145" on="1"/>
        <pt x="6" y="-131" on="0"/>
        <pt x="6" y="-116" on="0"/>
        <pt x="13" y="-103" on="1"/>
        <pt x="18" y="-90" on="0"/>
        <pt x="41" y="-56" on="0"/>
        <pt x="51" y="-41" on="1"/>
        <pt x="46" y="-37" on="1"/>
        <pt x="44" y="-39" on="1"/>
        <pt x="41" y="-40" on="0"/>
        <pt x="41" y="-33" on="1"/>
        <pt x="38" y="-31" on="0"/>
        <pt x="31" y="-24" on="1"/>
        <pt x="30" y="-24" on="1"/>
        <pt x="22" y="-17" on="1"/>
        <pt x="20" y="-12" on="1"/>
        <pt x="-8" y="40" on="0"/>
        <pt x="28" y="73" on="1"/>
        <pt x="67" y="110" on="0"/>
        <pt x="141" y="106" on="1"/>
        <pt x="159" y="105" on="0"/>
        <pt x="196" y="93" on="1"/>
        <pt x="203" y="86" on="0"/>
        <pt x="216" y="76" on="0"/>
        <pt x="221" y="72" on="1"/>
        <pt x="225" y="75" on="1"/>
        <pt x="230" y="72" on="1"/>
      </contour>
    </TTGlyph>
    <TTGlyph name="copyright" xMin="33" yMin="0" xMax="843" yMax="755">
      <contour>
        <pt x="830" y="350" on="1"/>
        <pt x="808" y="133" on="0"/>
        <pt x="655" y="53" on="1"/>
        <pt x="539" y="-8" on="0"/>
        <pt x="355" y="0" on="1"/>
        <pt x="269" y="-2" on="0"/>
        <pt x="178" y="50" on="1"/>
        <pt x="90" y="100" on="0"/>
        <pt x="56" y="161" on="1"/>
        <pt x="35" y="224" on="0"/>
        <pt x="34" y="270" on="1"/>
        <pt x="28" y="434" on="0"/>
        <pt x="85" y="551" on="1"/>
        <pt x="121" y="626" on="0"/>
        <pt x="170" y="654" on="1"/>
        <pt x="292" y="727" on="0"/>
        <pt x="371" y="747" on="1"/>
        <pt x="407" y="756" on="0"/>
        <pt x="493" y="753" on="0"/>
        <pt x="581" y="746" on="0"/>
        <pt x="622" y="735" on="1"/>
        <pt x="708" y="712" on="0"/>
        <pt x="777" y="646" on="1"/>
        <pt x="858" y="570" on="0"/>
        <pt x="842" y="428" on="1"/>
        <pt x="838" y="387" on="0"/>
      </contour>
      <contour>
        <pt x="404" y="126" on="1"/>
        <pt x="447" y="124" on="0"/>
        <pt x="536" y="151" on="0"/>
        <pt x="611" y="200" on="0"/>
        <pt x="673" y="265" on="0"/>
        <pt x="694" y="300" on="1"/>
        <pt x="739" y="374" on="0"/>
        <pt x="739" y="436" on="1"/>
        <pt x="739" y="530" on="0"/>
        <pt x="688" y="593" on="1"/>
        <pt x="671" y="615" on="0"/>
        <pt x="643" y="628" on="0"/>
        <pt x="637" y="632" on="0"/>
        <pt x="633" y="634" on="1"/>
        <pt x="625" y="614" on="0"/>
        <pt x="578" y="599" on="0"/>
        <pt x="531" y="598" on="1"/>
        <pt x="464" y="605" on="0"/>
        <pt x="400" y="598" on="0"/>
        <pt x="310" y="544" on="0"/>
        <pt x="237" y="464" on="0"/>
        <pt x="190" y="364" on="0"/>
        <pt x="189" y="313" on="1"/>
        <pt x="175" y="232" on="0"/>
        <pt x="250" y="178" on="1"/>
        <pt x="314" y="132" on="0"/>
      </contour>
      <contour>
        <pt x="524" y="372" on="1"/>
        <pt x="518" y="372" on="0"/>
        <pt x="488" y="384" on="1"/>
        <pt x="461" y="362" on="0"/>
        <pt x="456" y="339" on="1"/>
        <pt x="454" y="330" on="0"/>
        <pt x="446" y="325" on="1"/>
        <pt x="445" y="324" on="1"/>
        <pt x="436" y="284" on="0"/>
        <pt x="460" y="273" on="1"/>
        <pt x="476" y="266" on="0"/>
        <pt x="500" y="266" on="1"/>
        <pt x="501" y="266" on="1"/>
        <pt x="504" y="268" on="0"/>
        <pt x="506" y="271" on="1"/>
        <pt x="516" y="278" on="0"/>
        <pt x="544" y="282" on="1"/>
        <pt x="589" y="282" on="0"/>
        <pt x="602" y="257" on="1"/>
        <pt x="606" y="248" on="0"/>
        <pt x="602" y="234" on="1"/>
        <pt x="586" y="208" on="0"/>
        <pt x="555" y="198" on="1"/>
        <pt x="470" y="149" on="0"/>
        <pt x="381" y="182" on="1"/>
        <pt x="313" y="206" on="0"/>
        <pt x="288" y="263" on="1"/>
        <pt x="265" y="318" on="0"/>
        <pt x="310" y="398" on="1"/>
        <pt x="329" y="432" on="0"/>
        <pt x="357" y="458" on="1"/>
        <pt x="403" y="508" on="0"/>
        <pt x="464" y="526" on="1"/>
        <pt x="526" y="543" on="0"/>
        <pt x="582" y="520" on="1"/>
        <pt x="613" y="515" on="0"/>
        <pt x="656" y="489" on="0"/>
        <pt x="652" y="463" on="1"/>
        <pt x="655" y="461" on="1"/>
        <pt x="656" y="423" on="0"/>
        <pt x="624" y="380" on="0"/>
        <pt x="600" y="372" on="1"/>
        <pt x="565" y="350" on="0"/>
      </contour>
      <contour>
        <pt x="588" y="223" on="1"/>
        <pt x="591" y="227" on="1"/>
        <pt x="590" y="227" on="1"/>
      </contour>
      <contour>
        <pt x="505" y="267" on="1"/>
        <pt x="504" y="267" on="1"/>
        <pt x="505" y="268" on="0"/>
      </contour>
    </TTGlyph>
    <TTGlyph name="d" xMin="-6" yMin="-50" xMax="655" yMax="784">
      <contour>
        <pt x="203" y="409" on="1"/>
        <pt x="240" y="434" on="0"/>
        <pt x="288" y="424" on="1"/>
        <pt x="336" y="413" on="0"/>
        <pt x="342" y="382" on="1"/>
        <pt x="350" y="401" on="0"/>
        <pt x="354" y="420" on="1"/>
        <pt x="399" y="623" on="0"/>
        <pt x="453" y="730" on="1"/>
        <pt x="470" y="763" on="0"/>
        <pt x="488" y="776" on="1"/>
        <pt x="535" y="806" on="0"/>
        <pt x="587" y="784" on="1"/>
        <pt x="608" y="775" on="0"/>
        <pt x="632" y="744" on="0"/>
        <pt x="627" y="718" on="0"/>
        <pt x="636" y="702" on="0"/>
        <pt x="642" y="694" on="1"/>
        <pt x="658" y="675" on="0"/>
        <pt x="655" y="661" on="1"/>
        <pt x="635" y="582" on="0"/>
        <pt x="568" y="413" on="0"/>
        <pt x="498" y="245" on="0"/>
        <pt x="441" y="82" on="0"/>
        <pt x="432" y="9" on="1"/>
        <pt x="432" y="-10" on="0"/>
        <pt x="400" y="-41" on="0"/>
        <pt x="376" y="-50" on="1"/>
        <pt x="319" y="-70" on="0"/>
        <pt x="270" y="-42" on="1"/>
        <pt x="270" y="-36" on="1"/>
        <pt x="260" y="-33" on="0"/>
        <pt x="251" y="-31" on="0"/>
        <pt x="249" y="-28" on="1"/>
        <pt x="246" y="-23" on="0"/>
        <pt x="244" y="3" on="1"/>
        <pt x="224" y="-28" on="0"/>
        <pt x="186" y="-42" on="0"/>
        <pt x="166" y="-42" on="1"/>
        <pt x="69" y="-42" on="0"/>
        <pt x="28" y="-7" on="1"/>
        <pt x="-8" y="23" on="0"/>
        <pt x="-6" y="91" on="1"/>
        <pt x="-4" y="167" on="0"/>
        <pt x="50" y="261" on="1"/>
        <pt x="112" y="368" on="0"/>
      </contour>
      <contour>
        <pt x="202" y="81" on="1"/>
        <pt x="234" y="70" on="0"/>
        <pt x="246" y="96" on="1"/>
        <pt x="253" y="109" on="0"/>
        <pt x="266" y="151" on="0"/>
        <pt x="276" y="179" on="1"/>
        <pt x="280" y="199" on="1"/>
        <pt x="256" y="213" on="0"/>
        <pt x="217" y="193" on="0"/>
        <pt x="193" y="151" on="0"/>
        <pt x="189" y="99" on="0"/>
      </contour>
    </TTGlyph>
    <TTGlyph name="dagger" xMin="-93" yMin="-129" xMax="476" yMax="887">
      <contour>
        <pt x="141" y="778" on="0"/>
        <pt x="155" y="815" on="0"/>
        <pt x="185" y="849" on="0"/>
        <pt x="227" y="880" on="0"/>
        <pt x="246" y="886" on="1"/>
        <pt x="292" y="902" on="0"/>
        <pt x="297" y="858" on="1"/>
        <pt x="301" y="847" on="0"/>
        <pt x="320" y="844" on="0"/>
        <pt x="328" y="841" on="1"/>
        <pt x="349" y="834" on="0"/>
        <pt x="343" y="786" on="1"/>
        <pt x="331" y="721" on="0"/>
        <pt x="318" y="540" on="0"/>
        <pt x="304" y="432" on="1"/>
        <pt x="271" y="161" on="0"/>
        <pt x="180" y="-47" on="1"/>
        <pt x="174" y="-58" on="0"/>
        <pt x="157" y="-93" on="0"/>
        <pt x="144" y="-108" on="1"/>
        <pt x="110" y="-145" on="0"/>
        <pt x="59" y="-129" on="1"/>
        <pt x="59" y="-107" on="0"/>
        <pt x="10" y="-51" on="0"/>
        <pt x="10" y="-27" on="1"/>
        <pt x="49" y="104" on="0"/>
        <pt x="72" y="298" on="1"/>
        <pt x="82" y="378" on="0"/>
        <pt x="99" y="541" on="0"/>
        <pt x="123" y="667" on="0"/>
        <pt x="132" y="730" on="0"/>
      </contour>
      <contour>
        <pt x="195" y="336" on="1"/>
        <pt x="4" y="339" on="1"/>
        <pt x="2" y="338" on="0"/>
        <pt x="-2" y="338" on="0"/>
        <pt x="-5" y="337" on="1"/>
        <pt x="-6" y="339" on="1"/>
        <pt x="-38" y="339" on="0"/>
        <pt x="-85" y="362" on="0"/>
        <pt x="-100" y="395" on="0"/>
        <pt x="-77" y="432" on="0"/>
        <pt x="-39" y="446" on="1"/>
        <pt x="-21" y="448" on="1"/>
        <pt x="-6" y="503" on="0"/>
        <pt x="118" y="518" on="1"/>
        <pt x="118" y="518" on="0"/>
        <pt x="176" y="520" on="1"/>
        <pt x="176" y="520" on="0"/>
        <pt x="221" y="520" on="1"/>
        <pt x="245" y="520" on="0"/>
        <pt x="269" y="519" on="1"/>
        <pt x="277" y="521" on="0"/>
        <pt x="295" y="522" on="0"/>
        <pt x="346" y="531" on="0"/>
        <pt x="422" y="516" on="0"/>
        <pt x="472" y="479" on="0"/>
        <pt x="480" y="423" on="0"/>
        <pt x="448" y="387" on="1"/>
        <pt x="431" y="381" on="0"/>
        <pt x="399" y="364" on="0"/>
        <pt x="371" y="354" on="1"/>
        <pt x="316" y="336" on="0"/>
      </contour>
    </TTGlyph>
    <TTGlyph name="daggerdbl" xMin="-115" yMin="-138" xMax="454" yMax="886">
      <contour>
        <pt x="132" y="773" on="0"/>
        <pt x="144" y="811" on="0"/>
        <pt x="172" y="846" on="0"/>
        <pt x="213" y="878" on="0"/>
        <pt x="232" y="886" on="1"/>
        <pt x="277" y="903" on="0"/>
        <pt x="284" y="859" on="1"/>
        <pt x="288" y="848" on="0"/>
        <pt x="307" y="846" on="0"/>
        <pt x="316" y="844" on="1"/>
        <pt x="338" y="837" on="0"/>
        <pt x="333" y="788" on="1"/>
        <pt x="324" y="723" on="0"/>
        <pt x="305" y="541" on="0"/>
        <pt x="287" y="432" on="1"/>
        <pt x="244" y="167" on="0"/>
        <pt x="160" y="-51" on="1"/>
        <pt x="154" y="-62" on="0"/>
        <pt x="140" y="-98" on="0"/>
        <pt x="128" y="-114" on="1"/>
        <pt x="97" y="-154" on="0"/>
        <pt x="43" y="-138" on="1"/>
        <pt x="43" y="-123" on="0"/>
        <pt x="27" y="-100" on="0"/>
        <pt x="17" y="-88" on="1"/>
        <pt x="-9" y="-59" on="0"/>
        <pt x="-10" y="-37" on="1"/>
        <pt x="51" y="205" on="0"/>
        <pt x="88" y="452" on="1"/>
        <pt x="117" y="636" on="0"/>
        <pt x="125" y="724" on="0"/>
      </contour>
      <contour>
        <pt x="115" y="124" on="0"/>
        <pt x="33" y="119" on="0"/>
        <pt x="-57" y="107" on="0"/>
        <pt x="-106" y="135" on="0"/>
        <pt x="-123" y="178" on="0"/>
        <pt x="-102" y="224" on="0"/>
        <pt x="-28" y="258" on="0"/>
        <pt x="70" y="274" on="0"/>
        <pt x="171" y="282" on="0"/>
        <pt x="272" y="288" on="0"/>
        <pt x="371" y="309" on="0"/>
        <pt x="424" y="277" on="0"/>
        <pt x="422" y="223" on="0"/>
        <pt x="367" y="165" on="0"/>
        <pt x="312" y="150" on="1"/>
        <pt x="237" y="134" on="0"/>
      </contour>
      <contour>
        <pt x="328" y="433" on="1"/>
        <pt x="292" y="433" on="1"/>
        <pt x="286" y="433" on="0"/>
        <pt x="300" y="434" on="0"/>
        <pt x="331" y="436" on="1"/>
        <pt x="334" y="436" on="0"/>
        <pt x="323" y="437" on="0"/>
        <pt x="306" y="436" on="0"/>
        <pt x="287" y="435" on="0"/>
        <pt x="283" y="434" on="1"/>
        <pt x="271" y="432" on="1"/>
        <pt x="240" y="377" on="0"/>
        <pt x="97" y="374" on="1"/>
        <pt x="62" y="374" on="0"/>
        <pt x="37" y="376" on="1"/>
        <pt x="-11" y="384" on="0"/>
        <pt x="-54" y="436" on="0"/>
        <pt x="-32" y="462" on="1"/>
        <pt x="-29" y="484" on="0"/>
        <pt x="15" y="501" on="1"/>
        <pt x="38" y="512" on="0"/>
        <pt x="91" y="523" on="0"/>
        <pt x="172" y="543" on="0"/>
        <pt x="285" y="570" on="0"/>
        <pt x="343" y="573" on="1"/>
        <pt x="401" y="570" on="0"/>
        <pt x="456" y="526" on="0"/>
        <pt x="451" y="477" on="0"/>
        <pt x="387" y="435" on="0"/>
      </contour>
    </TTGlyph>
    <TTGlyph name="degree" xMin="-7" yMin="551" xMax="448" yMax="878">
      <contour>
        <pt x="165" y="860" on="1"/>
        <pt x="197" y="873" on="0"/>
        <pt x="228" y="878" on="1"/>
        <pt x="257" y="876" on="0"/>
        <pt x="321" y="876" on="0"/>
        <pt x="393" y="842" on="0"/>
        <pt x="443" y="779" on="0"/>
        <pt x="448" y="743" on="1"/>
        <pt x="457" y="665" on="0"/>
        <pt x="382" y="600" on="1"/>
        <pt x="349" y="573" on="0"/>
        <pt x="284" y="559" on="1"/>
        <pt x="233" y="548" on="0"/>
        <pt x="135" y="554" on="0"/>
        <pt x="91" y="561" on="0"/>
        <pt x="74" y="571" on="0"/>
        <pt x="56" y="582" on="0"/>
        <pt x="48" y="586" on="1"/>
        <pt x="-12" y="623" on="0"/>
        <pt x="-7" y="697" on="1"/>
        <pt x="-3" y="760" on="0"/>
        <pt x="39" y="806" on="1"/>
        <pt x="54" y="823" on="0"/>
        <pt x="79" y="831" on="0"/>
        <pt x="136" y="856" on="0"/>
      </contour>
      <contour>
        <pt x="265" y="708" on="1"/>
        <pt x="248" y="704" on="0"/>
        <pt x="216" y="701" on="1"/>
        <pt x="209" y="703" on="0"/>
        <pt x="187" y="703" on="0"/>
        <pt x="177" y="704" on="1"/>
        <pt x="154" y="677" on="0"/>
        <pt x="163" y="654" on="1"/>
        <pt x="166" y="646" on="0"/>
        <pt x="188" y="634" on="0"/>
        <pt x="223" y="639" on="0"/>
        <pt x="238" y="648" on="1"/>
        <pt x="272" y="669" on="0"/>
        <pt x="266" y="703" on="1"/>
        <pt x="265" y="704" on="0"/>
      </contour>
    </TTGlyph>
    <TTGlyph name="dieresis" xMin="75" yMin="597" xMax="475" yMax="793">
      <contour>
        <pt x="242" y="641" on="0"/>
        <pt x="202" y="610" on="0"/>
        <pt x="158" y="597" on="0"/>
        <pt x="142" y="597" on="0"/>
        <pt x="120" y="601" on="1"/>
        <pt x="119" y="601" on="1"/>
        <pt x="117" y="603" on="1"/>
        <pt x="81" y="619" on="0"/>
        <pt x="69" y="667" on="0"/>
        <pt x="94" y="713" on="0"/>
        <pt x="143" y="749" on="0"/>
        <pt x="178" y="756" on="0"/>
        <pt x="191" y="757" on="0"/>
        <pt x="202" y="755" on="0"/>
        <pt x="215" y="752" on="0"/>
        <pt x="224" y="750" on="1"/>
        <pt x="227" y="747" on="1"/>
        <pt x="276" y="710" on="0"/>
        <pt x="252" y="662" on="1"/>
      </contour>
      <contour>
        <pt x="465" y="657" on="0"/>
        <pt x="424" y="620" on="0"/>
        <pt x="383" y="605" on="0"/>
        <pt x="371" y="605" on="0"/>
        <pt x="343" y="610" on="1"/>
        <pt x="342" y="610" on="1"/>
        <pt x="341" y="610" on="0"/>
        <pt x="339" y="612" on="1"/>
        <pt x="303" y="631" on="0"/>
        <pt x="291" y="688" on="0"/>
        <pt x="316" y="742" on="0"/>
        <pt x="365" y="785" on="0"/>
        <pt x="400" y="792" on="0"/>
        <pt x="413" y="793" on="0"/>
        <pt x="419" y="792" on="1"/>
        <pt x="426" y="792" on="0"/>
        <pt x="447" y="785" on="1"/>
        <pt x="497" y="735" on="0"/>
        <pt x="475" y="681" on="1"/>
      </contour>
    </TTGlyph>
    <TTGlyph name="dollar" xMin="-14" yMin="-193" xMax="686" yMax="916">
      <contour>
        <pt x="358" y="861" on="1"/>
        <pt x="383" y="900" on="0"/>
        <pt x="450" y="916" on="1"/>
        <pt x="520" y="932" on="0"/>
        <pt x="565" y="916" on="1"/>
        <pt x="588" y="907" on="0"/>
        <pt x="610" y="872" on="0"/>
        <pt x="600" y="845" on="1"/>
        <pt x="593" y="838" on="0"/>
        <pt x="584" y="817" on="0"/>
        <pt x="578" y="805" on="1"/>
        <pt x="563" y="772" on="0"/>
        <pt x="547" y="757" on="1"/>
        <pt x="596" y="751" on="0"/>
        <pt x="646" y="717" on="0"/>
        <pt x="667" y="702" on="1"/>
        <pt x="686" y="684" on="0"/>
        <pt x="685" y="667" on="0"/>
        <pt x="664" y="651" on="0"/>
        <pt x="635" y="628" on="0"/>
        <pt x="627" y="605" on="1"/>
        <pt x="633" y="573" on="0"/>
        <pt x="627" y="557" on="1"/>
        <pt x="614" y="521" on="0"/>
        <pt x="564" y="512" on="1"/>
        <pt x="531" y="507" on="0"/>
        <pt x="432" y="505" on="0"/>
        <pt x="387" y="502" on="0"/>
        <pt x="371" y="496" on="1"/>
        <pt x="335" y="484" on="0"/>
        <pt x="341" y="449" on="1"/>
        <pt x="343" y="437" on="0"/>
        <pt x="378" y="411" on="0"/>
        <pt x="426" y="379" on="0"/>
        <pt x="478" y="341" on="0"/>
        <pt x="498" y="316" on="1"/>
        <pt x="544" y="260" on="0"/>
        <pt x="528" y="193" on="1"/>
        <pt x="505" y="101" on="0"/>
        <pt x="414" y="35" on="1"/>
        <pt x="381" y="11" on="0"/>
        <pt x="337" y="-5" on="1"/>
        <pt x="334" y="-10" on="0"/>
        <pt x="327" y="-17" on="0"/>
        <pt x="325" y="-22" on="1"/>
        <pt x="317" y="-34" on="1"/>
        <pt x="307" y="-52" on="0"/>
        <pt x="289" y="-90" on="0"/>
        <pt x="276" y="-109" on="1"/>
        <pt x="274" y="-110" on="0"/>
        <pt x="274" y="-109" on="1"/>
        <pt x="270" y="-135" on="0"/>
        <pt x="235" y="-178" on="0"/>
        <pt x="191" y="-198" on="0"/>
        <pt x="145" y="-188" on="0"/>
        <pt x="130" y="-162" on="1"/>
        <pt x="129" y="-162" on="1"/>
        <pt x="129" y="-28" on="1"/>
        <pt x="43" y="-17" on="0"/>
        <pt x="6" y="45" on="1"/>
        <pt x="-11" y="72" on="0"/>
        <pt x="-17" y="133" on="0"/>
        <pt x="-6" y="159" on="1"/>
        <pt x="11" y="183" on="0"/>
        <pt x="68" y="196" on="0"/>
        <pt x="132" y="196" on="0"/>
        <pt x="196" y="194" on="0"/>
        <pt x="220" y="202" on="1"/>
        <pt x="295" y="220" on="0"/>
        <pt x="319" y="237" on="0"/>
        <pt x="309" y="245" on="0"/>
        <pt x="287" y="253" on="0"/>
        <pt x="259" y="263" on="0"/>
        <pt x="247" y="271" on="1"/>
        <pt x="138" y="324" on="0"/>
        <pt x="103" y="428" on="1"/>
        <pt x="90" y="467" on="0"/>
        <pt x="99" y="558" on="0"/>
        <pt x="130" y="625" on="0"/>
        <pt x="152" y="650" on="1"/>
        <pt x="199" y="707" on="0"/>
        <pt x="298" y="742" on="1"/>
        <pt x="321" y="750" on="0"/>
        <pt x="342" y="755" on="1"/>
        <pt x="344" y="787" on="0"/>
        <pt x="344" y="813" on="0"/>
        <pt x="345" y="826" on="0"/>
        <pt x="351" y="840" on="0"/>
      </contour>
    </TTGlyph>
    <TTGlyph name="dotaccent" xMin="1" yMin="591" xMax="212" yMax="779">
      <contour>
        <pt x="200" y="643" on="0"/>
        <pt x="153" y="606" on="0"/>
        <pt x="106" y="591" on="0"/>
        <pt x="89" y="591" on="0"/>
        <pt x="57" y="596" on="1"/>
        <pt x="56" y="596" on="1"/>
        <pt x="55" y="596" on="0"/>
        <pt x="53" y="598" on="1"/>
        <pt x="1" y="622" on="0"/>
        <pt x="1" y="664" on="1"/>
        <pt x="1" y="699" on="0"/>
        <pt x="38" y="734" on="1"/>
        <pt x="88" y="783" on="0"/>
        <pt x="146" y="778" on="1"/>
        <pt x="153" y="778" on="0"/>
        <pt x="179" y="771" on="1"/>
        <pt x="182" y="768" on="0"/>
        <pt x="183" y="768" on="1"/>
        <pt x="240" y="724" on="0"/>
        <pt x="212" y="667" on="1"/>
      </contour>
    </TTGlyph>
    <TTGlyph name="e" xMin="3" yMin="-53" xMax="470" yMax="490">
      <contour>
        <pt x="349" y="148" on="1"/>
        <pt x="330" y="139" on="0"/>
        <pt x="294" y="129" on="0"/>
        <pt x="270" y="124" on="1"/>
        <pt x="207" y="111" on="0"/>
        <pt x="179" y="109" on="1"/>
        <pt x="182" y="99" on="0"/>
        <pt x="209" y="85" on="1"/>
        <pt x="227" y="82" on="0"/>
        <pt x="270" y="99" on="0"/>
        <pt x="317" y="114" on="0"/>
        <pt x="362" y="116" on="0"/>
        <pt x="382" y="98" on="1"/>
        <pt x="390" y="80" on="0"/>
        <pt x="400" y="74" on="0"/>
        <pt x="408" y="74" on="0"/>
        <pt x="418" y="68" on="0"/>
        <pt x="437" y="28" on="0"/>
        <pt x="408" y="-8" on="0"/>
        <pt x="348" y="-34" on="0"/>
        <pt x="268" y="-50" on="0"/>
        <pt x="228" y="-53" on="1"/>
        <pt x="138" y="-60" on="0"/>
        <pt x="91" y="-39" on="1"/>
        <pt x="23" y="-16" on="0"/>
        <pt x="3" y="52" on="1"/>
        <pt x="-23" y="142" on="0"/>
        <pt x="32" y="262" on="1"/>
        <pt x="57" y="318" on="0"/>
        <pt x="111" y="382" on="1"/>
        <pt x="158" y="438" on="0"/>
        <pt x="216" y="463" on="1"/>
        <pt x="283" y="492" on="0"/>
        <pt x="356" y="490" on="1"/>
        <pt x="434" y="488" on="0"/>
        <pt x="464" y="422" on="1"/>
        <pt x="479" y="387" on="0"/>
        <pt x="470" y="324" on="1"/>
        <pt x="454" y="242" on="0"/>
        <pt x="428" y="208" on="1"/>
        <pt x="402" y="175" on="0"/>
      </contour>
      <contour>
        <pt x="291" y="306" on="1"/>
        <pt x="238" y="317" on="0"/>
        <pt x="208" y="246" on="1"/>
        <pt x="199" y="227" on="0"/>
        <pt x="194" y="206" on="1"/>
        <pt x="228" y="202" on="0"/>
        <pt x="266" y="244" on="1"/>
        <pt x="280" y="261" on="0"/>
        <pt x="294" y="296" on="0"/>
      </contour>
    </TTGlyph>
    <TTGlyph name="eacute" xMin="3" yMin="-53" xMax="507" yMax="780">
      <component glyphName="e" x="0" y="0" flags="0x1004"/>
      <component glyphName="acute" x="216" y="-90" flags="0x1004"/>
    </TTGlyph>
    <TTGlyph name="ecircumflex" xMin="3" yMin="-53" xMax="535" yMax="834">
      <component glyphName="e" x="0" y="0" flags="0x1004"/>
      <component glyphName="circumflex" x="149" y="42" flags="0x1004"/>
    </TTGlyph>
    <TTGlyph name="edieresis" xMin="3" yMin="-53" xMax="561" yMax="733">
      <component glyphName="e" x="0" y="0" flags="0x1004"/>
      <component glyphName="dieresis" x="86" y="-60" flags="0x1004"/>
    </TTGlyph>
    <TTGlyph name="egrave" xMin="3" yMin="-53" xMax="470" yMax="798">
      <component glyphName="e" x="0" y="0" flags="0x1004"/>
      <component glyphName="grave" x="204" y="-87" flags="0x1004"/>
    </TTGlyph>
    <TTGlyph name="eight" xMin="7" yMin="-92" xMax="665" yMax="809">
      <contour>
        <pt x="439" y="809" on="1"/>
        <pt x="483" y="809" on="0"/>
        <pt x="502" y="804" on="1"/>
        <pt x="545" y="791" on="0"/>
        <pt x="564" y="746" on="1"/>
        <pt x="623" y="757" on="0"/>
        <pt x="654" y="698" on="1"/>
        <pt x="684" y="640" on="0"/>
        <pt x="665" y="571" on="1"/>
        <pt x="640" y="470" on="0"/>
        <pt x="548" y="392" on="1"/>
        <pt x="520" y="369" on="0"/>
        <pt x="489" y="348" on="1"/>
        <pt x="526" y="322" on="0"/>
        <pt x="548" y="266" on="1"/>
        <pt x="566" y="217" on="0"/>
        <pt x="557" y="105" on="0"/>
        <pt x="502" y="14" on="0"/>
        <pt x="427" y="-47" on="0"/>
        <pt x="347" y="-81" on="0"/>
        <pt x="271" y="-89" on="0"/>
        <pt x="171" y="-94" on="0"/>
        <pt x="83" y="-69" on="0"/>
        <pt x="18" y="-2" on="0"/>
        <pt x="7" y="66" on="1"/>
        <pt x="-4" y="163" on="0"/>
        <pt x="40" y="236" on="1"/>
        <pt x="73" y="292" on="0"/>
        <pt x="148" y="340" on="1"/>
        <pt x="212" y="377" on="1"/>
        <pt x="163" y="435" on="0"/>
        <pt x="135" y="512" on="0"/>
        <pt x="133" y="574" on="0"/>
        <pt x="160" y="652" on="0"/>
        <pt x="220" y="727" on="0"/>
        <pt x="260" y="754" on="1"/>
        <pt x="346" y="813" on="0"/>
      </contour>
      <contour>
        <pt x="322" y="113" on="0"/>
        <pt x="351" y="127" on="0"/>
        <pt x="361" y="177" on="0"/>
        <pt x="338" y="222" on="0"/>
        <pt x="318" y="250" on="1"/>
        <pt x="294" y="241" on="1"/>
        <pt x="271" y="230" on="0"/>
        <pt x="271" y="227" on="1"/>
        <pt x="271" y="221" on="0"/>
        <pt x="233" y="195" on="0"/>
        <pt x="229" y="163" on="0"/>
        <pt x="249" y="136" on="0"/>
        <pt x="285" y="117" on="0"/>
      </contour>
      <contour>
        <pt x="445" y="609" on="1"/>
        <pt x="440" y="623" on="0"/>
        <pt x="416" y="623" on="0"/>
        <pt x="389" y="604" on="0"/>
        <pt x="363" y="570" on="0"/>
        <pt x="356" y="548" on="1"/>
        <pt x="338" y="499" on="0"/>
        <pt x="364" y="458" on="1"/>
        <pt x="367" y="453" on="1"/>
        <pt x="377" y="463" on="0"/>
        <pt x="399" y="479" on="0"/>
        <pt x="412" y="490" on="1"/>
        <pt x="441" y="518" on="0"/>
        <pt x="467" y="558" on="1"/>
        <pt x="473" y="565" on="0"/>
        <pt x="453" y="599" on="0"/>
        <pt x="452" y="604" on="1"/>
      </contour>
    </TTGlyph>
    <TTGlyph name="ellipsis" xMin="1" yMin="-114" xMax="689" yMax="74">
      <contour>
        <pt x="200" y="-62" on="0"/>
        <pt x="153" y="-99" on="0"/>
        <pt x="106" y="-114" on="0"/>
        <pt x="90" y="-114" on="0"/>
        <pt x="57" y="-109" on="1"/>
        <pt x="56" y="-109" on="1"/>
        <pt x="55" y="-109" on="0"/>
        <pt x="53" y="-107" on="1"/>
        <pt x="1" y="-83" on="0"/>
        <pt x="1" y="-42" on="1"/>
        <pt x="1" y="-6" on="0"/>
        <pt x="38" y="30" on="1"/>
        <pt x="88" y="78" on="0"/>
        <pt x="146" y="74" on="1"/>
        <pt x="153" y="73" on="0"/>
        <pt x="179" y="66" on="1"/>
        <pt x="182" y="63" on="0"/>
        <pt x="183" y="63" on="1"/>
        <pt x="240" y="19" on="0"/>
        <pt x="212" y="-38" on="1"/>
      </contour>
      <contour>
        <pt x="460" y="-54" on="0"/>
        <pt x="413" y="-86" on="0"/>
        <pt x="363" y="-99" on="0"/>
        <pt x="343" y="-99" on="0"/>
        <pt x="317" y="-95" on="1"/>
        <pt x="316" y="-95" on="1"/>
        <pt x="315" y="-95" on="0"/>
        <pt x="313" y="-93" on="1"/>
        <pt x="271" y="-76" on="0"/>
        <pt x="257" y="-27" on="0"/>
        <pt x="286" y="21" on="0"/>
        <pt x="344" y="59" on="0"/>
        <pt x="385" y="66" on="0"/>
        <pt x="400" y="67" on="0"/>
        <pt x="406" y="66" on="1"/>
        <pt x="422" y="64" on="0"/>
        <pt x="439" y="59" on="1"/>
        <pt x="441" y="57" on="0"/>
        <pt x="443" y="57" on="1"/>
        <pt x="474" y="36" on="0"/>
        <pt x="484" y="-12" on="0"/>
      </contour>
      <contour>
        <pt x="572" y="-68" on="1"/>
        <pt x="541" y="-56" on="0"/>
        <pt x="531" y="-19" on="0"/>
        <pt x="552" y="16" on="0"/>
        <pt x="594" y="43" on="0"/>
        <pt x="633" y="50" on="0"/>
        <pt x="648" y="47" on="0"/>
        <pt x="665" y="42" on="0"/>
        <pt x="667" y="42" on="1"/>
        <pt x="708" y="12" on="0"/>
        <pt x="688" y="-24" on="1"/>
        <pt x="671" y="-56" on="0"/>
        <pt x="626" y="-68" on="1"/>
        <pt x="608" y="-73" on="0"/>
        <pt x="593" y="-72" on="0"/>
        <pt x="575" y="-70" on="1"/>
        <pt x="574" y="-70" on="1"/>
      </contour>
    </TTGlyph>
    <TTGlyph name="emdash" xMin="-3" yMin="239" xMax="752" yMax="438">
      <contour>
        <pt x="541" y="429" on="1"/>
        <pt x="564" y="436" on="0"/>
        <pt x="633" y="439" on="0"/>
        <pt x="710" y="424" on="0"/>
        <pt x="753" y="392" on="0"/>
        <pt x="750" y="344" on="0"/>
        <pt x="713" y="313" on="1"/>
        <pt x="700" y="309" on="0"/>
        <pt x="693" y="302" on="1"/>
        <pt x="671" y="280" on="0"/>
        <pt x="544" y="262" on="0"/>
        <pt x="438" y="253" on="0"/>
        <pt x="325" y="248" on="0"/>
        <pt x="218" y="245" on="0"/>
        <pt x="125" y="243" on="0"/>
        <pt x="90" y="240" on="0"/>
        <pt x="85" y="240" on="0"/>
        <pt x="81" y="239" on="1"/>
        <pt x="80" y="241" on="1"/>
        <pt x="54" y="239" on="0"/>
        <pt x="13" y="257" on="0"/>
        <pt x="-6" y="284" on="0"/>
        <pt x="1" y="317" on="0"/>
        <pt x="23" y="331" on="1"/>
        <pt x="44" y="334" on="1"/>
        <pt x="42" y="376" on="0"/>
        <pt x="93" y="393" on="1"/>
        <pt x="155" y="414" on="0"/>
        <pt x="360" y="422" on="1"/>
        <pt x="395" y="424" on="0"/>
        <pt x="429" y="426" on="1"/>
        <pt x="508" y="429" on="0"/>
      </contour>
    </TTGlyph>
    <TTGlyph name="endash" xMin="-5" yMin="254" xMax="611" yMax="427">
      <contour>
        <pt x="306" y="254" on="1"/>
        <pt x="87" y="257" on="1"/>
        <pt x="85" y="256" on="0"/>
        <pt x="80" y="256" on="0"/>
        <pt x="76" y="255" on="1"/>
        <pt x="75" y="257" on="1"/>
        <pt x="49" y="257" on="0"/>
        <pt x="9" y="276" on="0"/>
        <pt x="-9" y="304" on="0"/>
        <pt x="-1" y="337" on="0"/>
        <pt x="22" y="350" on="1"/>
        <pt x="43" y="352" on="1"/>
        <pt x="43" y="394" on="0"/>
        <pt x="95" y="408" on="1"/>
        <pt x="119" y="415" on="0"/>
        <pt x="185" y="421" on="0"/>
        <pt x="224" y="425" on="1"/>
        <pt x="293" y="427" on="1"/>
        <pt x="346" y="427" on="1"/>
        <pt x="375" y="427" on="0"/>
        <pt x="404" y="426" on="1"/>
        <pt x="468" y="439" on="0"/>
        <pt x="572" y="414" on="0"/>
        <pt x="614" y="380" on="0"/>
        <pt x="608" y="331" on="0"/>
        <pt x="570" y="302" on="1"/>
        <pt x="557" y="298" on="0"/>
        <pt x="549" y="292" on="1"/>
        <pt x="507" y="254" on="0"/>
      </contour>
    </TTGlyph>
    <TTGlyph name="equal" xMin="-13" yMin="145" xMax="580" yMax="541">
      <contour>
        <pt x="81" y="145" on="1"/>
        <pt x="43" y="140" on="0"/>
        <pt x="-6" y="170" on="0"/>
        <pt x="-20" y="213" on="0"/>
        <pt x="3" y="259" on="0"/>
        <pt x="79" y="289" on="0"/>
        <pt x="178" y="302" on="0"/>
        <pt x="279" y="307" on="0"/>
        <pt x="380" y="309" on="0"/>
        <pt x="463" y="323" on="0"/>
        <pt x="509" y="311" on="0"/>
        <pt x="531" y="284" on="0"/>
        <pt x="528" y="247" on="0"/>
        <pt x="515" y="228" on="1"/>
        <pt x="485" y="185" on="0"/>
        <pt x="414" y="170" on="1"/>
        <pt x="319" y="153" on="0"/>
        <pt x="133" y="149" on="0"/>
      </contour>
      <contour>
        <pt x="473" y="541" on="1"/>
        <pt x="531" y="535" on="0"/>
        <pt x="583" y="490" on="0"/>
        <pt x="576" y="441" on="0"/>
        <pt x="510" y="401" on="0"/>
        <pt x="451" y="401" on="1"/>
        <pt x="439" y="403" on="0"/>
        <pt x="416" y="403" on="1"/>
        <pt x="423" y="403" on="0"/>
        <pt x="454" y="404" on="1"/>
        <pt x="463" y="404" on="0"/>
        <pt x="446" y="405" on="1"/>
        <pt x="417" y="407" on="0"/>
        <pt x="406" y="404" on="1"/>
        <pt x="394" y="402" on="1"/>
        <pt x="354" y="339" on="0"/>
        <pt x="158" y="355" on="1"/>
        <pt x="111" y="365" on="0"/>
        <pt x="89" y="391" on="1"/>
        <pt x="68" y="417" on="0"/>
        <pt x="92" y="443" on="1"/>
        <pt x="98" y="467" on="0"/>
        <pt x="142" y="481" on="1"/>
        <pt x="165" y="490" on="0"/>
        <pt x="219" y="500" on="0"/>
        <pt x="301" y="517" on="0"/>
        <pt x="415" y="539" on="0"/>
      </contour>
    </TTGlyph>
    <TTGlyph name="eth" xMin="19" yMin="-140" xMax="655" yMax="709">
      <contour>
        <pt x="306" y="558" on="1"/>
        <pt x="184" y="625" on="0"/>
        <pt x="209" y="666" on="1"/>
        <pt x="218" y="680" on="0"/>
        <pt x="254" y="689" on="1"/>
        <pt x="287" y="689" on="0"/>
        <pt x="362" y="659" on="1"/>
        <pt x="379" y="652" on="0"/>
        <pt x="395" y="648" on="1"/>
        <pt x="396" y="648" on="0"/>
        <pt x="393" y="645" on="0"/>
        <pt x="394" y="645" on="1"/>
        <pt x="421" y="664" on="0"/>
        <pt x="472" y="700" on="0"/>
        <pt x="498" y="709" on="1"/>
        <pt x="554" y="729" on="0"/>
        <pt x="602" y="688" on="1"/>
        <pt x="651" y="659" on="0"/>
        <pt x="644" y="618" on="1"/>
        <pt x="640" y="598" on="0"/>
        <pt x="604" y="560" on="0"/>
        <pt x="570" y="547" on="1"/>
        <pt x="568" y="545" on="0"/>
        <pt x="564" y="547" on="1"/>
        <pt x="606" y="494" on="0"/>
        <pt x="617" y="449" on="1"/>
        <pt x="648" y="348" on="0"/>
        <pt x="654" y="230" on="1"/>
        <pt x="663" y="76" on="0"/>
        <pt x="602" y="12" on="1"/>
        <pt x="539" y="-54" on="0"/>
        <pt x="415" y="-98" on="1"/>
        <pt x="304" y="-138" on="0"/>
        <pt x="207" y="-140" on="1"/>
        <pt x="198" y="-140" on="0"/>
        <pt x="199" y="-139" on="0"/>
        <pt x="204" y="-136" on="0"/>
        <pt x="204" y="-133" on="0"/>
        <pt x="195" y="-132" on="1"/>
        <pt x="135" y="-110" on="0"/>
        <pt x="114" y="-71" on="1"/>
        <pt x="76" y="-53" on="0"/>
        <pt x="39" y="-6" on="1"/>
        <pt x="-29" y="88" on="0"/>
        <pt x="19" y="200" on="1"/>
        <pt x="40" y="250" on="0"/>
        <pt x="121" y="333" on="0"/>
        <pt x="199" y="370" on="0"/>
        <pt x="238" y="387" on="0"/>
        <pt x="256" y="393" on="1"/>
        <pt x="280" y="401" on="0"/>
        <pt x="321" y="407" on="1"/>
        <pt x="390" y="419" on="0"/>
        <pt x="416" y="420" on="1"/>
        <pt x="388" y="464" on="0"/>
        <pt x="360" y="489" on="1"/>
        <pt x="327" y="472" on="0"/>
        <pt x="259" y="443" on="0"/>
        <pt x="232" y="444" on="1"/>
        <pt x="220" y="445" on="0"/>
        <pt x="220" y="462" on="0"/>
        <pt x="228" y="474" on="1"/>
        <pt x="243" y="495" on="0"/>
        <pt x="279" y="533" on="1"/>
        <pt x="281" y="538" on="0"/>
        <pt x="289" y="542" on="1"/>
        <pt x="293" y="546" on="0"/>
        <pt x="301" y="553" on="0"/>
      </contour>
      <contour>
        <pt x="169" y="18" on="1"/>
        <pt x="194" y="27" on="0"/>
        <pt x="240" y="29" on="1"/>
        <pt x="261" y="26" on="0"/>
        <pt x="272" y="29" on="0"/>
        <pt x="281" y="32" on="1"/>
        <pt x="308" y="39" on="1"/>
        <pt x="348" y="65" on="0"/>
        <pt x="371" y="96" on="1"/>
        <pt x="457" y="197" on="0"/>
        <pt x="448" y="314" on="1"/>
        <pt x="432" y="315" on="0"/>
        <pt x="398" y="311" on="0"/>
        <pt x="351" y="304" on="0"/>
        <pt x="277" y="280" on="0"/>
        <pt x="205" y="243" on="0"/>
        <pt x="144" y="195" on="0"/>
        <pt x="129" y="165" on="1"/>
        <pt x="95" y="98" on="0"/>
        <pt x="162" y="24" on="1"/>
      </contour>
      <contour>
        <pt x="260" y="450" on="1"/>
        <pt x="258" y="450" on="0"/>
        <pt x="258" y="450" on="1"/>
        <pt x="259" y="450" on="0"/>
      </contour>
    </TTGlyph>
    <TTGlyph name="exclam" xMin="-3" yMin="-117" xMax="487" yMax="800">
      <contour>
        <pt x="470" y="721" on="1"/>
        <pt x="474" y="709" on="0"/>
        <pt x="484" y="700" on="0"/>
        <pt x="486" y="698" on="1"/>
        <pt x="491" y="693" on="0"/>
        <pt x="481" y="680" on="1"/>
        <pt x="472" y="662" on="0"/>
        <pt x="456" y="638" on="1"/>
        <pt x="427" y="595" on="0"/>
        <pt x="419" y="575" on="1"/>
        <pt x="378" y="493" on="0"/>
        <pt x="332" y="356" on="0"/>
        <pt x="300" y="246" on="0"/>
        <pt x="285" y="204" on="1"/>
        <pt x="267" y="155" on="0"/>
        <pt x="243" y="131" on="1"/>
        <pt x="231" y="111" on="0"/>
        <pt x="169" y="97" on="0"/>
        <pt x="105" y="106" on="0"/>
        <pt x="60" y="138" on="0"/>
        <pt x="66" y="164" on="1"/>
        <pt x="77" y="258" on="0"/>
        <pt x="122" y="386" on="0"/>
        <pt x="155" y="470" on="0"/>
        <pt x="179" y="537" on="0"/>
        <pt x="200" y="586" on="0"/>
        <pt x="228" y="641" on="0"/>
        <pt x="261" y="698" on="0"/>
        <pt x="278" y="722" on="1"/>
        <pt x="317" y="777" on="0"/>
        <pt x="371" y="798" on="0"/>
        <pt x="426" y="802" on="0"/>
        <pt x="467" y="786" on="0"/>
        <pt x="483" y="750" on="0"/>
      </contour>
      <contour>
        <pt x="231" y="-33" on="1"/>
        <pt x="220" y="-74" on="0"/>
        <pt x="151" y="-115" on="0"/>
        <pt x="73" y="-118" on="0"/>
        <pt x="6" y="-85" on="0"/>
        <pt x="-11" y="-16" on="0"/>
        <pt x="28" y="33" on="0"/>
        <pt x="82" y="48" on="0"/>
        <pt x="155" y="54" on="0"/>
        <pt x="215" y="40" on="0"/>
        <pt x="247" y="2" on="0"/>
      </contour>
    </TTGlyph>
    <TTGlyph name="exclamdown" xMin="32" yMin="-134" xMax="522" yMax="783">
      <component glyphName="exclam" x="519" y="666" scale="-0.999938964844" flags="0x1004"/>
    </TTGlyph>
    <TTGlyph name="f" xMin="-13" yMin="-91" xMax="598" yMax="778">
      <contour>
        <pt x="345" y="458" on="1"/>
        <pt x="383" y="471" on="0"/>
        <pt x="461" y="476" on="1"/>
        <pt x="479" y="466" on="0"/>
        <pt x="472" y="404" on="0"/>
        <pt x="452" y="388" on="1"/>
        <pt x="428" y="352" on="0"/>
        <pt x="401" y="339" on="1"/>
        <pt x="386" y="332" on="0"/>
        <pt x="343" y="321" on="0"/>
        <pt x="312" y="312" on="1"/>
        <pt x="292" y="256" on="0"/>
        <pt x="243" y="64" on="0"/>
        <pt x="233" y="32" on="1"/>
        <pt x="210" y="-42" on="0"/>
        <pt x="200" y="-45" on="1"/>
        <pt x="177" y="-81" on="0"/>
        <pt x="122" y="-99" on="0"/>
        <pt x="76" y="-82" on="0"/>
        <pt x="51" y="-39" on="0"/>
        <pt x="58" y="-15" on="1"/>
        <pt x="55" y="10" on="0"/>
        <pt x="79" y="240" on="0"/>
        <pt x="79" y="257" on="1"/>
        <pt x="75" y="261" on="0"/>
        <pt x="63" y="263" on="0"/>
        <pt x="61" y="267" on="1"/>
        <pt x="52" y="270" on="0"/>
        <pt x="47" y="278" on="1"/>
        <pt x="38" y="292" on="0"/>
        <pt x="28" y="298" on="1"/>
        <pt x="10" y="296" on="0"/>
        <pt x="-13" y="321" on="0"/>
        <pt x="-13" y="355" on="0"/>
        <pt x="11" y="391" on="0"/>
        <pt x="40" y="401" on="1"/>
        <pt x="142" y="433" on="1"/>
        <pt x="154" y="514" on="0"/>
        <pt x="218" y="617" on="1"/>
        <pt x="233" y="642" on="0"/>
        <pt x="268" y="699" on="0"/>
        <pt x="330" y="748" on="0"/>
        <pt x="397" y="775" on="0"/>
        <pt x="466" y="781" on="0"/>
        <pt x="495" y="777" on="1"/>
        <pt x="556" y="769" on="0"/>
        <pt x="576" y="736" on="1"/>
        <pt x="600" y="694" on="0"/>
        <pt x="595" y="627" on="0"/>
        <pt x="570" y="610" on="1"/>
        <pt x="530" y="584" on="0"/>
        <pt x="502" y="602" on="1"/>
        <pt x="491" y="608" on="0"/>
        <pt x="481" y="636" on="0"/>
        <pt x="453" y="628" on="0"/>
        <pt x="417" y="599" on="0"/>
        <pt x="380" y="555" on="0"/>
        <pt x="366" y="532" on="1"/>
        <pt x="331" y="479" on="0"/>
      </contour>
    </TTGlyph>
    <TTGlyph name="five" xMin="-19" yMin="-49" xMax="609" yMax="777">
      <contour>
        <pt x="301" y="757" on="0"/>
        <pt x="369" y="764" on="0"/>
        <pt x="443" y="771" on="0"/>
        <pt x="515" y="777" on="0"/>
        <pt x="544" y="776" on="1"/>
        <pt x="609" y="775" on="0"/>
        <pt x="609" y="754" on="1"/>
        <pt x="634" y="675" on="0"/>
        <pt x="574" y="634" on="1"/>
        <pt x="550" y="618" on="0"/>
        <pt x="440" y="602" on="0"/>
        <pt x="418" y="604" on="1"/>
        <pt x="387" y="608" on="0"/>
        <pt x="369" y="608" on="1"/>
        <pt x="356" y="586" on="0"/>
        <pt x="304" y="509" on="0"/>
        <pt x="279" y="471" on="1"/>
        <pt x="260" y="428" on="1"/>
        <pt x="278" y="454" on="0"/>
        <pt x="354" y="462" on="1"/>
        <pt x="428" y="470" on="0"/>
        <pt x="475" y="451" on="1"/>
        <pt x="569" y="408" on="0"/>
        <pt x="578" y="319" on="1"/>
        <pt x="583" y="262" on="0"/>
        <pt x="549" y="167" on="1"/>
        <pt x="523" y="95" on="0"/>
        <pt x="462" y="37" on="1"/>
        <pt x="409" y="-14" on="0"/>
        <pt x="344" y="-41" on="1"/>
        <pt x="215" y="-96" on="0"/>
        <pt x="60" y="-49" on="1"/>
        <pt x="31" y="-41" on="0"/>
        <pt x="-6" y="-4" on="0"/>
        <pt x="-22" y="40" on="0"/>
        <pt x="-16" y="85" on="0"/>
        <pt x="0" y="101" on="1"/>
        <pt x="36" y="139" on="0"/>
        <pt x="112" y="122" on="1"/>
        <pt x="183" y="107" on="0"/>
        <pt x="241" y="126" on="0"/>
        <pt x="281" y="164" on="0"/>
        <pt x="304" y="205" on="0"/>
        <pt x="314" y="228" on="0"/>
        <pt x="316" y="240" on="1"/>
        <pt x="321" y="272" on="0"/>
        <pt x="303" y="280" on="1"/>
        <pt x="292" y="284" on="0"/>
        <pt x="240" y="276" on="0"/>
        <pt x="176" y="266" on="0"/>
        <pt x="110" y="258" on="0"/>
        <pt x="86" y="262" on="1"/>
        <pt x="32" y="271" on="0"/>
        <pt x="53" y="328" on="1"/>
        <pt x="52" y="331" on="0"/>
        <pt x="56" y="323" on="0"/>
        <pt x="56" y="326" on="1"/>
        <pt x="29" y="343" on="0"/>
        <pt x="29" y="382" on="1"/>
        <pt x="45" y="428" on="0"/>
        <pt x="92" y="517" on="0"/>
        <pt x="125" y="578" on="0"/>
        <pt x="144" y="613" on="0"/>
        <pt x="153" y="632" on="1"/>
        <pt x="148" y="630" on="0"/>
        <pt x="149" y="637" on="0"/>
        <pt x="156" y="649" on="0"/>
        <pt x="165" y="664" on="0"/>
        <pt x="168" y="670" on="1"/>
        <pt x="155" y="713" on="0"/>
        <pt x="198" y="737" on="1"/>
        <pt x="230" y="755" on="0"/>
      </contour>
      <contour>
        <pt x="166" y="652" on="0"/>
        <pt x="173" y="664" on="0"/>
        <pt x="164" y="660" on="0"/>
        <pt x="162" y="649" on="0"/>
        <pt x="161" y="644" on="1"/>
      </contour>
      <contour>
        <pt x="496" y="754" on="1"/>
        <pt x="519" y="752" on="0"/>
        <pt x="523" y="758" on="0"/>
      </contour>
      <contour>
        <pt x="238" y="298" on="1"/>
        <pt x="234" y="299" on="0"/>
        <pt x="240" y="298" on="1"/>
      </contour>
    </TTGlyph>
    <TTGlyph name="florin" xMin="-35" yMin="-106" xMax="623" yMax="803">
      <contour>
        <pt x="482" y="461" on="1"/>
        <pt x="509" y="449" on="0"/>
        <pt x="509" y="433" on="1"/>
        <pt x="509" y="425" on="0"/>
        <pt x="501" y="405" on="0"/>
        <pt x="490" y="368" on="0"/>
        <pt x="454" y="339" on="0"/>
        <pt x="405" y="321" on="0"/>
        <pt x="346" y="309" on="0"/>
        <pt x="315" y="300" on="1"/>
        <pt x="306" y="276" on="0"/>
        <pt x="260" y="128" on="0"/>
        <pt x="234" y="48" on="0"/>
        <pt x="222" y="15" on="1"/>
        <pt x="196" y="-60" on="0"/>
        <pt x="185" y="-64" on="1"/>
        <pt x="162" y="-100" on="0"/>
        <pt x="102" y="-112" on="0"/>
        <pt x="51" y="-88" on="0"/>
        <pt x="21" y="-39" on="0"/>
        <pt x="28" y="-15" on="1"/>
        <pt x="25" y="8" on="0"/>
        <pt x="47" y="86" on="1"/>
        <pt x="89" y="234" on="0"/>
        <pt x="89" y="257" on="1"/>
        <pt x="82" y="263" on="0"/>
        <pt x="78" y="271" on="1"/>
        <pt x="70" y="274" on="0"/>
        <pt x="59" y="274" on="0"/>
        <pt x="53" y="274" on="1"/>
        <pt x="38" y="272" on="0"/>
        <pt x="13" y="284" on="0"/>
        <pt x="-24" y="310" on="0"/>
        <pt x="-34" y="326" on="1"/>
        <pt x="-60" y="364" on="0"/>
        <pt x="-10" y="381" on="1"/>
        <pt x="44" y="386" on="0"/>
        <pt x="108" y="387" on="0"/>
        <pt x="120" y="398" on="1"/>
        <pt x="142" y="418" on="1"/>
        <pt x="157" y="523" on="0"/>
        <pt x="226" y="634" on="1"/>
        <pt x="245" y="663" on="0"/>
        <pt x="260" y="679" on="1"/>
        <pt x="294" y="716" on="0"/>
        <pt x="395" y="772" on="0"/>
        <pt x="465" y="800" on="0"/>
        <pt x="496" y="802" on="1"/>
        <pt x="566" y="808" on="0"/>
        <pt x="582" y="752" on="1"/>
        <pt x="587" y="735" on="0"/>
        <pt x="604" y="723" on="0"/>
        <pt x="619" y="713" on="0"/>
        <pt x="627" y="698" on="0"/>
        <pt x="618" y="653" on="0"/>
        <pt x="598" y="621" on="0"/>
        <pt x="571" y="601" on="0"/>
        <pt x="537" y="591" on="0"/>
        <pt x="509" y="583" on="0"/>
        <pt x="472" y="564" on="0"/>
        <pt x="429" y="537" on="0"/>
        <pt x="385" y="503" on="0"/>
        <pt x="369" y="486" on="1"/>
        <pt x="332" y="448" on="0"/>
        <pt x="345" y="427" on="1"/>
        <pt x="435" y="458" on="0"/>
      </contour>
    </TTGlyph>
    <TTGlyph name="four" xMin="-19" yMin="-110" xMax="589" yMax="811">
      <contour>
        <pt x="554" y="283" on="1"/>
        <pt x="550" y="272" on="0"/>
        <pt x="500" y="270" on="1"/>
        <pt x="501" y="270" on="1"/>
        <pt x="517" y="270" on="0"/>
        <pt x="492" y="264" on="1"/>
        <pt x="470" y="259" on="0"/>
        <pt x="455" y="259" on="1"/>
        <pt x="421" y="134" on="0"/>
        <pt x="403" y="72" on="0"/>
        <pt x="392" y="29" on="0"/>
        <pt x="382" y="9" on="1"/>
        <pt x="372" y="-12" on="1"/>
        <pt x="372" y="-17" on="0"/>
        <pt x="373" y="-20" on="1"/>
        <pt x="362" y="-61" on="0"/>
        <pt x="313" y="-106" on="0"/>
        <pt x="255" y="-114" on="0"/>
        <pt x="198" y="-84" on="0"/>
        <pt x="179" y="-50" on="1"/>
        <pt x="186" y="-2" on="1"/>
        <pt x="179" y="4" on="0"/>
        <pt x="160" y="8" on="0"/>
        <pt x="152" y="10" on="1"/>
        <pt x="131" y="15" on="0"/>
        <pt x="131" y="32" on="1"/>
        <pt x="142" y="73" on="0"/>
        <pt x="158" y="150" on="0"/>
        <pt x="180" y="183" on="1"/>
        <pt x="192" y="216" on="1"/>
        <pt x="127" y="211" on="1"/>
        <pt x="75" y="207" on="0"/>
        <pt x="33" y="230" on="0"/>
        <pt x="-2" y="271" on="0"/>
        <pt x="-21" y="309" on="0"/>
        <pt x="-18" y="330" on="1"/>
        <pt x="-14" y="368" on="0"/>
        <pt x="85" y="496" on="0"/>
        <pt x="157" y="584" on="0"/>
        <pt x="195" y="623" on="1"/>
        <pt x="272" y="702" on="0"/>
        <pt x="377" y="783" on="1"/>
        <pt x="411" y="811" on="0"/>
        <pt x="466" y="811" on="1"/>
        <pt x="509" y="809" on="0"/>
        <pt x="527" y="800" on="1"/>
        <pt x="562" y="784" on="0"/>
        <pt x="571" y="749" on="1"/>
        <pt x="571" y="741" on="1"/>
        <pt x="602" y="717" on="0"/>
        <pt x="588" y="680" on="1"/>
        <pt x="580" y="654" on="0"/>
        <pt x="538" y="590" on="0"/>
        <pt x="534" y="576" on="1"/>
        <pt x="513" y="496" on="1"/>
        <pt x="508" y="477" on="0"/>
        <pt x="501" y="446" on="0"/>
        <pt x="494" y="415" on="0"/>
        <pt x="486" y="384" on="0"/>
        <pt x="482" y="365" on="1"/>
        <pt x="500" y="366" on="1"/>
        <pt x="509" y="366" on="0"/>
        <pt x="518" y="366" on="1"/>
        <pt x="525" y="369" on="0"/>
        <pt x="541" y="376" on="0"/>
        <pt x="549" y="378" on="1"/>
        <pt x="568" y="381" on="0"/>
        <pt x="586" y="357" on="0"/>
        <pt x="588" y="326" on="0"/>
        <pt x="580" y="300" on="0"/>
        <pt x="563" y="283" on="0"/>
      </contour>
      <contour>
        <pt x="285" y="492" on="1"/>
        <pt x="161" y="374" on="0"/>
        <pt x="126" y="330" on="0"/>
        <pt x="129" y="319" on="0"/>
        <pt x="156" y="323" on="0"/>
        <pt x="200" y="337" on="0"/>
        <pt x="227" y="344" on="1"/>
        <pt x="231" y="357" on="0"/>
        <pt x="248" y="398" on="1"/>
        <pt x="282" y="479" on="0"/>
      </contour>
      <contour>
        <pt x="365" y="-34" on="1"/>
        <pt x="366" y="-29" on="0"/>
        <pt x="367" y="-25" on="1"/>
        <pt x="360" y="-43" on="0"/>
      </contour>
    </TTGlyph>
    <TTGlyph name="fraction" xMin="-43" yMin="-199" xMax="676" yMax="842">
      <contour>
        <pt x="365" y="637" on="0"/>
        <pt x="402" y="712" on="0"/>
        <pt x="426" y="751" on="0"/>
        <pt x="434" y="760" on="0"/>
        <pt x="436" y="765" on="1"/>
        <pt x="434" y="788" on="0"/>
        <pt x="483" y="831" on="0"/>
        <pt x="540" y="842" on="1"/>
        <pt x="547" y="842" on="1"/>
        <pt x="601" y="840" on="0"/>
        <pt x="622" y="830" on="1"/>
        <pt x="661" y="812" on="0"/>
        <pt x="676" y="768" on="1"/>
        <pt x="679" y="749" on="0"/>
        <pt x="656" y="715" on="0"/>
        <pt x="644" y="701" on="1"/>
        <pt x="656" y="669" on="0"/>
        <pt x="627" y="635" on="1"/>
        <pt x="585" y="595" on="0"/>
        <pt x="519" y="504" on="0"/>
        <pt x="430" y="381" on="0"/>
        <pt x="325" y="213" on="0"/>
        <pt x="272" y="128" on="1"/>
        <pt x="138" y="-86" on="0"/>
        <pt x="52" y="-192" on="1"/>
        <pt x="35" y="-213" on="0"/>
        <pt x="3" y="-199" on="1"/>
        <pt x="-30" y="-185" on="0"/>
        <pt x="-42" y="-150" on="1"/>
        <pt x="-58" y="-109" on="0"/>
        <pt x="-30" y="-65" on="1"/>
        <pt x="38" y="90" on="0"/>
        <pt x="148" y="272" on="1"/>
        <pt x="197" y="352" on="0"/>
        <pt x="296" y="513" on="0"/>
      </contour>
    </TTGlyph>
    <TTGlyph name="g" xMin="-39" yMin="-306" xMax="518" yMax="463">
      <contour>
        <pt x="419" y="399" on="1"/>
        <pt x="436" y="430" on="0"/>
        <pt x="464" y="430" on="1"/>
        <pt x="507" y="406" on="0"/>
        <pt x="518" y="352" on="1"/>
        <pt x="529" y="298" on="0"/>
        <pt x="494" y="255" on="1"/>
        <pt x="493" y="254" on="0"/>
        <pt x="495" y="238" on="1"/>
        <pt x="513" y="138" on="0"/>
        <pt x="482" y="30" on="1"/>
        <pt x="471" y="-6" on="0"/>
        <pt x="442" y="-68" on="0"/>
        <pt x="399" y="-162" on="0"/>
        <pt x="321" y="-254" on="0"/>
        <pt x="272" y="-281" on="1"/>
        <pt x="169" y="-339" on="0"/>
        <pt x="42" y="-306" on="1"/>
        <pt x="-4" y="-288" on="0"/>
        <pt x="-22" y="-264" on="1"/>
        <pt x="-45" y="-235" on="0"/>
        <pt x="-38" y="-202" on="1"/>
        <pt x="-31" y="-161" on="0"/>
        <pt x="10" y="-157" on="1"/>
        <pt x="30" y="-155" on="0"/>
        <pt x="60" y="-172" on="1"/>
        <pt x="94" y="-179" on="0"/>
        <pt x="136" y="-163" on="0"/>
        <pt x="161" y="-150" on="0"/>
        <pt x="180" y="-140" on="1"/>
        <pt x="213" y="-123" on="0"/>
        <pt x="255" y="-62" on="1"/>
        <pt x="278" y="-30" on="0"/>
        <pt x="301" y="24" on="1"/>
        <pt x="264" y="-23" on="0"/>
        <pt x="183" y="-22" on="1"/>
        <pt x="160" y="-21" on="0"/>
        <pt x="103" y="-19" on="0"/>
        <pt x="57" y="17" on="0"/>
        <pt x="29" y="75" on="0"/>
        <pt x="20" y="150" on="0"/>
        <pt x="24" y="189" on="1"/>
        <pt x="40" y="325" on="0"/>
        <pt x="138" y="404" on="1"/>
        <pt x="205" y="459" on="0"/>
        <pt x="282" y="463" on="1"/>
        <pt x="319" y="465" on="0"/>
        <pt x="352" y="455" on="1"/>
        <pt x="392" y="440" on="0"/>
      </contour>
      <contour>
        <pt x="297" y="172" on="1"/>
        <pt x="297" y="175" on="0"/>
        <pt x="298" y="177" on="1"/>
        <pt x="293" y="179" on="0"/>
        <pt x="283" y="182" on="0"/>
        <pt x="257" y="190" on="0"/>
        <pt x="213" y="173" on="0"/>
        <pt x="180" y="144" on="0"/>
        <pt x="161" y="112" on="0"/>
        <pt x="174" y="90" on="0"/>
        <pt x="208" y="95" on="0"/>
        <pt x="228" y="107" on="1"/>
        <pt x="272" y="134" on="0"/>
      </contour>
    </TTGlyph>
    <TTGlyph name="germandbls" xMin="-3" yMin="-116" xMax="689" yMax="787">
      <contour>
        <pt x="441" y="472" on="1"/>
        <pt x="445" y="473" on="1"/>
        <pt x="487" y="498" on="0"/>
        <pt x="504" y="522" on="1"/>
        <pt x="533" y="563" on="0"/>
        <pt x="540" y="640" on="1"/>
        <pt x="541" y="652" on="0"/>
        <pt x="538" y="661" on="1"/>
        <pt x="523" y="668" on="0"/>
        <pt x="489" y="671" on="0"/>
        <pt x="446" y="637" on="0"/>
        <pt x="426" y="612" on="1"/>
        <pt x="386" y="562" on="0"/>
        <pt x="354" y="499" on="1"/>
        <pt x="346" y="482" on="1"/>
        <pt x="342" y="465" on="0"/>
        <pt x="336" y="433" on="0"/>
        <pt x="331" y="412" on="0"/>
        <pt x="328" y="403" on="1"/>
        <pt x="326" y="379" on="0"/>
        <pt x="294" y="249" on="0"/>
        <pt x="284" y="201" on="0"/>
        <pt x="268" y="122" on="0"/>
        <pt x="258" y="83" on="1"/>
        <pt x="236" y="-9" on="0"/>
        <pt x="211" y="-66" on="1"/>
        <pt x="177" y="-108" on="0"/>
        <pt x="123" y="-116" on="1"/>
        <pt x="69" y="-123" on="0"/>
        <pt x="32" y="-94" on="1"/>
        <pt x="-9" y="-61" on="0"/>
        <pt x="-3" y="4" on="1"/>
        <pt x="30" y="63" on="0"/>
        <pt x="75" y="212" on="0"/>
        <pt x="98" y="300" on="0"/>
        <pt x="134" y="423" on="0"/>
        <pt x="187" y="578" on="0"/>
        <pt x="212" y="656" on="1"/>
        <pt x="231" y="692" on="0"/>
        <pt x="270" y="704" on="1"/>
        <pt x="305" y="715" on="0"/>
        <pt x="340" y="696" on="1"/>
        <pt x="380" y="744" on="0"/>
        <pt x="426" y="771" on="0"/>
        <pt x="447" y="778" on="1"/>
        <pt x="492" y="793" on="0"/>
        <pt x="544" y="781" on="0"/>
        <pt x="578" y="775" on="0"/>
        <pt x="594" y="770" on="1"/>
        <pt x="694" y="735" on="0"/>
        <pt x="688" y="609" on="1"/>
        <pt x="686" y="538" on="0"/>
        <pt x="658" y="478" on="1"/>
        <pt x="646" y="453" on="0"/>
        <pt x="615" y="419" on="1"/>
        <pt x="610" y="413" on="1"/>
        <pt x="695" y="331" on="0"/>
        <pt x="672" y="184" on="1"/>
        <pt x="665" y="135" on="0"/>
        <pt x="618" y="22" on="0"/>
        <pt x="576" y="-26" on="1"/>
        <pt x="509" y="-101" on="0"/>
        <pt x="431" y="-108" on="1"/>
        <pt x="404" y="-111" on="0"/>
        <pt x="355" y="-106" on="0"/>
        <pt x="314" y="-84" on="0"/>
        <pt x="300" y="-64" on="1"/>
        <pt x="269" y="-19" on="0"/>
        <pt x="280" y="50" on="1"/>
        <pt x="309" y="102" on="0"/>
        <pt x="351" y="111" on="1"/>
        <pt x="365" y="114" on="0"/>
        <pt x="383" y="116" on="1"/>
        <pt x="395" y="117" on="1"/>
        <pt x="420" y="112" on="0"/>
        <pt x="433" y="106" on="1"/>
        <pt x="472" y="153" on="0"/>
        <pt x="486" y="213" on="1"/>
        <pt x="502" y="277" on="0"/>
        <pt x="477" y="328" on="1"/>
        <pt x="470" y="333" on="1"/>
        <pt x="455" y="336" on="1"/>
        <pt x="428" y="345" on="0"/>
        <pt x="391" y="380" on="0"/>
        <pt x="382" y="419" on="0"/>
        <pt x="406" y="458" on="0"/>
      </contour>
      <contour>
        <pt x="366" y="563" on="1"/>
        <pt x="369" y="573" on="0"/>
        <pt x="366" y="569" on="0"/>
        <pt x="361" y="550" on="1"/>
      </contour>
      <contour>
        <pt x="319" y="371" on="1"/>
        <pt x="318" y="366" on="1"/>
      </contour>
      <contour>
        <pt x="360" y="543" on="1"/>
        <pt x="359" y="542" on="0"/>
        <pt x="359" y="540" on="1"/>
        <pt x="359" y="542" on="0"/>
      </contour>
    </TTGlyph>
    <TTGlyph name="grave" xMin="43" yMin="660" xMax="255" yMax="885">
      <contour>
        <pt x="44" y="799" on="1"/>
        <pt x="35" y="848" on="0"/>
        <pt x="78" y="872" on="1"/>
        <pt x="116" y="892" on="0"/>
        <pt x="163" y="885" on="1"/>
        <pt x="192" y="884" on="0"/>
        <pt x="244" y="856" on="0"/>
        <pt x="255" y="830" on="1"/>
        <pt x="247" y="804" on="0"/>
        <pt x="248" y="776" on="1"/>
        <pt x="250" y="716" on="0"/>
        <pt x="248" y="680" on="0"/>
        <pt x="226" y="662" on="0"/>
        <pt x="212" y="660" on="1"/>
        <pt x="182" y="656" on="0"/>
        <pt x="157" y="670" on="1"/>
        <pt x="152" y="680" on="0"/>
        <pt x="148" y="684" on="1"/>
        <pt x="144" y="685" on="0"/>
        <pt x="142" y="690" on="1"/>
        <pt x="138" y="701" on="0"/>
        <pt x="116" y="723" on="1"/>
        <pt x="80" y="759" on="1"/>
        <pt x="65" y="766" on="0"/>
        <pt x="61" y="772" on="1"/>
        <pt x="53" y="781" on="0"/>
        <pt x="44" y="793" on="1"/>
        <pt x="43" y="798" on="1"/>
      </contour>
    </TTGlyph>
    <TTGlyph name="greater" xMin="43" yMin="64" xMax="752" yMax="636">
      <contour>
        <pt x="485" y="309" on="1"/>
        <pt x="444" y="335" on="1"/>
        <pt x="395" y="367" on="0"/>
        <pt x="290" y="424" on="0"/>
        <pt x="243" y="459" on="1"/>
        <pt x="201" y="503" on="0"/>
        <pt x="237" y="545" on="1"/>
        <pt x="249" y="574" on="0"/>
        <pt x="293" y="606" on="1"/>
        <pt x="305" y="611" on="0"/>
        <pt x="329" y="622" on="0"/>
        <pt x="369" y="635" on="0"/>
        <pt x="418" y="637" on="0"/>
        <pt x="440" y="632" on="1"/>
        <pt x="476" y="622" on="0"/>
        <pt x="514" y="591" on="1"/>
        <pt x="522" y="585" on="0"/>
        <pt x="567" y="552" on="0"/>
        <pt x="625" y="506" on="0"/>
        <pt x="687" y="454" on="0"/>
        <pt x="711" y="428" on="1"/>
        <pt x="766" y="368" on="0"/>
        <pt x="752" y="342" on="1"/>
        <pt x="750" y="337" on="0"/>
        <pt x="733" y="317" on="0"/>
        <pt x="731" y="313" on="1"/>
        <pt x="739" y="282" on="0"/>
        <pt x="726" y="244" on="1"/>
        <pt x="715" y="224" on="0"/>
        <pt x="693" y="205" on="0"/>
        <pt x="673" y="193" on="1"/>
        <pt x="625" y="176" on="0"/>
        <pt x="467" y="152" on="0"/>
        <pt x="344" y="122" on="0"/>
        <pt x="282" y="106" on="1"/>
        <pt x="122" y="67" on="0"/>
        <pt x="55" y="64" on="1"/>
        <pt x="53" y="70" on="0"/>
        <pt x="46" y="86" on="0"/>
        <pt x="43" y="94" on="1"/>
        <pt x="35" y="115" on="0"/>
        <pt x="52" y="134" on="0"/>
        <pt x="65" y="153" on="0"/>
        <pt x="87" y="177" on="0"/>
        <pt x="143" y="207" on="0"/>
        <pt x="213" y="234" on="0"/>
        <pt x="290" y="258" on="0"/>
        <pt x="361" y="277" on="0"/>
        <pt x="420" y="291" on="0"/>
        <pt x="437" y="296" on="1"/>
      </contour>
    </TTGlyph>
    <TTGlyph name="guillemotleft" xMin="3" yMin="42" xMax="710" yMax="613">
      <contour>
        <pt x="260" y="567" on="1"/>
        <pt x="274" y="571" on="0"/>
        <pt x="287" y="575" on="0"/>
        <pt x="311" y="568" on="0"/>
        <pt x="333" y="550" on="0"/>
        <pt x="340" y="538" on="1"/>
        <pt x="358" y="509" on="0"/>
        <pt x="346" y="476" on="1"/>
        <pt x="348" y="458" on="0"/>
        <pt x="324" y="435" on="0"/>
        <pt x="296" y="410" on="1"/>
        <pt x="213" y="336" on="0"/>
        <pt x="150" y="297" on="1"/>
        <pt x="148" y="287" on="0"/>
        <pt x="174" y="259" on="0"/>
        <pt x="194" y="242" on="1"/>
        <pt x="252" y="189" on="0"/>
        <pt x="276" y="157" on="1"/>
        <pt x="281" y="123" on="0"/>
        <pt x="252" y="115" on="1"/>
        <pt x="245" y="113" on="0"/>
        <pt x="239" y="113" on="1"/>
        <pt x="224" y="103" on="0"/>
        <pt x="152" y="118" on="0"/>
        <pt x="100" y="140" on="0"/>
        <pt x="76" y="158" on="1"/>
        <pt x="19" y="201" on="0"/>
        <pt x="3" y="269" on="1"/>
        <pt x="3" y="280" on="0"/>
        <pt x="15" y="307" on="0"/>
        <pt x="7" y="325" on="1"/>
        <pt x="7" y="359" on="0"/>
        <pt x="48" y="398" on="1"/>
        <pt x="58" y="407" on="0"/>
        <pt x="65" y="415" on="1"/>
        <pt x="114" y="457" on="0"/>
        <pt x="206" y="541" on="0"/>
      </contour>
      <contour>
        <pt x="608" y="606" on="1"/>
        <pt x="624" y="610" on="0"/>
        <pt x="640" y="615" on="0"/>
        <pt x="669" y="608" on="0"/>
        <pt x="695" y="587" on="0"/>
        <pt x="704" y="572" on="1"/>
        <pt x="723" y="536" on="0"/>
        <pt x="710" y="499" on="1"/>
        <pt x="714" y="451" on="0"/>
        <pt x="676" y="415" on="1"/>
        <pt x="628" y="374" on="0"/>
        <pt x="528" y="318" on="0"/>
        <pt x="478" y="286" on="1"/>
        <pt x="476" y="274" on="0"/>
        <pt x="506" y="241" on="0"/>
        <pt x="530" y="220" on="1"/>
        <pt x="600" y="157" on="0"/>
        <pt x="627" y="121" on="1"/>
        <pt x="632" y="89" on="0"/>
        <pt x="608" y="44" on="0"/>
        <pt x="593" y="42" on="1"/>
        <pt x="581" y="48" on="0"/>
        <pt x="535" y="60" on="0"/>
        <pt x="478" y="78" on="0"/>
        <pt x="415" y="104" on="0"/>
        <pt x="387" y="126" on="1"/>
        <pt x="322" y="175" on="0"/>
        <pt x="303" y="253" on="1"/>
        <pt x="303" y="259" on="0"/>
        <pt x="308" y="274" on="0"/>
        <pt x="313" y="290" on="0"/>
        <pt x="313" y="308" on="0"/>
        <pt x="308" y="319" on="1"/>
        <pt x="308" y="356" on="0"/>
        <pt x="358" y="406" on="1"/>
        <pt x="369" y="417" on="0"/>
        <pt x="377" y="426" on="1"/>
        <pt x="406" y="451" on="0"/>
        <pt x="461" y="502" on="0"/>
        <pt x="490" y="526" on="1"/>
        <pt x="560" y="583" on="0"/>
      </contour>
    </TTGlyph>
    <TTGlyph name="guillemotright" xMin="-12" yMin="81" xMax="746" yMax="624">
      <contour>
        <pt x="259" y="314" on="1"/>
        <pt x="234" y="339" on="1"/>
        <pt x="204" y="370" on="0"/>
        <pt x="140" y="423" on="0"/>
        <pt x="111" y="457" on="1"/>
        <pt x="87" y="498" on="0"/>
        <pt x="107" y="539" on="1"/>
        <pt x="116" y="567" on="0"/>
        <pt x="142" y="597" on="1"/>
        <pt x="149" y="602" on="0"/>
        <pt x="156" y="607" on="1"/>
        <pt x="199" y="638" on="0"/>
        <pt x="257" y="609" on="0"/>
        <pt x="277" y="583" on="1"/>
        <pt x="282" y="577" on="0"/>
        <pt x="310" y="546" on="0"/>
        <pt x="345" y="502" on="0"/>
        <pt x="383" y="452" on="0"/>
        <pt x="398" y="428" on="1"/>
        <pt x="432" y="370" on="0"/>
        <pt x="423" y="346" on="1"/>
        <pt x="419" y="336" on="0"/>
        <pt x="410" y="318" on="1"/>
        <pt x="414" y="290" on="0"/>
        <pt x="407" y="252" on="1"/>
        <pt x="400" y="233" on="0"/>
        <pt x="387" y="215" on="0"/>
        <pt x="374" y="204" on="1"/>
        <pt x="346" y="189" on="0"/>
        <pt x="248" y="165" on="0"/>
        <pt x="173" y="136" on="0"/>
        <pt x="135" y="122" on="1"/>
        <pt x="36" y="84" on="0"/>
        <pt x="-4" y="81" on="1"/>
        <pt x="-6" y="92" on="0"/>
        <pt x="-17" y="127" on="0"/>
        <pt x="-6" y="147" on="0"/>
        <pt x="2" y="165" on="0"/>
        <pt x="20" y="196" on="0"/>
        <pt x="82" y="237" on="0"/>
        <pt x="151" y="271" on="0"/>
        <pt x="215" y="296" on="0"/>
        <pt x="230" y="302" on="1"/>
      </contour>
      <contour>
        <pt x="604" y="307" on="1"/>
        <pt x="582" y="329" on="1"/>
        <pt x="556" y="355" on="0"/>
        <pt x="501" y="402" on="0"/>
        <pt x="476" y="431" on="1"/>
        <pt x="454" y="466" on="0"/>
        <pt x="473" y="502" on="1"/>
        <pt x="480" y="527" on="0"/>
        <pt x="503" y="552" on="1"/>
        <pt x="509" y="556" on="0"/>
        <pt x="515" y="560" on="1"/>
        <pt x="551" y="587" on="0"/>
        <pt x="602" y="563" on="0"/>
        <pt x="619" y="540" on="1"/>
        <pt x="623" y="535" on="0"/>
        <pt x="648" y="508" on="0"/>
        <pt x="678" y="470" on="0"/>
        <pt x="711" y="427" on="0"/>
        <pt x="724" y="406" on="1"/>
        <pt x="753" y="357" on="0"/>
        <pt x="746" y="335" on="1"/>
        <pt x="744" y="331" on="0"/>
        <pt x="736" y="314" on="0"/>
        <pt x="734" y="311" on="1"/>
        <pt x="738" y="288" on="0"/>
        <pt x="732" y="254" on="1"/>
        <pt x="726" y="237" on="0"/>
        <pt x="714" y="222" on="0"/>
        <pt x="703" y="212" on="1"/>
        <pt x="680" y="199" on="0"/>
        <pt x="595" y="179" on="0"/>
        <pt x="539" y="149" on="0"/>
        <pt x="491" y="124" on="0"/>
        <pt x="453" y="114" on="0"/>
        <pt x="442" y="127" on="1"/>
        <pt x="441" y="133" on="0"/>
        <pt x="416" y="150" on="0"/>
        <pt x="407" y="159" on="0"/>
        <pt x="410" y="166" on="1"/>
        <pt x="417" y="177" on="0"/>
        <pt x="424" y="194" on="1"/>
        <pt x="453" y="240" on="0"/>
        <pt x="544" y="282" on="1"/>
        <pt x="565" y="291" on="0"/>
        <pt x="579" y="297" on="1"/>
      </contour>
    </TTGlyph>
    <TTGlyph name="guilsinglleft" xMin="13" yMin="42" xMax="420" yMax="613">
      <contour>
        <pt x="318" y="606" on="1"/>
        <pt x="334" y="610" on="0"/>
        <pt x="350" y="615" on="0"/>
        <pt x="379" y="608" on="0"/>
        <pt x="405" y="587" on="0"/>
        <pt x="414" y="572" on="1"/>
        <pt x="433" y="536" on="0"/>
        <pt x="420" y="499" on="1"/>
        <pt x="424" y="451" on="0"/>
        <pt x="386" y="415" on="1"/>
        <pt x="338" y="374" on="0"/>
        <pt x="238" y="318" on="0"/>
        <pt x="188" y="286" on="1"/>
        <pt x="186" y="274" on="0"/>
        <pt x="216" y="241" on="0"/>
        <pt x="240" y="220" on="1"/>
        <pt x="310" y="157" on="0"/>
        <pt x="337" y="121" on="1"/>
        <pt x="342" y="89" on="0"/>
        <pt x="318" y="44" on="0"/>
        <pt x="303" y="42" on="1"/>
        <pt x="291" y="48" on="0"/>
        <pt x="245" y="60" on="0"/>
        <pt x="188" y="78" on="0"/>
        <pt x="125" y="104" on="0"/>
        <pt x="97" y="126" on="1"/>
        <pt x="32" y="175" on="0"/>
        <pt x="13" y="253" on="1"/>
        <pt x="13" y="259" on="0"/>
        <pt x="18" y="274" on="0"/>
        <pt x="23" y="290" on="0"/>
        <pt x="23" y="308" on="0"/>
        <pt x="18" y="319" on="1"/>
        <pt x="18" y="356" on="0"/>
        <pt x="68" y="406" on="1"/>
        <pt x="79" y="417" on="0"/>
        <pt x="87" y="426" on="1"/>
        <pt x="116" y="451" on="0"/>
        <pt x="171" y="502" on="0"/>
        <pt x="200" y="526" on="1"/>
        <pt x="270" y="583" on="0"/>
      </contour>
    </TTGlyph>
    <TTGlyph name="guilsinglright" xMin="-12" yMin="81" xMax="423" yMax="624">
      <contour>
        <pt x="259" y="314" on="1"/>
        <pt x="234" y="339" on="1"/>
        <pt x="204" y="370" on="0"/>
        <pt x="140" y="423" on="0"/>
        <pt x="111" y="457" on="1"/>
        <pt x="87" y="498" on="0"/>
        <pt x="107" y="539" on="1"/>
        <pt x="116" y="567" on="0"/>
        <pt x="142" y="597" on="1"/>
        <pt x="149" y="602" on="0"/>
        <pt x="156" y="607" on="1"/>
        <pt x="199" y="638" on="0"/>
        <pt x="257" y="609" on="0"/>
        <pt x="277" y="583" on="1"/>
        <pt x="282" y="577" on="0"/>
        <pt x="310" y="546" on="0"/>
        <pt x="345" y="502" on="0"/>
        <pt x="383" y="452" on="0"/>
        <pt x="398" y="428" on="1"/>
        <pt x="432" y="370" on="0"/>
        <pt x="423" y="346" on="1"/>
        <pt x="419" y="336" on="0"/>
        <pt x="410" y="318" on="1"/>
        <pt x="414" y="290" on="0"/>
        <pt x="407" y="252" on="1"/>
        <pt x="400" y="233" on="0"/>
        <pt x="387" y="215" on="0"/>
        <pt x="374" y="204" on="1"/>
        <pt x="346" y="189" on="0"/>
        <pt x="248" y="165" on="0"/>
        <pt x="173" y="136" on="0"/>
        <pt x="135" y="122" on="1"/>
        <pt x="36" y="84" on="0"/>
        <pt x="-4" y="81" on="1"/>
        <pt x="-6" y="92" on="0"/>
        <pt x="-17" y="127" on="0"/>
        <pt x="-6" y="147" on="0"/>
        <pt x="2" y="165" on="0"/>
        <pt x="20" y="196" on="0"/>
        <pt x="82" y="237" on="0"/>
        <pt x="151" y="271" on="0"/>
        <pt x="215" y="296" on="0"/>
        <pt x="230" y="302" on="1"/>
      </contour>
    </TTGlyph>
    <TTGlyph name="h" xMin="-16" yMin="-45" xMax="563" yMax="802">
      <contour>
        <pt x="542" y="107" on="1"/>
        <pt x="542" y="54" on="0"/>
        <pt x="555" y="15" on="1"/>
        <pt x="555" y="-17" on="0"/>
        <pt x="525" y="-44" on="0"/>
        <pt x="480" y="-45" on="0"/>
        <pt x="430" y="-26" on="0"/>
        <pt x="395" y="2" on="0"/>
        <pt x="385" y="19" on="0"/>
        <pt x="374" y="36" on="1"/>
        <pt x="357" y="115" on="0"/>
        <pt x="359" y="163" on="0"/>
        <pt x="362" y="180" on="1"/>
        <pt x="312" y="154" on="0"/>
        <pt x="293" y="135" on="1"/>
        <pt x="258" y="100" on="0"/>
        <pt x="234" y="45" on="1"/>
        <pt x="226" y="1" on="0"/>
        <pt x="216" y="-4" on="0"/>
        <pt x="200" y="-6" on="0"/>
        <pt x="182" y="-18" on="0"/>
        <pt x="166" y="-26" on="0"/>
        <pt x="158" y="-30" on="1"/>
        <pt x="139" y="-41" on="0"/>
        <pt x="133" y="-41" on="1"/>
        <pt x="76" y="-59" on="0"/>
        <pt x="24" y="-25" on="1"/>
        <pt x="2" y="-10" on="0"/>
        <pt x="-22" y="37" on="0"/>
        <pt x="-16" y="64" on="1"/>
        <pt x="27" y="249" on="0"/>
        <pt x="102" y="441" on="1"/>
        <pt x="148" y="558" on="0"/>
        <pt x="190" y="626" on="1"/>
        <pt x="200" y="642" on="0"/>
        <pt x="210" y="660" on="1"/>
        <pt x="231" y="696" on="0"/>
        <pt x="239" y="709" on="1"/>
        <pt x="229" y="735" on="0"/>
        <pt x="250" y="774" on="0"/>
        <pt x="293" y="797" on="0"/>
        <pt x="349" y="805" on="0"/>
        <pt x="374" y="802" on="1"/>
        <pt x="434" y="793" on="0"/>
        <pt x="438" y="755" on="1"/>
        <pt x="432" y="737" on="0"/>
        <pt x="411" y="687" on="0"/>
        <pt x="390" y="636" on="0"/>
        <pt x="371" y="592" on="0"/>
        <pt x="362" y="571" on="0"/>
        <pt x="345" y="520" on="0"/>
        <pt x="326" y="461" on="0"/>
        <pt x="318" y="436" on="1"/>
        <pt x="306" y="401" on="1"/>
        <pt x="302" y="387" on="0"/>
        <pt x="284" y="330" on="0"/>
        <pt x="274" y="288" on="1"/>
        <pt x="287" y="298" on="0"/>
        <pt x="304" y="325" on="0"/>
        <pt x="337" y="359" on="0"/>
        <pt x="390" y="392" on="0"/>
        <pt x="420" y="397" on="1"/>
        <pt x="485" y="408" on="0"/>
        <pt x="538" y="355" on="1"/>
        <pt x="578" y="315" on="0"/>
        <pt x="563" y="235" on="1"/>
        <pt x="557" y="202" on="0"/>
        <pt x="540" y="135" on="0"/>
      </contour>
    </TTGlyph>
</ttFont>
